<svg width="24" height="24" viewBox="0 0 24 24" fill="none" xmlns="http://www.w3.org/2000/svg">
<path fill-rule="evenodd" clip-rule="evenodd" d="M6.95373 6.32812L6.9701 8.65625L7.47235 8.69363C8.47873 8.76863 9.28898 9.15619 10.0663 9.93444C10.6365 10.5053 10.8874 10.9088 11.1367 11.6563C11.2599 12.0256 11.2825 12.2204 11.282 12.9062C11.2814 13.6541 11.266 13.7616 11.0892 14.2574C10.8489 14.9307 10.4224 15.5787 9.91991 16.0338C9.23848 16.6511 8.08179 17.1208 7.23573 17.1239L6.93885 17.125V18.5625V20H12.3451H18.8942V13.875V7.75H17.0192H15.1442V5.875V4H10.4694H6.93735L6.95373 6.32812ZM15.6442 5.5625V7.3125H17.3468H18.8618L17.2692 5.65625C16.5823 4.96875 15.6693 4 15.6604 4C15.6515 4 15.6442 4.875 15.6442 5.5625ZM6.06241 9.76725C5.52048 9.952 5.07798 10.2443 4.66535 10.6899C3.18835 12.2853 3.69291 14.9063 5.6576 15.8441C7.87048 16.9003 10.3764 15.3123 10.3764 12.8538C10.3764 11.4121 9.26998 10.014 7.8746 9.69244C7.37398 9.57713 6.51623 9.6125 6.06241 9.76725ZM2.80398 15.8594C2.43879 16.2289 2.10879 16.5927 2.07066 16.6678C1.9521 16.9013 1.98704 17.3351 2.14323 17.5689C2.39904 17.9519 2.92848 18.1081 3.30135 17.9106C3.39416 17.8615 3.77404 17.5149 4.1456 17.1404L5.50807 15.768L5.22011 15.5938C4.90761 15.4063 4.39271 14.8258 4.2641 14.5625C4.20946 14.4506 4.0855 14.5625 2.80398 15.8594Z" fill="#003087"/>
</svg>
