<svg width="24" height="24" viewBox="0 0 24 24" fill="none" xmlns="http://www.w3.org/2000/svg">
<g opacity="0.9">
<path fill-rule="evenodd" clip-rule="evenodd" d="M11.4644 4.03545C11.4644 3.75501 11.5199 3.68012 12.3252 2.87489C13.2598 1.94023 13.4625 1.844 13.8118 2.16948C14.0888 2.42752 14.0366 2.79261 13.6651 3.19572C13.4524 3.42641 13.385 3.54572 13.4555 3.56652C13.5128 3.58336 13.8637 3.67021 14.2353 3.75958C16.9985 4.42385 19.3151 6.47283 20.402 9.21382C21.1993 11.2246 21.1994 13.7546 20.4021 15.7659C19.2815 18.5926 16.9135 20.6255 13.945 21.3091C13.0932 21.5053 11.1952 21.5398 10.3597 21.3743C7.90447 20.888 5.82746 19.4968 4.44954 17.4156C3.47739 15.9472 3.00145 14.3312 3 12.4937C2.99779 9.58919 4.30631 6.96683 6.61935 5.24028C7.20591 4.80243 8.26278 4.22615 8.82024 4.04018C9.14861 3.93062 9.20804 3.93001 9.40955 4.03423C9.65167 4.15948 9.75605 4.41905 9.6823 4.71283C9.64573 4.85843 9.43911 4.99335 8.70269 5.35265C7.60475 5.88825 6.98939 6.33691 6.20748 7.17177C5.24989 8.19428 4.55978 9.53868 4.27111 10.9439C4.11249 11.7157 4.11249 13.2641 4.27111 14.0359C4.56557 15.4692 5.24745 16.7795 6.25944 17.8569C9.40521 21.2059 14.5902 21.2059 17.736 17.8569C18.7627 16.7639 19.4353 15.4599 19.7337 13.9843C19.9304 13.0119 19.8592 11.2783 19.5852 10.3642C18.7919 7.71834 16.8914 5.77435 14.2984 4.9564C13.9505 4.84662 13.6475 4.75687 13.625 4.75687C13.6025 4.75687 13.6728 4.86239 13.7813 4.9913C14.1587 5.43973 13.9508 6.05205 13.4211 6.05205C13.2378 6.05205 13.0399 5.89625 12.3308 5.19365C11.5186 4.38896 11.4644 4.31651 11.4644 4.03545ZM6.74696 9.89318C7.60392 8.1459 9.36734 6.89293 11.2916 6.66406C12.4041 6.53172 13.5183 6.7257 14.55 7.23127C15.7782 7.83323 16.6692 8.71213 17.2484 9.89318C17.7098 10.8336 17.8209 11.3381 17.8209 12.4899C17.8209 13.6425 17.7088 14.1503 17.2493 15.0802C16.6607 16.2712 15.7561 17.1644 14.55 17.7456C13.6342 18.1869 12.9857 18.3372 11.9977 18.3372C11.0086 18.3372 10.36 18.1867 9.44544 17.7447C8.23452 17.1595 7.32355 16.2611 6.74407 15.0802C6.2858 14.1466 6.17449 13.6401 6.17449 12.4899C6.17449 11.3381 6.28565 10.8336 6.74696 9.89318ZM14.4392 11.9766L14.6928 10.9531H13.6782C13.6333 10.661 13.5465 10.3954 13.4178 10.1562C13.3957 10.1146 13.3723 10.0741 13.3476 10.0346L14.4392 10.0391L14.7 9H11.0428H10.8571H9.97852L9.69995 10.207H11.0428C11.5142 10.207 11.8571 10.3281 12.0714 10.5703C12.1697 10.6815 12.2455 10.8091 12.2987 10.9531H9.95709L9.69995 11.9766H12.3352C12.3102 12.0652 12.277 12.1485 12.2357 12.2266C12.1333 12.4219 11.9821 12.5742 11.7821 12.6836C11.5845 12.7904 11.338 12.8438 11.0428 12.8438H9.80709L9.81067 13.7109L12.3107 17H13.8V16.9297L11.5428 13.9023L11.5857 13.8867C12.0904 13.8138 12.4988 13.668 12.8107 13.4492C13.1226 13.2305 13.3511 12.9505 13.4964 12.6094C13.5796 12.4138 13.639 12.2029 13.6745 11.9766H14.4392Z" fill="#003087"/>
</g>
</svg>
