<svg width="24" height="24" viewBox="0 0 24 24" fill="none" xmlns="http://www.w3.org/2000/svg">
<path fill-rule="evenodd" clip-rule="evenodd" d="M6.5625 11.1875V18.375H5.78125H5V19.1875V20H12.1875H19.375V19.1875V18.375H18.5938H17.8125V11.1875V4H12.1875H6.5625V11.1875ZM9.8125 6.40625V7.1875H9H8.1875V6.40625V5.625H9H9.8125V6.40625ZM13 6.40625V7.1875H12.1875H11.375V6.40625V5.625H12.1875H13V6.40625ZM16.1875 6.40625V7.1875H15.375H14.5625V6.40625V5.625H15.375H16.1875V6.40625ZM9.8125 9.59375V10.375H9H8.1875V9.59375V8.8125H9H9.8125V9.59375ZM13 9.59375V10.375H12.1875H11.375V9.59375V8.8125H12.1875H13V9.59375ZM16.1875 9.59375V10.375H15.375H14.5625V9.59375V8.8125H15.375H16.1875V9.59375ZM9.79875 12.7969L9.78125 13.5938L8.98438 13.6112L8.1875 13.6287V12.8144V12H9.00187H9.81625L9.79875 12.7969ZM12.9862 12.7969L12.9688 13.5938H12.1875H11.4062L11.3888 12.7969L11.3713 12H12.1875H13.0037L12.9862 12.7969ZM16.1875 12.8144V13.6287L15.3906 13.6112L14.5938 13.5938L14.5763 12.7969L14.5588 12H15.3731H16.1875V12.8144ZM12.9564 15.4229C13.3472 15.6411 13.6484 16.0534 13.7446 16.5021C13.7819 16.6762 13.8125 17.1688 13.8125 17.5968V18.375H12.1808H10.5491L10.5714 17.4174C10.5929 16.4964 10.601 16.4457 10.7826 16.0893C10.9801 15.7019 11.3628 15.3784 11.7728 15.2519C12.0996 15.1512 12.5986 15.2232 12.9564 15.4229Z" fill="#003087"/>
</svg>
