<svg width="24" height="24" viewBox="0 0 24 24" fill="none" xmlns="http://www.w3.org/2000/svg">
<path fill-rule="evenodd" clip-rule="evenodd" d="M6.8107 5.08449C5.68052 5.38838 4.91938 6.46632 5.01646 7.62549C5.1235 8.90367 6.16288 9.86719 7.44243 9.8743C7.65766 9.8755 7.88853 9.8591 7.95543 9.83787C8.0594 9.80489 8.19357 9.91554 8.87743 10.5983L9.67779 11.3973L10.537 10.5358L11.3963 9.67439L10.6333 8.87392L9.87038 8.07345L9.90336 7.64327C9.96057 6.89711 9.72253 6.24349 9.20353 5.72181C8.5859 5.1009 7.6633 4.85515 6.8107 5.08449ZM15.9665 5.07383C14.7854 5.36142 14.0025 6.46572 14.1016 7.70458L14.1366 8.14291L11.1384 11.1397L8.14019 14.1365L7.70503 14.1003C6.21304 13.9759 5 15.1093 5 16.6276C5 16.8889 5.02171 16.9517 5.15988 17.0899C5.24783 17.1778 5.37242 17.2497 5.4368 17.2497C5.50774 17.2497 5.72357 17.0881 5.98458 16.8395C6.22146 16.6138 6.47996 16.4046 6.55899 16.3746C7.06093 16.1837 7.60887 16.4918 7.66581 16.9969C7.7088 17.3783 7.65553 17.4883 7.1869 17.9858C6.92551 18.2633 6.75026 18.4957 6.75026 18.5648C6.75026 18.6283 6.82219 18.7522 6.91014 18.8401C7.0483 18.9783 7.11114 19 7.37237 19C8.89072 19 10.0241 17.787 9.89975 16.295L9.86348 15.8598L12.8603 12.8616L15.8571 9.86336L16.2954 9.89842C17.7935 10.0182 19.0021 8.88929 19.0021 7.37028C19.0021 7.10905 18.9804 7.04621 18.8422 6.90805C18.7543 6.8201 18.6297 6.74817 18.5653 6.74817C18.4944 6.74817 18.2785 6.90985 18.0175 7.15844C17.7806 7.38412 17.5221 7.59333 17.4431 7.62336C16.9412 7.81419 16.3932 7.50609 16.3363 7.00097C16.2933 6.61964 16.3466 6.50964 16.8152 6.01213C17.0766 5.73461 17.2518 5.5022 17.2518 5.43312C17.2518 5.36962 17.1799 5.24574 17.092 5.15779C16.9475 5.01333 16.8986 4.99835 16.586 5.00256C16.3957 5.00513 16.1169 5.03718 15.9665 5.07383ZM8.32675 6.60476C8.57272 6.8568 8.77395 7.10905 8.77384 7.16539C8.77362 7.35661 8.49686 8.30246 8.41454 8.39342C8.31253 8.50609 7.27178 8.79111 7.11032 8.75058C6.92195 8.70332 6.14861 7.87796 6.14861 7.72422C6.14861 7.58644 6.32998 6.87796 6.42936 6.62746C6.48942 6.47611 6.63277 6.40485 7.21517 6.23682C7.77307 6.07585 7.82837 6.09412 8.32675 6.60476ZM13.4634 13.4627L12.6026 14.3248L13.3846 15.1054L14.1666 15.8861L14.1122 16.2145C13.9939 16.9303 14.2618 17.7133 14.8139 18.2655C15.7848 19.2364 17.2968 19.2364 18.2676 18.2655C19.2385 17.2947 19.2385 15.7827 18.2676 14.8118C17.7177 14.2619 16.9381 13.9935 16.2333 14.1113L15.9118 14.1651L15.118 13.3829L14.3243 12.6006L13.4634 13.4627ZM17.424 15.7021C17.6622 15.9339 17.8703 16.1764 17.8865 16.241C17.9264 16.4 17.648 17.4171 17.5315 17.5378C17.4391 17.6337 16.5322 17.9061 16.3055 17.9061C16.2309 17.9061 16.0213 17.7407 15.7352 17.4561C15.219 16.9426 15.2156 16.9305 15.395 16.2687C15.583 15.5752 15.5422 15.6164 16.24 15.4149C16.9219 15.2179 16.9279 15.2194 17.424 15.7021Z" fill="#003087"/>
</svg>
