<svg width="24" height="24" viewBox="0 0 24 24" fill="none" xmlns="http://www.w3.org/2000/svg">
<path fill-rule="evenodd" clip-rule="evenodd" d="M5.65555 3.09912C5.37206 3.22255 5.07582 3.58248 5.02517 3.86506C5.00276 3.98989 4.99361 7.74341 5.00474 12.2062C5.02489 20.2758 5.0258 20.3215 5.17029 20.5149C5.25019 20.622 5.40306 20.7748 5.51008 20.8547C5.70304 20.9988 5.75411 21 11.753 21C17.7519 21 17.803 20.9988 17.9959 20.8547C18.103 20.7748 18.2558 20.622 18.3357 20.5149C18.4794 20.3226 18.4812 20.2541 18.4998 14.4808L18.5186 8.64122L16.0637 8.621L13.6087 8.60078L13.3427 8.39775C12.8882 8.05099 12.8802 7.99815 12.8802 5.36233V3L9.37532 3.00275C6.62086 3.00493 5.82442 3.02557 5.65555 3.09912ZM14.0074 5.2544V7.50881H16.279H18.5506L16.297 5.2544C15.0575 4.01448 14.0354 3 14.0254 3C14.0155 3 14.0074 4.01448 14.0074 5.2544ZM16.2618 14.8356V18.7808H15.1346H14.0074V14.8356V10.8904H15.1346H16.2618V14.8356ZM12.8802 15.9628V18.7808H11.753H10.6258V15.9628V13.1448H11.753H12.8802V15.9628ZM9.49861 17.09V18.7808H8.37141H7.2442V17.09V15.3992H8.37141H9.49861V17.09Z" fill="#003087"/>
</svg>
