<svg width="24" height="24" viewBox="0 0 24 24" fill="none" xmlns="http://www.w3.org/2000/svg">
<g opacity="0.9">
<path fill-rule="evenodd" clip-rule="evenodd" d="M5.02505 3.86506C5.0757 3.58248 5.37194 3.22255 5.65543 3.09912C5.8243 3.02557 6.62074 3.00493 9.3752 3.00275L12.8801 3V5.36233C12.8801 7.99815 12.8881 8.05099 13.3426 8.39775L13.6086 8.60078L16.0636 8.621L18.5185 8.64122L18.4997 14.4808C18.4811 20.2541 18.4793 20.3226 18.3356 20.5149C18.2557 20.622 18.1028 20.7748 17.9958 20.8547C17.8029 20.9988 17.7518 21 11.7529 21C5.75399 21 5.70292 20.9988 5.50995 20.8547C5.40294 20.7748 5.25006 20.622 5.17017 20.5149C5.02568 20.3215 5.02476 20.2758 5.00461 12.2062C4.99348 7.74341 5.00264 3.98989 5.02505 3.86506ZM14.0073 7.50881V5.2544C14.0073 4.01448 14.0154 3 14.0253 3C14.0353 3 15.0574 4.01448 16.2969 5.2544L18.5505 7.50881H16.2789H14.0073ZM9.27185 11.2804C9.8447 10.9017 10.6252 10.6127 11.2817 10.5361C11.6909 10.4884 11.8588 10.4881 12.262 10.5343C13.8584 10.7171 15.1883 11.6696 15.8749 13.1218C16.6588 14.7799 16.3397 16.7525 15.0716 18.0887C14.1771 19.0313 13.0682 19.5059 11.7743 19.4999C10.5873 19.4945 9.56299 19.0874 8.71452 18.2838C7.77914 17.398 7.29993 16.2892 7.29993 15.0109C7.29993 13.9915 7.61072 13.069 8.22478 12.266C8.45889 11.9598 8.96571 11.4827 9.27185 11.2804ZM12.2604 13.733C12.2604 12.6182 12.2371 12.4905 12.0122 12.3743C11.9418 12.338 11.8404 12.3083 11.7869 12.3084C11.6334 12.3086 11.4304 12.4565 11.3782 12.6061C11.3471 12.6951 11.3304 13.1491 11.3304 13.9023C11.3304 14.8877 11.3408 15.0833 11.3995 15.207C11.4616 15.3378 11.5709 15.4037 12.479 15.8574C13.0346 16.1351 13.5372 16.3623 13.5956 16.3623C13.9503 16.3623 14.1739 15.9136 13.9557 15.6396C13.9117 15.5841 13.5122 15.3587 13.068 15.1385L12.2604 14.7382V13.733Z" fill="#003087"/>
</g>
</svg>
