<svg width="24" height="24" viewBox="0 0 24 24" fill="none" xmlns="http://www.w3.org/2000/svg">
<g opacity="0.9">
<path fill-rule="evenodd" clip-rule="evenodd" d="M5.02517 3.86506C5.07582 3.58248 5.37206 3.22255 5.65555 3.09912C5.82442 3.02557 6.62086 3.00493 9.37532 3.00275L12.8802 3V5.36233C12.8802 7.99815 12.8882 8.05099 13.3427 8.39775L13.6087 8.60078L16.0637 8.621L18.5186 8.64122L18.4998 14.4808C18.4812 20.2541 18.4794 20.3226 18.3357 20.5149C18.2558 20.622 18.103 20.7748 17.9959 20.8547C17.803 20.9988 17.7519 21 11.753 21C5.75411 21 5.70304 20.9988 5.51008 20.8547C5.40306 20.7748 5.25019 20.622 5.17029 20.5149C5.0258 20.3215 5.02489 20.2758 5.00474 12.2062C4.99361 7.74341 5.00276 3.98989 5.02517 3.86506ZM14.0074 7.50881V5.2544C14.0074 4.01448 14.0155 3 14.0254 3C14.0354 3 15.0575 4.01448 16.297 5.2544L18.5506 7.50881H16.279H14.0074ZM10.6951 10.5071C10.8635 10.3366 11.0496 10.2235 11.3375 10.1169C11.4294 10.0829 11.6143 10.0664 11.834 10.0728C12.2711 10.0853 12.5984 10.2176 12.8745 10.4934C13.0019 10.6205 13.6705 11.67 14.9666 13.777C16.0144 15.4802 16.9098 16.9546 16.9564 17.0535C17.0215 17.1914 17.0416 17.3172 17.0427 17.593C17.0441 17.9158 17.0309 17.98 16.9135 18.2204C16.7532 18.5488 16.5005 18.8007 16.1771 18.9548L15.9322 19.0714H11.7928H7.65347L7.40856 18.9548C7.08516 18.8007 6.83251 18.5488 6.67213 18.2204C6.55478 17.98 6.54156 17.9158 6.54292 17.593C6.54412 17.3172 6.56421 17.1914 6.62925 17.0535C6.81974 16.6494 10.5322 10.6721 10.6951 10.5071ZM12.3277 12.2176C12.2744 12.116 12.1869 12.0311 12.0822 11.9794C11.7692 11.8244 11.4101 11.9283 11.2578 12.2177C11.1798 12.3662 11.175 12.4517 11.175 13.6994C11.175 15.1637 11.1821 15.2093 11.4375 15.3861C11.5332 15.4523 11.6245 15.4752 11.7928 15.4752C11.9612 15.4752 12.0524 15.4523 12.1482 15.3861C12.4036 15.2093 12.4106 15.1637 12.4106 13.6994C12.4106 12.4512 12.4059 12.3662 12.3277 12.2176ZM12.5577 16.4982C12.4913 16.4053 12.3578 16.2842 12.261 16.2292C12.0687 16.1198 11.723 16.0735 11.536 16.132C11.3353 16.1948 11.148 16.3302 11.0263 16.5005C10.9188 16.6509 10.9073 16.6987 10.9073 16.9931C10.9073 17.2821 10.9202 17.338 11.0209 17.4856C11.0834 17.5773 11.2118 17.7018 11.3062 17.7624C11.456 17.8587 11.518 17.8727 11.7928 17.8727C12.0677 17.8727 12.1296 17.8587 12.2794 17.7624C12.3739 17.7018 12.5023 17.5773 12.5647 17.4856C12.6655 17.338 12.6784 17.2821 12.6784 16.9931C12.6784 16.6977 12.667 16.6512 12.5577 16.4982Z" fill="#003087"/>
</g>
</svg>
