<svg width="24" height="24" viewBox="0 0 24 24" fill="none" xmlns="http://www.w3.org/2000/svg">
<g opacity="0.9">
<path fill-rule="evenodd" clip-rule="evenodd" d="M5.02517 3.86506C5.07582 3.58248 5.37206 3.22255 5.65555 3.09912C5.82442 3.02557 6.62086 3.00493 9.37532 3.00275L12.8802 3V5.36233C12.8802 7.99815 12.8882 8.05099 13.3427 8.39775L13.6087 8.60078L16.0637 8.621L18.5186 8.64122L18.4998 14.4808C18.4812 20.2541 18.4794 20.3226 18.3357 20.5149C18.2558 20.622 18.103 20.7748 17.9959 20.8547C17.803 20.9988 17.7519 21 11.753 21C5.75411 21 5.70304 20.9988 5.51008 20.8547C5.40306 20.7748 5.25019 20.622 5.17029 20.5149C5.0258 20.3215 5.02489 20.2758 5.00474 12.2062C4.99361 7.74341 5.00276 3.98989 5.02517 3.86506ZM14.0074 7.50881V5.2544C14.0074 4.01448 14.0155 3 14.0254 3C14.0354 3 15.0575 4.01448 16.297 5.2544L18.5506 7.50881H16.279H14.0074ZM7.2874 14.0828C7.65149 12.4063 9.11877 11.0655 10.9321 10.7521C11.4155 10.6686 12.4643 10.7313 12.9483 10.8726C14.5521 11.3408 15.7564 12.5737 16.0841 14.0828C16.2007 14.6195 16.2247 17.1556 16.1158 17.4271C16.0161 17.6756 15.8393 17.8295 15.1499 18.2683L14.9594 18.3895C14.6849 18.5641 14.5187 18.8669 14.5187 19.1922C14.5187 19.4807 14.2848 19.7146 13.9963 19.7146H13.9336H13.8722C13.583 19.7146 13.3486 19.4802 13.3486 19.1909C13.3486 18.9017 13.1141 18.6673 12.8249 18.6673H12.7943H12.7637C12.4745 18.6673 12.24 18.9017 12.24 19.1909C12.24 19.4802 12.0056 19.7146 11.7164 19.7146H11.6858H11.6552C11.366 19.7146 11.1315 19.4802 11.1315 19.1909C11.1315 18.9017 10.8971 18.6673 10.6078 18.6673H10.5772H10.5466C10.2574 18.6673 10.023 18.9017 10.023 19.1909C10.023 19.4802 9.78851 19.7146 9.4993 19.7146H9.4379H9.37522C9.08672 19.7146 8.85284 19.4807 8.85284 19.1922C8.85284 18.8669 8.68663 18.5641 8.41216 18.3895L8.22159 18.2683C7.5322 17.8295 7.35539 17.6756 7.25575 17.4271C7.14686 17.1556 7.17088 14.6195 7.2874 14.0828ZM10.5211 16.2295C10.6343 15.7532 10.3645 15.2644 9.87152 15.0529C9.55627 14.9175 9.31812 14.9177 9.0068 15.0535C8.70867 15.1834 8.52102 15.3677 8.39391 15.6552C8.26987 15.9356 8.27529 16.1404 8.41435 16.4296C8.86657 17.3702 10.2817 17.2358 10.5211 16.2295ZM14.9566 15.6126C14.819 15.3309 14.624 15.1537 14.3197 15.0336C14.0229 14.9164 13.8061 14.9215 13.5 15.0529C13.007 15.2644 12.7372 15.7532 12.8505 16.2295C13.0898 17.2358 14.505 17.3702 14.9572 16.4296C15.1004 16.1317 15.1002 15.9067 14.9566 15.6126ZM12.2373 17.4309C12.2339 17.192 12.0995 16.8316 11.9592 16.6852C11.9 16.6233 11.7769 16.5726 11.6858 16.5726C11.5946 16.5726 11.4716 16.6233 11.4123 16.6852C11.272 16.8316 11.1376 17.192 11.1342 17.4309C11.1327 17.5349 11.2166 17.62 11.3206 17.62H11.6858H12.0509C12.1549 17.62 12.2388 17.5349 12.2373 17.4309Z" fill="#003087"/>
</g>
</svg>
