<svg width="24" height="24" viewBox="0 0 24 24" fill="none" xmlns="http://www.w3.org/2000/svg">
<path d="M20.5949 11.8689L12.8956 4.17522C12.8402 4.11968 12.7743 4.07561 12.7018 4.04554C12.6293 4.01548 12.5516 4 12.4731 4C12.3947 4 12.317 4.01548 12.2445 4.04554C12.172 4.07561 12.1061 4.11968 12.0507 4.17522L4.35141 11.8689C4.12711 12.0932 4 12.3979 4 12.7157C4 13.3755 4.53646 13.912 5.1963 13.912H6.00754V19.4019C6.00754 19.7327 6.27483 20 6.60568 20H11.2768V15.813H13.3704V20H18.3406C18.6715 20 18.9388 19.7327 18.9388 19.4019V13.912H19.75C20.0678 13.912 20.3724 13.7867 20.5968 13.5606C21.0622 13.0932 21.0622 12.3362 20.5949 11.8689Z" fill="#003087"/>
</svg>
