<svg width="24" height="24" viewBox="0 0 24 24" fill="none" xmlns="http://www.w3.org/2000/svg">
<path fill-rule="evenodd" clip-rule="evenodd" d="M5.11024 6.07355C3.75202 6.58039 3.61841 8.38333 4.88701 9.08447C5.16624 9.23878 5.29011 9.26834 5.65721 9.26834C6.02593 9.26834 6.14792 9.23896 6.43347 9.08129C7.58214 8.44702 7.59695 6.86425 6.4604 6.19817C6.11661 5.99668 5.47484 5.93743 5.11024 6.07355ZM9.58538 6.65045C9.28978 6.79625 9.11566 7.01411 9.03223 7.34265C8.89262 7.89249 9.10285 8.37502 9.58338 8.60763C9.84899 8.73625 9.91548 8.738 14.5045 8.737L19.1563 8.73594L19.4044 8.59538C20.0277 8.24241 20.1832 7.45983 19.7323 6.94624C19.3695 6.53308 19.6029 6.55052 14.4555 6.55208C10.3603 6.55333 9.75762 6.56552 9.58538 6.65045ZM5.02319 10.5158C4.73964 10.6392 4.32592 11.0327 4.16987 11.3273C4.06656 11.5224 4.03519 11.6907 4.03519 12.0503C4.03519 12.6062 4.16393 12.9005 4.5659 13.2636C4.91638 13.5803 5.16793 13.6752 5.65721 13.6752C6.14649 13.6752 6.39803 13.5803 6.74851 13.2636C7.15048 12.9005 7.27922 12.6062 7.27922 12.0503C7.27922 11.6907 7.24785 11.5224 7.14454 11.3273C6.98424 11.0246 6.5694 10.6351 6.27729 10.5131C6.01156 10.402 5.28098 10.4036 5.02319 10.5158ZM9.72912 11.0155C9.26303 11.1836 8.9863 11.5691 8.9863 12.0503C8.9863 12.5542 9.3174 12.9792 9.8143 13.113C9.97917 13.1574 11.5642 13.1733 14.6439 13.1615L19.2281 13.144L19.4815 12.9762C19.7691 12.7858 20 12.3736 20 12.0503C20 11.727 19.7691 11.3148 19.4815 11.1243L19.2281 10.9566L14.5987 10.9427C10.7826 10.9313 9.92723 10.944 9.72912 11.0155ZM5.18111 14.8826C3.76127 15.4139 3.57953 17.1537 4.86501 17.9093C5.11799 18.0581 5.22436 18.0811 5.65721 18.0811C6.09005 18.0811 6.19642 18.0581 6.4494 17.9093C7.33941 17.3862 7.57383 16.3092 6.97662 15.4875C6.58852 14.9536 5.74808 14.6704 5.18111 14.8826ZM9.5782 15.4944C9.26547 15.6492 9.08942 15.8736 9.01261 16.2155C8.94242 16.528 9.05467 16.9975 9.24909 17.2044C9.58557 17.5626 9.39396 17.5499 14.4649 17.5499C19.6015 17.5499 19.3697 17.5673 19.7323 17.1543C20.1832 16.6407 20.0277 15.8581 19.4044 15.5052L19.1563 15.3646L14.5004 15.3636C9.88936 15.3627 9.84187 15.3639 9.5782 15.4944Z" fill="#003087"/>
</svg>
