<svg width="24" height="24" viewBox="0 0 24 24" fill="none" xmlns="http://www.w3.org/2000/svg">
<path fill-rule="evenodd" clip-rule="evenodd" d="M5.02517 3.86506C5.07582 3.58248 5.37206 3.22255 5.65555 3.09912C5.82442 3.02557 6.62086 3.00493 9.37532 3.00275L12.8802 3V5.36233C12.8802 7.99815 12.8882 8.05099 13.3427 8.39775L13.6087 8.60078L16.0637 8.621L18.5186 8.64122L18.4998 14.4808C18.4812 20.2541 18.4794 20.3226 18.3357 20.5149C18.2558 20.622 18.103 20.7748 17.9959 20.8547C17.803 20.9988 17.7519 21 11.753 21C5.75411 21 5.70304 20.9988 5.51008 20.8547C5.40306 20.7748 5.25019 20.622 5.17029 20.5149C5.0258 20.3215 5.02489 20.2758 5.00474 12.2062C4.99361 7.74341 5.00276 3.98989 5.02517 3.86506ZM14.0074 7.50881V5.2544C14.0074 4.01448 14.0155 3 14.0254 3C14.0354 3 15.0575 4.01448 16.297 5.2544L18.5506 7.50881H16.279H14.0074ZM10.7094 10.2663C10.8933 10.1768 11.1545 10.0808 11.2899 10.0529C11.8417 9.93914 12.3592 10.0082 12.8907 10.2665C13.1727 10.4036 13.2717 10.4763 13.5246 10.7324C14.0246 11.2388 14.2438 11.762 14.2425 12.4455C14.2413 13.0616 14.0762 13.5388 13.7044 14.0011C13.2371 14.5821 12.5597 14.9029 11.8 14.9029C11.0404 14.9029 10.363 14.5821 9.8957 14.0011C9.5239 13.5388 9.3588 13.0616 9.3576 12.4455C9.35626 11.762 9.57551 11.2388 10.0755 10.7324C10.3282 10.4765 10.4276 10.4034 10.7094 10.2663ZM10.9909 15.5045C10.9909 15.462 11.0261 15.4025 11.0691 15.3724C11.133 15.3275 11.2662 15.3175 11.8 15.3175C12.5047 15.3175 12.6092 15.3416 12.6092 15.5045C12.6092 15.547 12.5203 15.8489 12.4116 16.1755L12.214 16.7694L12.3286 17.3561C12.3916 17.6788 12.4534 17.9546 12.466 17.9689C12.4786 17.9832 12.6703 17.4846 12.892 16.861C13.1138 16.2374 13.3291 15.687 13.3704 15.638C13.4441 15.5505 13.4491 15.5497 13.6343 15.5961C13.975 15.6816 14.5887 15.9188 15.0623 16.1482C15.4449 16.3336 15.5675 16.4129 15.7518 16.5944C16.1472 16.9835 16.325 17.4788 16.2972 18.1138C16.2844 18.4077 16.2705 18.4663 16.1777 18.6166C16.1131 18.7212 16.0064 18.8278 15.9005 18.8934L15.7283 19H11.8H7.87183L7.69962 18.8934C7.59373 18.8278 7.48695 18.7212 7.4224 18.6166C7.32962 18.4663 7.31569 18.4077 7.30285 18.1138C7.27513 17.4788 7.45293 16.9835 7.84826 16.5944C8.03265 16.4129 8.15522 16.3336 8.53785 16.1482C9.01135 15.9188 9.62508 15.6816 9.96585 15.5961C10.151 15.5497 10.156 15.5505 10.2297 15.638C10.271 15.687 10.4863 16.2374 10.7081 16.861C10.9298 17.4846 11.1215 17.9832 11.1341 17.9689C11.1467 17.9546 11.2085 17.6788 11.2715 17.3561L11.3861 16.7694L11.1885 16.1755C11.0798 15.8489 10.9909 15.547 10.9909 15.5045Z" fill="#003087"/>
</svg>
