<svg width="24" height="24" viewBox="0 0 24 24" fill="none" xmlns="http://www.w3.org/2000/svg">
<path fill-rule="evenodd" clip-rule="evenodd" d="M12.5695 4.08614C12.0082 4.20668 11.2339 4.60488 10.7916 5.00039C9.47811 6.1751 9.09912 8.14766 9.88714 9.7075C10.291 10.5068 10.8788 11.0956 11.6623 11.4855C12.2444 11.7752 12.7615 11.8935 13.4452 11.8933C14.5256 11.893 15.4583 11.4983 16.237 10.7119C17.4743 9.46261 17.7328 7.53278 16.8694 5.99052C16.591 5.49311 15.7564 4.6907 15.2592 4.44237C14.4208 4.02365 13.4557 3.8958 12.5695 4.08614ZM10.2551 12.5954C9.48474 12.7998 8.76991 13.2856 8.35695 13.8852L8.12375 14.2238L9.07998 15.8908L10.0362 17.5577L12.0691 17.559C14.3935 17.5605 14.6741 17.5247 15.4742 17.1238C16.0064 16.8571 19.2972 14.5074 19.5909 14.1844C19.9781 13.7584 19.6708 13.1214 19.0782 13.1214C18.9483 13.1214 18.5699 13.359 17.6893 13.9936C15.8807 15.2969 15.6728 15.4371 15.4082 15.5314C15.2318 15.5943 14.8045 15.6187 13.8446 15.6207C12.6009 15.6232 12.5142 15.6158 12.359 15.4937C12.1479 15.3277 12.1327 14.9976 12.3276 14.8159C12.4514 14.7006 12.5651 14.6902 13.897 14.6727L15.3328 14.6539L15.4837 14.4783C15.6454 14.2902 15.6846 13.9573 15.5701 13.7434C15.4324 13.486 15.1959 13.4341 14.1596 13.4341H13.1789L12.939 13.2174C12.2646 12.6081 11.1662 12.3535 10.2551 12.5954ZM5.37613 14.5999C4.73967 14.9654 4.16964 15.3073 4.10946 15.3598C4.04929 15.4122 4 15.5329 4 15.6279C4 15.8105 6.25066 19.7806 6.43424 19.9218C6.48873 19.9637 6.59106 19.9989 6.66156 20C6.82056 20.0025 9.05708 18.7322 9.20739 18.5541C9.26763 18.4828 9.31686 18.3662 9.31686 18.295C9.31686 18.128 7.10054 14.2608 6.8985 14.0753C6.81424 13.9978 6.69759 13.9347 6.63929 13.935C6.58099 13.9352 6.01259 14.2345 5.37613 14.5999Z" fill="#003087"/>
</svg>
