<svg width="24" height="24" viewBox="0 0 24 24" fill="none" xmlns="http://www.w3.org/2000/svg">
<g opacity="0.9">
<path d="M15.0769 10.7692C15.0769 9.58333 14.6554 8.56891 13.8125 7.72596C12.9696 6.88301 11.9551 6.46154 10.7692 6.46154C9.58333 6.46154 8.56891 6.88301 7.72596 7.72596C6.88301 8.56891 6.46154 9.58333 6.46154 10.7692C6.46154 11.9551 6.88301 12.9696 7.72596 13.8125C8.56891 14.6554 9.58333 15.0769 10.7692 15.0769C11.9551 15.0769 12.9696 14.6554 13.8125 13.8125C14.6554 12.9696 15.0769 11.9551 15.0769 10.7692ZM20 18.7692C20 19.1026 19.8782 19.391 19.6346 19.6346C19.391 19.8782 19.1026 20 18.7692 20C18.4231 20 18.1346 19.8782 17.9038 19.6346L14.6058 16.3462C13.4583 17.141 12.1795 17.5385 10.7692 17.5385C9.85256 17.5385 8.97596 17.3606 8.13942 17.0048C7.30288 16.649 6.58173 16.1683 5.97596 15.5625C5.37019 14.9567 4.88942 14.2356 4.53365 13.399C4.17788 12.5625 4 11.6859 4 10.7692C4 9.85256 4.17788 8.97596 4.53365 8.13942C4.88942 7.30288 5.37019 6.58173 5.97596 5.97596C6.58173 5.37019 7.30288 4.88942 8.13942 4.53365C8.97596 4.17788 9.85256 4 10.7692 4C11.6859 4 12.5625 4.17788 13.399 4.53365C14.2356 4.88942 14.9567 5.37019 15.5625 5.97596C16.1683 6.58173 16.649 7.30288 17.0048 8.13942C17.3606 8.97596 17.5385 9.85256 17.5385 10.7692C17.5385 12.1795 17.141 13.4583 16.3462 14.6058L19.6442 17.9038C19.8814 18.141 20 18.4295 20 18.7692Z" fill="#003087"/>
</g>
</svg>
