<svg width="24" height="24" viewBox="0 0 24 24" fill="none" xmlns="http://www.w3.org/2000/svg">
<path fill-rule="evenodd" clip-rule="evenodd" d="M11.5103 5.05643C10.2384 5.34703 9.1779 6.30076 8.79424 7.49904C8.63299 8.00274 8.59621 8.89563 8.71471 9.42842C9.00004 10.711 9.98118 11.7396 11.2996 12.1383C11.7502 12.2746 12.7607 12.2744 13.2146 12.138C14.39 11.7845 15.3568 10.8607 15.7169 9.74703C15.897 9.19017 15.9197 8.24916 15.7665 7.69098C15.4229 6.4386 14.5075 5.50554 13.242 5.11787C12.8301 4.9917 11.933 4.95986 11.5103 5.05643ZM9.03255 12.6277C7.98444 12.9098 7.08935 13.5229 6.47001 14.3829C6.11589 14.8747 5.94988 15.259 6.01324 15.4407C6.10252 15.6967 6.74483 16.4996 7.24934 16.9856C10.2987 19.9235 15.2259 19.607 17.8783 16.303C18.0746 16.0584 18.3091 15.73 18.3993 15.5733L18.5633 15.2885L18.4173 14.9978C18.0517 14.27 17.3898 13.5542 16.7072 13.1486C16.1245 12.8025 15.4788 12.5827 15.0233 12.5757C14.6732 12.5702 14.6167 12.5856 14.3778 12.7515C13.1667 13.5923 11.37 13.5875 10.1117 12.7401C9.77921 12.5162 9.53964 12.4912 9.03255 12.6277Z" fill="#003087"/>
</svg>
