<?xml version="1.0" standalone="no"?>
<!DOCTYPE svg PUBLIC "-//W3C//DTD SVG 1.1//EN" "http://www.w3.org/Graphics/SVG/1.1/DTD/svg11.dtd" >
<svg xmlns="http://www.w3.org/2000/svg">
<metadata>Generated by IcoMoon</metadata>
<defs>
<font id="icomoon" horiz-adv-x="1024">
<font-face units-per-em="1024" ascent="960" descent="-64" />
<missing-glyph horiz-adv-x="1024" />
<glyph unicode="&#x20;" horiz-adv-x="512" d="" />
<glyph unicode="&#xe900;" glyph-name="Icon-NameAudit-Reports, ThemeDefault" d="M296.692 690l0.698-99.334 21.429-1.595c42.939-3.2 77.51-19.736 110.675-52.941 24.329-24.357 35.034-41.573 45.67-73.466 5.257-15.757 6.221-24.068 6.199-53.329-0.026-31.91-0.683-36.497-8.226-57.651-10.253-28.727-28.45-56.375-49.89-75.793-29.074-26.338-78.426-46.379-114.525-46.511l-12.667-0.047v-122.667h510.095v522.667h-160v160h-350.159l0.699-99.333zM667.486 722.667v-74.667h137.284l-67.951 70.667c-29.308 29.333-68.262 70.667-68.642 70.667s-0.691-37.333-0.691-66.667zM258.663 543.264c-23.122-7.883-42.002-20.354-59.608-39.366-63.019-68.070-41.491-179.9 42.336-219.913 94.416-45.065 201.335 22.69 201.335 127.586 0 61.513-47.207 121.165-106.743 134.885-21.36 4.92-57.957 3.411-77.32-3.192zM119.636 283.332c-15.581-15.765-29.661-31.287-31.288-34.492-5.059-9.963-3.568-28.471 3.096-38.447 10.915-16.341 33.504-23.006 49.413-14.579 3.96 2.095 20.168 16.883 36.021 32.862l58.132 58.556-12.286 7.433c-13.333 8-35.302 32.768-40.79 44.002-2.331 4.774-7.62 0-62.298-55.334z" />
<glyph unicode="&#xe901;" glyph-name="Icon-NameCBR, ThemeDefault1" d="M489.148 787.821c0 11.965 2.368 15.161 36.727 49.517 39.876 39.879 48.525 43.985 63.428 30.097 11.819-11.010 9.591-26.587-6.259-43.786-9.075-9.843-11.951-14.933-8.943-15.821 2.445-0.719 17.417-4.424 33.271-8.237 117.897-28.342 216.738-115.765 263.113-232.714 34.018-85.793 34.022-193.74 0.004-279.555-47.812-120.606-148.847-207.343-275.503-236.51-36.343-8.371-117.325-9.843-152.973-2.782-104.756 20.749-193.376 80.107-252.167 168.905-41.478 62.652-61.785 131.601-61.847 210.001-0.094 123.926 55.736 235.813 154.426 309.479 25.027 18.682 70.12 43.27 93.905 51.204 14.010 4.675 16.546 4.701 25.144 0.254 10.33-5.344 14.784-16.419 11.637-28.954-1.56-6.212-10.376-11.969-41.797-27.299-46.845-22.852-73.101-41.995-106.462-77.616-40.857-43.627-70.302-100.988-82.618-160.944-6.768-32.93-6.768-98.995 0-131.925 12.564-61.154 41.657-117.060 84.835-163.029 134.22-142.891 355.446-142.891 489.667 0 43.806 46.635 72.503 102.272 85.235 165.231 8.393 41.489 5.355 115.456-6.336 154.458-33.847 112.89-114.935 195.834-225.57 230.733-14.844 4.684-27.772 8.513-28.732 8.513s2.039-4.502 6.669-10.002c16.102-19.133 7.232-45.259-15.369-45.259-7.821 0-16.265 6.647-46.519 36.625-34.654 34.333-36.966 37.425-36.966 49.417zM287.87 537.891c36.564 74.551 111.803 128.011 193.905 137.776 47.467 5.647 95.006-2.63 139.025-24.201 52.403-25.684 90.419-63.183 115.132-113.575 19.686-40.125 24.427-61.65 24.427-110.793 0-49.178-4.783-70.844-24.388-110.519-25.114-50.816-63.71-88.926-115.17-113.724-39.074-18.829-66.743-25.242-108.898-25.242-42.202 0-69.875 6.421-108.896 25.28-51.666 24.969-90.534 63.3-115.258 113.685-19.553 39.834-24.302 61.444-24.302 110.519 0 49.143 4.743 70.669 24.425 110.793zM616.073 448.998l10.82 43.669h-43.29c-1.916 12.463-5.619 23.795-11.11 34.001-0.943 1.775-1.941 3.503-2.995 5.188l46.575-0.192 11.127 44.335h-201.45l-11.886-51.499h57.295c20.113 0 34.743-5.167 43.887-15.501 4.194-4.745 7.428-10.189 9.698-16.333h-99.909l-10.971-43.669h112.437c-1.067-3.78-2.483-7.334-4.245-10.667-4.369-8.333-10.82-14.831-19.354-19.499-8.431-4.557-18.948-6.835-31.543-6.835h-52.724l0.153-36.996 106.668-140.335h63.543v2.999l-96.307 129.169 1.83 0.666c21.534 3.11 38.959 9.331 52.267 18.667 13.308 9.331 23.057 21.278 29.257 35.831 3.55 8.346 6.084 17.344 7.599 26.999h32.627z" />
<glyph unicode="&#xe902;" glyph-name="Icon-NameClient-Management, ThemeDefault2" d="M280 482.667v-306.667h-66.667v-69.333h613.333v69.333h-66.667v613.333h-480v-306.667zM418.667 686.667v-33.333h-69.333v66.667h69.333v-33.333zM554.667 686.667v-33.333h-69.333v66.667h69.333v-33.333zM690.667 686.667v-33.333h-69.333v66.667h69.333v-33.333zM418.667 550.667v-33.333h-69.333v66.667h69.333v-33.333zM554.667 550.667v-33.333h-69.333v66.667h69.333v-33.333zM690.667 550.667v-33.333h-69.333v66.667h69.333v-33.333zM418.080 413.999l-0.747-34.001-68-1.489v69.491h69.493l-0.747-34.001zM554.078 413.999l-0.742-34.001h-66.671l-0.742 34.001-0.747 34.001h69.649l-0.747-34.001zM690.667 413.252v-34.743l-67.998 1.489-1.493 68.002h69.491v-34.748zM552.806 301.956c16.674-9.31 29.525-26.901 33.63-46.046 1.591-7.428 2.897-28.446 2.897-46.707v-33.203h-139.238l0.951 40.858c0.917 39.296 1.263 41.459 9.011 56.666 8.427 16.529 24.755 30.332 42.249 35.729 13.943 4.297 35.234 1.225 50.5-7.296z" />
<glyph unicode="&#xe903;" glyph-name="Icon-NameConfiguration, ThemeDefault3" d="M290.59 743.062c-48.221-12.966-80.696-58.958-76.554-108.416 4.567-54.536 48.914-95.646 103.508-95.949 9.183-0.051 19.034 0.649 21.888 1.554 4.436 1.407 10.161-3.314 39.339-32.445l34.149-34.091 73.323 73.511-65.106 68.307 1.407 18.354c2.441 31.836-7.715 59.724-29.859 81.982-26.352 26.492-65.716 36.977-102.094 27.192zM681.237 743.517c-50.394-12.271-83.797-59.387-79.569-112.245l1.493-18.702-255.847-255.727-18.567 1.545c-63.658 5.308-115.415-43.051-115.415-107.831 0-11.149 0.926-13.828 6.822-19.725 3.753-3.75 9.068-6.818 11.815-6.818 3.027 0 12.236 6.895 23.372 17.502 10.107 9.63 21.136 18.556 24.508 19.836 21.416 8.145 44.795-5.001 47.224-26.551 1.834-16.273-0.439-20.966-20.433-42.193-11.153-11.84-18.63-21.756-18.63-24.704 0-2.709 3.069-7.996 6.822-11.746 5.895-5.897 8.576-6.822 19.722-6.822 64.783 0 113.14 51.755 107.835 115.413l-1.548 18.569 255.728 255.848 18.701-1.496c63.919-5.111 115.486 43.056 115.486 107.867 0 11.146-0.926 13.827-6.822 19.722-3.75 3.753-9.067 6.822-11.814 6.822-3.025 0-12.237-6.898-23.373-17.505-10.108-9.629-21.137-18.555-24.508-19.837-21.414-8.142-44.796 5.004-47.223 26.555-1.835 16.27 0.439 20.963 20.433 42.191 11.153 11.841 18.628 21.757 18.628 24.704 0 2.709-3.068 7.995-6.818 11.747-6.165 6.164-8.252 6.803-21.589 6.623-8.119-0.11-20.015-1.477-26.432-3.041zM355.275 678.197c10.495-10.754 19.081-21.516 19.076-23.92-0.009-8.159-11.818-48.515-15.33-52.396-4.352-4.807-48.758-16.968-55.647-15.239-8.037 2.016-41.033 37.232-41.033 43.791 0 5.879 7.738 36.107 11.979 46.795 2.563 6.458 8.679 9.498 33.528 16.667 23.804 6.868 26.163 6.089 47.427-15.699zM574.438 385.591l-36.727-36.783 66.731-66.615-2.321-14.012c-5.047-30.541 6.383-63.949 29.939-87.509 41.425-41.425 105.937-41.425 147.358 0 41.425 41.421 41.425 105.933 0 147.358-23.462 23.462-56.725 34.914-86.797 29.888l-13.717-2.295-67.733 66.752-36.732-36.783zM743.424 290.044c10.163-9.89 19.042-20.237 19.733-22.993 1.702-6.784-10.176-50.18-15.147-55.33-3.942-4.092-42.637-15.714-52.309-15.714-3.183 0-12.126 7.057-24.333 19.2-22.025 21.909-22.17 22.426-14.515 50.662 8.021 29.589 6.281 27.831 36.053 36.429 29.094 8.405 29.35 8.341 50.517-12.254z" />
<glyph unicode="&#xe904;" glyph-name="Icon-NameDaily-Reports, ThemeDefault4" d="M241.303 827.771c-12.096-5.266-24.735-20.623-26.896-32.68-0.956-5.326-1.347-165.476-0.872-355.889 0.86-344.303 0.899-346.253 7.063-354.505 3.409-4.57 9.932-11.089 14.498-14.498 8.233-6.148 10.412-6.199 266.365-6.199s258.133 0.051 266.364 6.199c4.57 3.409 11.089 9.929 14.498 14.498 6.131 8.205 6.208 11.127 7.002 257.455l0.802 249.155-209.489 1.725-11.349 8.663c-19.392 14.795-19.733 17.050-19.733 129.511v100.793l-149.542-0.117c-117.524-0.093-151.505-0.974-158.71-4.112zM597.649 735.812v-96.188h193.843l-96.154 96.188c-52.885 52.903-96.495 96.188-96.922 96.188-0.422 0-0.768-43.284-0.768-96.188zM693.837 327.014v-168.329h-96.188v336.657h96.188v-168.329zM549.555 278.921v-120.235h-96.188v240.469h96.188v-120.235zM405.274 230.827v-72.141h-96.188v144.282h96.188v-72.141z" />
<glyph unicode="&#xe905;" glyph-name="Icon-NameEOD-Reports, ThemeDefault5" d="M214.407 795.091c-0.956-5.326-1.347-165.476-0.872-355.889 0.86-344.303 0.899-346.253 7.063-354.505 3.409-4.57 9.932-11.089 14.498-14.498 8.233-6.148 10.412-6.199 266.365-6.199s258.133 0.051 266.364 6.199c4.57 3.409 11.089 9.929 14.498 14.498 6.131 8.205 6.208 11.127 7.002 257.455l0.802 249.155-209.489 1.725-11.349 8.663c-19.392 14.795-19.733 17.050-19.733 129.511v100.793l-149.542-0.117c-117.524-0.093-151.505-0.974-158.71-4.112-12.096-5.266-24.735-20.623-26.896-32.68zM597.649 639.624h193.843l-96.154 96.188c-52.885 52.903-96.495 96.188-96.922 96.188-0.422 0-0.768-43.284-0.768-96.188v-96.188zM395.604 478.703c24.442 16.158 57.742 28.489 85.753 31.757 17.459 2.035 24.623 2.048 41.826 0.077 68.113-7.799 124.86-48.439 154.15-110.4 33.446-70.746 19.836-154.91-34.274-211.921-38.165-40.218-85.478-60.467-140.685-60.211-50.645 0.23-94.348 17.6-130.55 51.887-39.91 37.794-60.356 85.103-60.356 139.644 0 43.494 13.26 82.854 39.461 117.116 9.989 13.065 31.613 33.421 44.675 42.052zM523.115 374.059v-42.889l34.458-17.079c18.953-9.395 35.998-19.012 37.879-21.38 9.306-11.691-0.235-30.835-15.369-30.835-2.492 0-23.932 9.694-47.642 21.542-38.741 19.358-43.409 22.17-46.059 27.75-2.505 5.278-2.948 13.623-2.948 55.667 0 32.137 0.717 51.507 2.039 55.305 2.227 6.383 10.889 12.693 17.442 12.702 2.278 0.004 6.605-1.263 9.609-2.812 9.596-4.958 10.59-10.406 10.59-57.971z" />
<glyph unicode="&#xe906;" glyph-name="Icon-NameException-Reports, ThemeDefault6" d="M214.407 795.091c-0.956-5.326-1.347-165.476-0.872-355.889 0.86-344.303 0.899-346.253 7.063-354.505 3.409-4.57 9.932-11.089 14.498-14.498 8.233-6.148 10.412-6.199 266.365-6.199s258.133 0.051 266.364 6.199c4.57 3.409 11.089 9.929 14.498 14.498 6.131 8.205 6.208 11.127 7.002 257.455l0.802 249.155-209.489 1.725-11.349 8.663c-19.392 14.795-19.733 17.050-19.733 129.511v100.793l-149.542-0.117c-117.524-0.093-151.505-0.974-158.71-4.112-12.096-5.266-24.735-20.623-26.896-32.68zM597.649 639.624h193.843l-96.154 96.188c-52.885 52.903-96.495 96.188-96.922 96.188-0.422 0-0.768-43.284-0.768-96.188v-96.188zM456.324 511.697c7.185 7.275 15.125 12.1 27.409 16.649 3.921 1.451 11.81 2.155 21.184 1.882 18.65-0.533 32.614-6.178 44.395-17.946 5.436-5.423 33.963-50.202 89.263-140.1 44.706-72.67 82.91-135.578 84.898-139.797 2.778-5.884 3.635-11.251 3.682-23.019 0.060-13.773-0.503-16.512-5.513-26.769-6.839-14.012-17.621-24.759-31.42-31.334l-10.449-4.975h-353.226l-10.449 4.975c-13.798 6.575-24.578 17.323-31.421 31.334-5.007 10.257-5.571 12.996-5.513 26.769 0.051 11.767 0.908 17.135 3.683 23.019 8.128 17.242 166.526 272.273 173.476 279.313zM525.982 438.716c3.337-6.34 3.537-9.967 3.537-63.223 0-62.477-0.299-64.422-11.196-71.966-4.087-2.825-7.979-3.802-15.164-3.802-7.181 0-11.076 0.977-15.159 3.802-10.897 7.543-11.2 9.489-11.2 71.966 0 53.235 0.205 56.883 3.533 63.219 6.498 12.348 21.82 16.781 35.174 10.167 4.467-2.206 8.201-5.828 10.475-10.163zM535.795 256.077c4.663-6.528 5.15-8.512 5.15-21.116 0-12.331-0.55-14.716-4.851-21.013-2.662-3.913-8.141-9.225-12.173-11.81-6.391-4.109-9.033-4.706-20.762-4.706-11.725 0-14.37 0.597-20.762 4.706-4.028 2.586-9.506 7.898-12.173 11.81-4.297 6.298-4.847 8.683-4.847 21.013 0 12.561 0.491 14.601 5.077 21.018 5.193 7.266 13.184 13.043 21.747 15.723 7.979 2.496 22.729 0.521 30.933-4.147 4.13-2.347 9.826-7.514 12.659-11.477z" />
<glyph unicode="&#xe907;" glyph-name="Icon-NameFraud-Reports, ThemeDefault7" d="M214.407 795.091c-0.956-5.326-1.347-165.476-0.872-355.889 0.86-344.303 0.899-346.253 7.063-354.505 3.409-4.57 9.932-11.089 14.498-14.498 8.233-6.148 10.412-6.199 266.365-6.199s258.133 0.051 266.364 6.199c4.57 3.409 11.089 9.929 14.498 14.498 6.131 8.205 6.208 11.127 7.002 257.455l0.802 249.155-209.489 1.725-11.349 8.663c-19.392 14.795-19.733 17.050-19.733 129.511v100.793l-149.542-0.117c-117.524-0.093-151.505-0.974-158.71-4.112-12.096-5.266-24.735-20.623-26.896-32.68zM597.649 639.624h193.843l-96.154 96.188c-52.885 52.903-96.495 96.188-96.922 96.188-0.422 0-0.768-43.284-0.768-96.188v-96.188zM310.929 359.134c15.535 71.531 78.138 128.738 155.507 142.11 20.625 3.563 65.374 0.887 86.025-5.141 68.429-19.977 119.812-72.58 133.794-136.969 4.975-22.899 5.999-131.106 1.353-142.69-4.254-10.603-11.797-17.169-41.212-35.891l-8.128-5.171c-11.712-7.45-18.803-20.369-18.803-34.249 0-12.309-9.98-22.289-22.289-22.289h-5.295c-12.339 0-22.34 10.001-22.34 22.345 0 12.339-10.005 22.34-22.345 22.34h-2.611c-12.339 0-22.345-10.001-22.345-22.34 0-12.343-10.001-22.345-22.34-22.345h-2.611c-12.339 0-22.345 10.001-22.345 22.345 0 12.339-10.001 22.34-22.345 22.34h-2.611c-12.339 0-22.34-10.001-22.34-22.34 0-12.343-10.005-22.345-22.345-22.345h-5.294c-12.309 0-22.288 9.98-22.288 22.289 0 13.879-7.092 26.799-18.802 34.249l-8.131 5.171c-29.414 18.722-36.958 25.289-41.209 35.891-4.646 11.584-3.621 119.791 1.35 142.69zM448.9 267.541c-10.214-42.935-70.593-48.67-89.888-8.538-5.933 12.339-6.164 21.077-0.872 33.041 5.423 12.267 13.43 20.13 26.15 25.673 13.283 5.794 23.444 5.803 36.895 0.026 21.034-9.024 32.545-29.879 27.715-50.202zM638.148 293.862c6.127-12.548 6.135-22.148 0.026-34.859-19.294-40.132-79.676-34.398-89.886 8.538-4.834 20.322 6.677 41.178 27.712 50.202 13.060 5.606 22.31 5.824 34.974 0.823 12.983-5.124 21.303-12.685 27.174-24.704zM522.125 216.282c0.064-4.437-3.516-8.068-7.953-8.068h-31.159c-4.437 0-8.017 3.631-7.953 8.068 0.145 10.193 5.879 25.57 11.866 31.817 2.53 2.641 7.778 4.804 11.669 4.804 3.887 0 9.139-2.163 11.665-4.804 5.986-6.246 11.721-21.623 11.866-31.817z" />
<glyph unicode="&#xe908;" glyph-name="Icon-NameHome, ThemeDefault8" d="M878.716 453.594l-328.503 328.264c-2.364 2.37-5.175 4.25-8.269 5.533s-6.409 1.943-9.758 1.943c-3.345 0-6.66-0.66-9.754-1.943s-5.905-3.163-8.269-5.533l-328.503-328.264c-9.57-9.57-14.993-22.571-14.993-36.13 0-28.151 22.889-51.042 51.042-51.042h34.613v-234.236c0-14.114 11.404-25.519 25.521-25.519h199.301v178.645h89.327v-178.645h212.062c14.118 0 25.523 11.405 25.523 25.519v234.236h34.611c13.559 0 26.556 5.346 36.13 14.993 19.857 19.942 19.857 52.241-0.081 72.179z" />
<glyph unicode="&#xe909;" glyph-name="Icon-NameImport-Logs, ThemeDefault9" d="M218.037 700.862c-57.951-21.625-63.651-98.551-9.524-128.466 11.914-6.584 17.199-7.845 32.862-7.845 15.732 0 20.937 1.254 33.12 7.981 49.010 27.062 49.642 94.594 1.149 123.013-14.668 8.597-42.051 11.125-57.607 5.317zM408.976 676.247c-12.612-6.221-20.041-15.516-23.601-29.534-5.957-23.46 3.013-44.048 23.516-53.972 11.333-5.488 14.17-5.562 209.968-5.52l198.477 0.045 10.586 5.997c26.594 15.060 33.229 48.45 13.99 70.363-15.479 17.628-5.521 16.884-225.143 16.817-174.729-0.053-200.443-0.573-207.792-4.197zM214.323 511.326c-12.098-5.265-29.75-22.054-36.408-34.624-4.408-8.324-5.746-15.505-5.746-30.848 0-23.718 5.493-36.275 22.644-51.767 14.954-13.513 25.687-17.562 46.563-17.562s31.608 4.049 46.562 17.562c17.151 15.492 22.644 28.049 22.644 51.767 0 15.343-1.338 22.524-5.746 30.848-6.839 12.915-24.539 29.534-37.003 34.739-11.338 4.74-42.509 4.672-53.508-0.115zM415.109 490.005c-19.887-7.172-31.694-23.62-31.694-44.151 0-21.5 14.127-39.633 35.328-45.342 7.034-1.894 74.662-2.573 206.063-2.069l195.593 0.747 10.812 7.159c12.271 8.124 22.123 25.711 22.123 39.505s-9.852 31.381-22.123 39.509l-10.812 7.155-197.521 0.593c-162.82 0.486-199.316-0.055-207.769-3.106zM221.061 325.009c-60.58-22.669-68.334-96.9-13.487-129.139 10.794-6.349 15.332-7.33 33.801-7.33s23.006 0.981 33.8 7.33c37.974 22.319 47.976 68.271 22.495 103.33-16.559 22.78-52.418 34.863-76.608 25.809zM408.67 298.906c-13.343-6.605-20.855-16.179-24.132-30.767-2.995-13.333 1.795-33.365 10.090-42.193 14.356-15.283 6.181-14.741 222.541-14.741 219.162 0 209.271-0.742 224.742 16.879 19.238 21.914 12.604 55.305-13.99 70.362l-10.586 5.999-198.652 0.043c-196.738 0.038-198.764-0.013-210.014-5.581z" />
<glyph unicode="&#xe90a;" glyph-name="Icon-NameMIS-Reports, ThemeDefault10" d="M214.407 795.091c-0.956-5.326-1.347-165.476-0.872-355.889 0.86-344.303 0.899-346.253 7.063-354.505 3.409-4.57 9.932-11.089 14.498-14.498 8.233-6.148 10.412-6.199 266.365-6.199s258.133 0.051 266.364 6.199c4.57 3.409 11.089 9.929 14.498 14.498 6.131 8.205 6.208 11.127 7.002 257.455l0.802 249.155-209.489 1.725-11.349 8.663c-19.392 14.795-19.733 17.050-19.733 129.511v100.793l-149.542-0.117c-117.524-0.093-151.505-0.974-158.71-4.112-12.096-5.266-24.735-20.623-26.896-32.68zM597.649 639.624h193.843l-96.154 96.188c-52.885 52.903-96.495 96.188-96.922 96.188-0.422 0-0.768-43.284-0.768-96.188v-96.188zM456.934 521.971c7.846 3.819 18.991 7.915 24.768 9.105 23.543 4.854 45.623 1.907 68.301-9.114 12.032-5.85 16.256-8.951 27.046-19.878 21.333-21.606 30.686-43.93 30.63-73.092-0.051-26.287-7.095-46.647-22.959-66.372-19.938-24.789-48.841-38.477-81.254-38.477-32.41 0-61.312 13.687-81.25 38.477-15.863 19.725-22.908 40.085-22.959 66.372-0.057 29.163 9.297 51.486 30.63 73.092 10.782 10.918 15.023 14.037 27.046 19.887zM468.945 298.475c0 1.813 1.502 4.352 3.337 5.636 2.726 1.916 8.41 2.342 31.185 2.342 30.067 0 34.526-1.028 34.526-7.979 0-1.813-3.793-14.694-8.431-28.629l-8.431-25.34 4.89-25.033c2.688-13.769 5.325-25.536 5.862-26.146s8.717 20.663 18.176 47.27c9.463 26.607 18.65 50.091 20.412 52.181 3.145 3.733 3.358 3.767 11.26 1.788 14.537-3.648 40.721-13.769 60.928-23.556 16.324-7.91 21.555-11.294 29.419-19.038 16.87-16.602 24.457-37.734 23.27-64.828-0.546-12.54-1.139-15.040-5.099-21.453-2.756-4.463-7.309-9.011-11.827-11.81l-7.347-4.548h-335.209l-7.348 4.548c-4.518 2.799-9.074 7.347-11.828 11.81-3.959 6.413-4.553 8.913-5.101 21.453-1.183 27.093 6.403 48.226 23.271 64.828 7.867 7.744 13.097 11.127 29.423 19.038 20.203 9.788 46.388 19.908 60.928 23.556 7.9 1.98 8.113 1.946 11.258-1.788 1.762-2.091 10.948-25.574 20.412-52.181 9.459-26.607 17.638-47.881 18.176-47.27s3.174 12.378 5.862 26.146l4.89 25.033-8.431 25.34c-4.638 13.935-8.431 26.816-8.431 28.629z" />
<glyph unicode="&#xe90b;" glyph-name="Icon-NameRun-Recon, ThemeDefault11" d="M536.299 785.658c-23.949-5.143-56.986-22.133-75.857-39.008-56.042-50.121-72.212-134.284-38.59-200.837 17.231-34.103 42.311-59.226 75.74-75.861 24.836-12.361 46.899-17.408 76.070-17.399 46.097 0.013 85.892 16.853 119.117 50.406 52.791 53.303 63.821 135.642 26.982 201.446-11.878 21.223-47.488 55.459-68.702 66.054-35.772 17.865-76.949 23.32-114.761 15.199zM437.551 422.596c-32.869-8.721-63.368-29.449-80.988-55.031l-9.95-14.447 81.598-142.246 86.737-0.055c99.174-0.064 111.147 1.463 145.284 18.569 22.707 11.379 163.115 111.633 175.646 125.414 16.521 18.176 3.409 45.355-21.875 45.355-5.542 0-21.687-10.138-59.26-37.214-77.167-55.607-86.037-61.589-97.327-65.613-7.526-2.684-25.758-3.725-66.714-3.81-53.065-0.107-56.764 0.209-63.386 5.419-9.007 7.083-9.655 21.167-1.34 28.919 5.282 4.919 10.133 5.363 66.961 6.11l61.261 0.802 6.438 7.492c6.899 8.026 8.572 22.229 3.686 31.356-5.875 10.982-15.966 13.197-60.181 13.197h-41.843l-10.236 9.246c-28.774 25.997-75.639 36.86-114.513 26.539zM229.382 337.071c-27.156-15.595-51.477-30.182-54.045-32.422-2.567-2.236-4.67-7.386-4.67-11.439 0-7.791 96.028-177.182 103.861-183.206 2.325-1.788 6.691-3.29 9.699-3.337 6.784-0.107 102.209 54.093 108.622 61.692 2.57 3.042 4.671 8.017 4.671 11.055 0 7.125-94.563 172.126-103.183 180.041-3.595 3.307-8.572 5.999-11.060 5.986-2.487-0.009-26.739-12.779-53.895-28.369z" />
<glyph unicode="&#xe90c;" glyph-name="Icon-NameSearch, ThemeDefault12" d="M643.281 500.514c0 50.597-17.984 93.879-53.948 129.845s-79.249 53.949-129.847 53.949c-50.597 0-93.879-17.983-129.845-53.949s-53.949-79.248-53.949-129.845c0-50.598 17.983-93.884 53.949-129.847s79.248-53.948 129.845-53.948c50.598 0 93.884 17.984 129.847 53.948s53.948 79.249 53.948 129.847zM853.333 159.181c0-14.225-5.197-26.53-15.59-36.924s-22.699-15.59-36.924-15.59c-14.767 0-27.076 5.197-36.924 15.59l-140.715 140.305c-48.96-33.911-103.522-50.871-163.695-50.871-39.11 0-76.512 7.59-112.204 22.771s-66.461 35.691-92.308 61.538c-25.846 25.847-46.359 56.614-61.539 92.309-15.18 35.691-22.769 73.092-22.769 112.205 0 39.11 7.59 76.512 22.769 112.204s35.692 66.461 61.539 92.308c25.846 25.846 56.615 46.359 92.308 61.539s73.094 22.769 112.204 22.769c39.113 0 76.514-7.59 112.205-22.769 35.695-15.18 66.462-35.692 92.309-61.539s46.357-56.615 61.538-92.308c15.181-35.692 22.771-73.094 22.771-112.204 0-60.173-16.96-114.735-50.871-163.695l140.715-140.715c10.121-10.121 15.181-22.43 15.181-36.924z" />
<glyph unicode="&#xe90d;" glyph-name="Icon-NameUser-Management, ThemeDefault13" d="M491.106 744.259c-54.268-12.399-99.516-53.091-115.885-104.218-6.88-21.491-8.449-59.588-3.393-82.32 12.174-54.723 54.036-98.61 110.289-115.622 19.226-5.815 62.34-5.807 81.707 0.013 50.15 15.083 91.401 54.498 106.765 102.015 7.684 23.759 8.653 63.909 2.116 87.725-14.66 53.435-53.717 93.245-107.712 109.786-17.574 5.383-55.851 6.742-73.886 2.621zM385.389 421.218c-44.719-12.036-82.91-38.195-109.335-74.889-15.109-20.983-22.192-37.38-19.489-45.133 3.809-10.923 31.215-45.18 52.74-65.916 130.106-125.35 340.333-111.846 453.502 29.124 8.375 10.436 18.381 24.448 22.229 31.134l6.997 12.151-6.229 12.403c-15.599 31.053-43.84 61.594-72.964 78.899-24.862 14.767-52.412 24.145-71.846 24.444-14.938 0.235-17.348-0.422-27.541-7.501-51.674-35.874-128.333-35.669-182.020 0.486-14.186 9.553-24.408 10.62-46.044 4.796z" />
<glyph unicode="&#xe90e;" horiz-adv-x="3904" d="M2914.246 844.672h129.901v-127.3h-129.901v127.3zM366.518 137.382h-16.589l8.582 74.003 8.006-74.003zM329.12 229.562l-23.37-156.877h36.567l4.33 38.515h23.152l4.33-38.515h37.434l-23.981 156.877h-58.461zM451.162 107.091h-28.992v-8.406c0-10.637 2.269-17.994 6.813-21.962 4.547-4 12.912-5.984 25.030-5.984h8.438c13.888 0 23.37 2.304 28.563 6.886 5.158 4.579 7.757 12.877 7.757 24.957v13.2c0 7.61-1.696 13.197-5.123 16.768-3.389 3.571-9.523 6.134-18.394 7.683-2.957 0.755-6.707 1.626-11.286 2.525-8.262 1.619-12.371 4.509-12.371 8.691v6.128c0 2.166 0.755 3.862 2.307 5.053 1.549 1.19 3.75 1.805 6.563 1.805 3.248 0 5.446-0.506 6.637-1.517 1.19-1.046 1.805-2.957 1.805-5.77v-6.131h28.346v7.936c-0.218 9.987-2.416 16.877-6.598 20.736-4.221 3.824-11.542 5.734-21.965 5.734h-14.678c-11.072 0-19.043-2.384-23.91-7.178-4.867-4.797-7.286-12.621-7.286-23.514v-13.021c0-6.707 1.229-11.504 3.718-14.39 2.448-2.922 7.824-5.299 16.154-7.21 2.381-0.579 5.59-1.19 9.629-1.914 10.784-2.054 16.157-5.52 16.157-10.461v-6.957c0-2.707-0.685-4.723-2.019-6.022s-3.466-1.949-6.419-1.949c-3.539 0-5.882 0.899-7.072 2.742-1.19 1.802-1.802 5.661-1.802 11.539zM542.221 107.091h-28.992v-8.406c0-10.637 2.272-17.994 6.816-21.962 4.544-4 12.912-5.984 25.027-5.984h8.438c13.888 0 23.37 2.304 28.563 6.886 5.158 4.579 7.757 12.877 7.757 24.957v13.2c0 7.61-1.696 13.197-5.123 16.768-3.389 3.571-9.523 6.134-18.39 7.683-2.96 0.755-6.71 1.626-11.29 2.525-8.262 1.619-12.371 4.509-12.371 8.691v6.128c0 2.166 0.755 3.862 2.307 5.053 1.549 1.19 3.75 1.805 6.563 1.805 3.248 0 5.446-0.506 6.637-1.517 1.19-1.046 1.805-2.957 1.805-5.77v-6.131h28.346v7.936c-0.218 9.987-2.416 16.877-6.598 20.736-4.221 3.824-11.542 5.734-21.965 5.734h-14.678c-11.072 0-19.040-2.384-23.91-7.178-4.867-4.797-7.283-12.621-7.283-23.514v-13.021c0-6.707 1.226-11.504 3.715-14.39 2.451-2.922 7.824-5.299 16.154-7.21 2.381-0.579 5.59-1.19 9.629-1.914 10.784-2.054 16.157-5.52 16.157-10.461v-6.957c0-2.707-0.685-4.723-2.019-6.022s-3.466-1.949-6.419-1.949c-3.536 0-5.878 0.899-7.069 2.742-1.19 1.802-1.805 5.661-1.805 11.539zM686.941 72.685v110.787h-32.243v-77.283c0-3.859-0.576-6.528-1.731-7.968-1.152-1.443-3.242-2.163-6.272-2.163-2.957 0-4.976 0.72-6.096 2.125-1.117 1.408-1.696 4.077-1.696 8.006v77.283h-32.24v-78.979c0-13.056 1.734-21.926 5.158-26.65 3.462-4.723 9.52-7.104 18.176-7.104 6.346 0 11.613 1.226 15.795 3.712 4.186 2.454 7.862 6.563 11.037 12.298v-14.064h30.112zM706.634 183.472v-110.784h32.022v77.283c0 4.074 0.47 6.781 1.443 8.112 0.941 1.338 2.63 2.022 5.12 2.022 2.381 0 4.042-0.723 4.976-2.128 0.976-1.405 1.443-4.074 1.443-8.006v-11.651h26.614v24.419c0 8.291-1.405 14.17-4.182 17.562-2.778 3.424-7.498 5.12-14.208 5.12-5.411 0-9.955-1.117-13.594-3.318-3.68-2.234-6.925-5.808-9.738-10.746v12.115h-29.898zM790.624 232.374v-25.533h32.026v25.533h-32.026zM790.624 72.685h32.026v110.787h-32.026v-110.787zM842.81 183.472v-110.787h32.026v77.283c0 3.933 0.579 6.602 1.731 8.006s3.245 2.128 6.275 2.128c3.027 0 5.117-0.723 6.275-2.128 1.152-1.405 1.728-4.074 1.728-8.006v-77.283h32.026v79.053c0 12.947-1.731 21.818-5.155 26.541-3.462 4.762-9.52 7.142-18.176 7.142-6.278 0-11.507-1.261-15.69-3.789-4.186-2.56-7.898-6.707-11.142-12.477v14.317h-29.898zM1014.688 41.238c5.299 6.166 7.933 17.674 7.933 34.512v107.722h-30.547v-13.414c-2.739 5.226-6.24 9.085-10.458 11.61-4.218 2.49-9.414 3.75-15.507 3.75-8.944 0-15.29-2.669-19.043-8.042-3.712-5.338-5.587-14.678-5.587-27.914v-41.040c0-13.667 1.872-23.078 5.587-28.237 3.754-5.158 10.317-7.718 19.766-7.718 5.158 0 9.555 0.758 13.2 2.272 3.677 1.514 7.174 4.003 10.563 7.462v-16.192c0-4.576-0.611-7.536-1.837-8.941-1.229-1.408-3.645-2.128-7.216-2.128-3.315 0-5.622 0.611-6.922 1.805-1.299 1.19-1.946 3.318-1.946 6.419h-27.699v-0.65c0-11.613 2.778-19.581 8.403-23.946 5.59-4.365 16.48-6.563 32.672-6.563 13.814 0 23.37 3.066 28.637 9.232zM990.595 149.683v-42.339c0-4.541-0.538-7.536-1.584-8.944-1.046-1.405-3.174-2.125-6.419-2.125-3.174 0-5.302 0.72-6.384 2.198s-1.626 4.435-1.626 8.87v42.339c0 4.435 0.541 7.395 1.626 8.87 1.082 1.478 3.21 2.202 6.384 2.202s5.302-0.723 6.384-2.202c1.078-1.475 1.619-4.435 1.619-8.87zM1135.322 72.688v44.573h6.022c18.97 0 31.987 2.957 39.13 8.835 7.104 5.878 10.675 16.374 10.675 31.446v31.773c0 15.366-3.645 25.894-10.928 31.629-7.322 5.734-22.214 8.621-44.682 8.621h-36.784v-156.877h36.566zM1154.365 190.579v-33.251c0-4.362-0.758-7.322-2.237-8.906-1.475-1.587-4.365-2.381-8.653-2.381h-8.15v55.824h8.15c4.288 0 7.178-0.794 8.653-2.381 1.478-1.584 2.237-4.544 2.237-8.906zM1247.264 113.978v-11.827c0-2.454-0.685-4.365-2.054-5.664-1.408-1.299-3.318-1.946-5.773-1.946-2.486 0-4.4 0.646-5.734 1.946s-2.019 3.21-2.019 5.664v11.827c0 2.416 0.685 4.259 2.019 5.59 1.334 1.334 3.248 2.019 5.734 2.019 2.454 0 4.365-0.685 5.773-2.019 1.37-1.331 2.054-3.171 2.054-5.59zM1248.96 81.558v-8.87h30.336v86.55c0 10.134-2.454 17.021-7.395 20.701-4.941 3.642-15.075 5.482-30.4 5.482-15.434 0-25.606-1.84-30.547-5.482-4.941-3.677-7.392-10.566-7.392-20.701v-8.006h28.346c0 4.47 0.506 7.43 1.478 8.874 1.011 1.443 2.992 2.16 6.058 2.16 3.174 0 5.264-0.717 6.275-2.16 1.043-1.443 1.549-4.4 1.549-8.874v-16.406c-2.957 2.125-6.24 3.712-9.846 4.794-3.571 1.117-7.318 1.661-11.213 1.661-8.947 0-15.546-2.202-19.766-6.602-4.218-4.435-6.346-11.254-6.346-20.486v-13.414c0-11.286 1.837-19.11 5.552-23.475 3.715-4.368 10.205-6.563 19.51-6.563 6.131 0 11.034 0.829 14.714 2.49 3.642 1.658 6.669 4.435 9.088 8.33zM1293.101 183.475l14.499-110.787h23.766c-0.397-5.626-1.875-9.811-4.365-12.55-2.525-2.742-6.096-4.112-10.746-4.112-1.050 0-2.275 0.109-3.718 0.323-1.405 0.218-2.992 0.541-4.723 1.046v-22.538c3.498-0.973 6.707-1.696 9.594-2.163 2.883-0.47 5.626-0.688 8.147-0.688 10.784 0 18.72 3.139 23.84 9.414s9.162 19.296 12.115 39.091l15.328 102.963h-30.867l-10.893-94.742-9.952 94.742h-32.026zM1390.042 183.475v-110.79h31.59v77.283c0 3.789 0.579 6.419 1.731 7.901 1.155 1.478 3.245 2.234 6.275 2.234 2.957 0 4.976-0.685 6.096-2.054 1.117-1.37 1.696-4.077 1.696-8.080v-77.283h32.022v78.333c0 3.386 0.579 5.734 1.696 7.066 1.117 1.338 3.171 2.022 6.166 2.022 2.957 0 4.976-0.688 6.058-2.058 1.117-1.37 1.661-4.074 1.661-8.077v-77.283h31.808v79.050c0 13.094-1.696 22-5.085 26.653-3.392 4.688-9.414 7.034-18.070 7.034-6.058 0-11.107-1.19-15.075-3.606-4-2.381-7.571-6.275-10.746-11.722-0.829 4.941-3.101 8.726-6.816 11.36-3.677 2.634-8.586 3.968-14.714 3.968-6.275 0-11.434-1.226-15.472-3.68-4.035-2.49-7.754-6.672-11.142-12.586v14.317h-29.68zM1567.725 141.93v10.675c0 4.506 0.688 7.539 2.022 9.088 1.331 1.552 4.038 2.307 8.15 2.307 4.253 0 6.992-0.723 8.256-2.198 1.264-1.478 1.91-4.544 1.91-9.197v-10.675h-20.339zM1543.491 176.336c-5.773-6.061-8.656-17.6-8.656-34.624h0.003v-27.514c0-16.701 2.813-28.131 8.474-34.262 5.626-6.128 15.904-9.197 30.87-9.197 17.818 0 29.718 2.163 35.667 6.493 5.949 4.362 8.944 12.333 8.944 23.981v7.392h-31.594v-2.416c0-4.362-0.65-7.283-1.914-8.762-1.261-1.478-3.856-2.237-7.824-2.237s-6.563 0.72-7.827 2.128c-1.264 1.408-1.91 4.362-1.91 8.87v13.885h51.066v21.638c0 17.024-2.922 28.563-8.726 34.624-5.808 6.058-16.877 9.088-33.251 9.088-16.41 0-27.517-3.030-33.322-9.088zM1636.102 183.475v-110.787h32.026v77.283c0 3.933 0.576 6.602 1.731 8.006 1.152 1.405 3.245 2.128 6.275 2.128 3.027 0 5.117-0.723 6.275-2.128 1.152-1.405 1.728-4.074 1.728-8.006v-77.283h32.026v79.050c0 12.95-1.731 21.821-5.158 26.544-3.459 4.758-9.517 7.142-18.173 7.142-6.278 0-11.507-1.264-15.69-3.789-4.186-2.56-7.898-6.707-11.146-12.477v14.317h-29.894zM1729.795 159.238h9.734v-54.963c0-13.706 2.202-22.79 6.598-27.264 4.4-4.474 12.659-6.707 24.778-6.707 2.419 0 5.050 0.147 7.898 0.397 2.848 0.291 5.914 0.685 9.235 1.155l-0.109 23.766c-0.47-0.070-1.008-0.109-1.587-0.144-0.541-0.035-1.373-0.074-2.416-0.074-4.221 0-7.322 0.976-9.232 2.922-1.949 1.914-2.922 5.014-2.922 9.232v51.68h18.173v24.234h-18.173v29.43h-32.24v-29.43h-9.738v-24.234zM1830.81 107.094h-28.989v-8.406c0-10.64 2.269-17.997 6.813-21.962 4.547-4.003 12.912-5.987 25.030-5.987h8.438c13.885 0 23.37 2.307 28.563 6.886 5.158 4.582 7.754 12.877 7.754 24.957v13.2c0 7.61-1.696 13.2-5.12 16.768-3.389 3.574-9.523 6.134-18.394 7.683-2.957 0.758-6.707 1.626-11.29 2.528-8.259 1.619-12.368 4.506-12.368 8.688v6.131c0 2.166 0.755 3.859 2.307 5.053 1.549 1.19 3.75 1.802 6.563 1.802 3.245 0 5.446-0.502 6.637-1.514 1.19-1.046 1.805-2.957 1.805-5.77v-6.131h28.342v7.933c-0.214 9.99-2.413 16.877-6.598 20.736-4.218 3.824-11.539 5.734-21.962 5.734h-14.678c-11.072 0-19.043-2.381-23.91-7.174-4.867-4.797-7.286-12.624-7.286-23.514v-13.021c0-6.707 1.229-11.504 3.718-14.39 2.448-2.922 7.821-5.302 16.154-7.213 2.378-0.579 5.59-1.19 9.629-1.91 10.784-2.054 16.157-5.52 16.157-10.461v-6.96c0-2.704-0.685-4.723-2.019-6.019-1.334-1.299-3.466-1.949-6.419-1.949-3.539 0-5.882 0.899-7.072 2.739-1.19 1.802-1.805 5.661-1.805 11.542zM3382.656 844.672h-129.92v-127.3h129.92v127.3zM2378.499 229.779v-156.877h72.051v28.128h-35.485v38.95h30.4v27.050h-30.4v34.618h32.422v28.131h-68.989zM2466.563 183.69v-110.787h32.026v77.283c0 3.933 0.579 6.602 1.731 8.006s3.245 2.128 6.275 2.128c3.027 0 5.12-0.723 6.275-2.128 1.152-1.405 1.731-4.074 1.731-8.006v-77.283h32.022v79.050c0 12.95-1.731 21.821-5.155 26.544-3.462 4.758-9.52 7.139-18.176 7.139-6.278 0-11.507-1.261-15.69-3.786-4.186-2.56-7.898-6.707-11.142-12.477v14.317h-29.898zM2592.714 107.309h-28.992v-8.406c0-10.64 2.272-17.997 6.816-21.962 4.544-4.003 12.912-5.987 25.027-5.987h8.442c13.885 0 23.366 2.307 28.563 6.886 5.155 4.582 7.754 12.877 7.754 24.957v13.2c0 7.61-1.696 13.2-5.123 16.768-3.389 3.574-9.523 6.134-18.39 7.683-2.96 0.758-6.71 1.626-11.29 2.528-8.259 1.619-12.371 4.506-12.371 8.688v6.131c0 2.166 0.758 3.859 2.307 5.053 1.552 1.19 3.754 1.802 6.563 1.802 3.248 0 5.446-0.502 6.637-1.514 1.19-1.046 1.805-2.957 1.805-5.77v-6.131h28.346v7.933c-0.218 9.99-2.416 16.877-6.598 20.736-4.221 3.824-11.539 5.734-21.962 5.734h-14.682c-11.072 0-19.040-2.381-23.907-7.174-4.87-4.797-7.286-12.624-7.286-23.514v-13.021c0-6.707 1.226-11.504 3.715-14.39 2.451-2.922 7.824-5.302 16.157-7.213 2.378-0.579 5.587-1.19 9.626-1.91 10.784-2.054 16.157-5.52 16.157-10.461v-6.96c0-2.704-0.685-4.723-2.019-6.019-1.334-1.299-3.462-1.949-6.419-1.949-3.536 0-5.878 0.899-7.069 2.739-1.19 1.802-1.805 5.661-1.805 11.542zM2737.434 72.902v110.787h-32.243v-77.283c0-3.859-0.576-6.528-1.728-7.971-1.152-1.44-3.245-2.163-6.275-2.163-2.957 0-4.976 0.723-6.096 2.128-1.117 1.405-1.696 4.074-1.696 8.006v77.283h-32.24v-78.979c0-13.056 1.734-21.926 5.158-26.653 3.462-4.723 9.52-7.104 18.176-7.104 6.349 0 11.613 1.226 15.795 3.715 4.186 2.451 7.862 6.563 11.037 12.298v-14.064h30.112zM2757.126 183.69v-110.787h32.022v77.286c0 4.074 0.47 6.778 1.443 8.112 0.941 1.334 2.634 2.019 5.12 2.019 2.381 0 4.042-0.72 4.976-2.125 0.976-1.408 1.443-4.077 1.443-8.006v-11.651h26.614v24.416c0 8.294-1.405 14.173-4.182 17.562-2.774 3.424-7.498 5.12-14.208 5.12-5.408 0-9.952-1.117-13.594-3.315-3.68-2.237-6.925-5.808-9.738-10.746v12.115h-29.898zM2841.12 232.592v-25.533h32.022v25.533h-32.022zM2841.12 72.902h32.022v110.787h-32.022v-110.787zM2893.302 183.69v-110.787h32.026v77.283c0 3.933 0.579 6.602 1.731 8.006s3.245 2.128 6.275 2.128c3.027 0 5.12-0.723 6.275-2.128 1.152-1.405 1.731-4.074 1.731-8.006v-77.283h32.022v79.050c0 12.95-1.731 21.821-5.155 26.544-3.462 4.758-9.52 7.139-18.176 7.139-6.275 0-11.504-1.261-15.69-3.786-4.182-2.56-7.898-6.707-11.142-12.477v14.317h-29.898zM3065.181 41.456c5.299 6.163 7.933 17.67 7.933 34.512v107.718h-30.547v-13.414c-2.739 5.226-6.24 9.085-10.458 11.613-4.218 2.49-9.411 3.75-15.507 3.75-8.944 0-15.29-2.669-19.043-8.042-3.712-5.338-5.587-14.678-5.587-27.914v-41.040c0-13.667 1.875-23.078 5.587-28.24 3.754-5.155 10.317-7.715 19.766-7.715 5.158 0 9.555 0.758 13.2 2.269 3.68 1.517 7.174 4.003 10.563 7.466v-16.192c0-4.579-0.611-7.536-1.837-8.944-1.229-1.405-3.645-2.125-7.216-2.125-3.315 0-5.622 0.611-6.922 1.802s-1.946 3.318-1.946 6.422h-27.699v-0.65c0-11.613 2.781-19.584 8.403-23.949 5.59-4.362 16.483-6.563 32.675-6.563 13.811 0 23.366 3.069 28.634 9.235zM3041.088 149.901v-42.339c0-4.544-0.538-7.539-1.584-8.944-1.046-1.408-3.174-2.125-6.419-2.125-3.174 0-5.302 0.717-6.384 2.195-1.082 1.482-1.622 4.435-1.622 8.874v42.339c0 4.432 0.538 7.392 1.622 8.87 1.082 1.478 3.21 2.198 6.384 2.198s5.302-0.72 6.384-2.198c1.082-1.478 1.619-4.435 1.619-8.87zM3180.333 110.048v15.219l-0.003 0.010h-33.683v-17.098c0-14.243 2.918-24.016 8.726-29.283 5.805-5.299 16.445-7.933 31.952-7.933h9.738c14.074 0 24.25 2.883 30.458 8.653 6.24 5.808 9.344 15.219 9.344 28.349v21.133c0 10.998-1.856 19.040-5.664 24.128-3.744 5.050-10.656 9.014-20.736 11.83-1.824 0.541-4.224 1.187-7.136 1.978l-1.728 0.474c-13.12 3.315-19.683 8.797-19.683 16.48v10.134c0 4.182 0.685 6.998 2.054 8.512s4.003 2.269 7.898 2.269c4.038 0 6.669-0.794 8.006-2.416 1.309-1.622 1.949-4.906 1.949-9.843v-9.811h32.416v12.15c0 8.368-0.512 14.464-1.472 18.25-1.024 3.824-2.72 6.96-5.184 9.411-3.104 3.171-7.36 5.482-12.768 6.925-5.472 1.443-12.384 2.16-20.819 2.16h-10.819c-13.453 0-22.902-2.778-28.346-8.33-5.446-5.59-8.186-15.398-8.186-29.462v-14.499c0-11.142 1.91-19.293 5.699-24.486 3.824-5.194 10.784-9.232 20.954-12.118 2.163-0.646 5.229-1.37 9.197-2.234 8.656-1.875 14.173-4.294 16.589-7.178 0.979-1.261 1.683-2.707 2.099-4.33 0.416-1.619 0.64-4.147 0.64-7.501v-11.107c0-4.509-0.768-7.574-2.234-9.197-1.478-1.622-4.33-2.416-8.547-2.416-3.894 0-6.634 0.829-8.256 2.525-1.626 1.696-2.454 4.579-2.454 8.653zM3285.792 142.144v10.678c0 4.506 0.672 7.536 2.016 9.085 1.344 1.552 4.032 2.31 8.16 2.31 4.256 0 6.976-0.723 8.256-2.202 1.248-1.478 1.888-4.544 1.888-9.194v-10.678h-20.32zM3261.536 176.55c-5.76-6.058-8.64-17.597-8.64-34.621v0-27.517c0-16.698 2.816-28.131 8.48-34.259 5.632-6.131 15.904-9.197 30.88-9.197 17.792 0 29.696 2.163 35.648 6.49 5.952 4.365 8.96 12.333 8.96 23.984v7.392h-31.616v-2.416c0-4.362-0.64-7.286-1.888-8.765-1.28-1.475-3.872-2.234-7.84-2.234s-6.56 0.72-7.84 2.128c-1.248 1.405-1.888 4.362-1.888 8.87v13.885h51.072v21.638c0 17.024-2.944 28.563-8.736 34.621-5.824 6.061-16.896 9.088-33.248 9.088-16.416 0-27.52-3.027-33.344-9.088zM3430.112 105.325v11.286h-30.080v-10.24c0-4.365-0.544-7.286-1.568-8.765-1.056-1.478-3.104-2.198-6.144-2.198-3.136 0-5.216 0.72-6.272 2.198s-1.6 4.4-1.6 8.765v43.565c0 4.397 0.544 7.357 1.6 8.835s3.136 2.198 6.272 2.198c3.040 0 5.088-0.72 6.144-2.198 1.024-1.478 1.568-4.435 1.568-8.835v-4.112h30.080v5.376c0 13.376-2.496 22.467-7.488 27.264-5.024 4.794-14.656 7.174-28.864 7.174-16.448 0-27.584-3.027-33.44-9.123-5.824-6.096-8.768-17.632-8.768-34.621v-27.482c0-16.915 2.944-28.381 8.736-34.406 5.824-6.019 16.96-9.050 33.472-9.050 14.208 0 23.84 2.381 28.864 7.174 4.992 4.797 7.488 13.888 7.488 27.194zM3526.88 72.902v110.79h-32.256v-77.283c0-3.859-0.576-6.531-1.728-7.971s-3.232-2.163-6.272-2.163c-2.944 0-4.992 0.723-6.112 2.125-1.088 1.408-1.696 4.077-1.696 8.010v77.283h-32.224v-78.979c0-13.059 1.728-21.926 5.152-26.653 3.456-4.723 9.536-7.104 18.176-7.104 6.368 0 11.616 1.226 15.808 3.715 4.192 2.451 7.84 6.56 11.040 12.294v-14.064h30.112zM3546.56 183.693v-110.787h32.032v77.283c0 4.077 0.48 6.781 1.44 8.115 0.928 1.334 2.624 2.019 5.12 2.019 2.368 0 4.032-0.723 4.96-2.128 0.992-1.405 1.472-4.074 1.472-8.006v-11.648h26.592v24.416c0 8.291-1.408 14.173-4.16 17.562-2.784 3.424-7.52 5.12-14.24 5.12-5.408 0-9.952-1.117-13.568-3.315-3.68-2.237-6.944-5.808-9.76-10.749v12.118h-29.888zM3630.56 232.595v-25.533h32.032v25.533h-32.032zM3630.56 72.902h32.032v110.79h-32.032v-110.79zM3676.672 159.456l9.76-0.003v-54.96c0-13.706 2.176-22.794 6.592-27.267 4.384-4.47 12.64-6.704 24.768-6.704 2.432 0 5.056 0.147 7.904 0.397 2.848 0.288 5.92 0.685 9.216 1.152l-0.096 23.77c-0.352-0.051-0.704-0.086-1.088-0.112-0.16-0.013-0.32-0.022-0.512-0.032-0.32-0.022-0.768-0.045-1.312-0.058-0.32-0.010-0.704-0.016-1.088-0.016-4.224 0-7.328 0.976-9.248 2.922-1.952 1.914-2.912 5.011-2.912 9.232v51.68h18.176v24.234h-18.176v29.427h-32.224v-29.427h-9.76v-24.234zM3745.024 183.693l14.496-110.79h23.776c-0.416-5.626-1.888-9.808-4.384-12.55-2.528-2.739-6.080-4.109-10.752-4.109-1.024 0-2.272 0.109-3.712 0.323-1.408 0.218-2.976 0.541-4.704 1.046v-22.541c3.488-0.97 6.688-1.693 9.568-2.16 2.912-0.474 5.632-0.688 8.16-0.688 10.784 0 18.72 3.139 23.84 9.414s9.152 19.293 12.128 39.091l15.328 102.963h-30.88l-10.88-94.742-9.952 94.742h-32.032z" />
<glyph unicode="&#xe910;" horiz-adv-x="3904" d="M3471.936 450.867c33.792-20.707 62.528-35.075 86.208-43.485 23.552-8.285 46.592-12.429 69.12-12.429 22.624 0 40.896 5.050 54.752 15.014 13.696 9.968 20.576 22.778 20.576 38.438 0 22.394-24.48 47.76-73.536 75.715-4.768 2.746-8.896 5.155-12.352 7.178-2.24 1.318-4.192 2.467-5.888 3.437l-37.152 20.97c-36.096 20.448-62.88 43.616-80.224 69.373-17.472 25.754-26.144 55.004-26.144 87.621 0 44.265 16.672 80.501 50.080 108.848 33.248 28.343 76.352 42.452 129.152 42.452 19.552 0 40.64-2.333 63.296-6.86 22.784-4.531 48.032-11.65 75.84-21.226v-128.78c-26.528 16.568-51.648 29.38-75.456 38.44s-44 13.588-60.704 13.588c-18.496 0-32.992-4.010-43.616-11.907-10.592-7.895-15.904-18.765-15.904-32.358 0-9.576 3.104-18.508 9.44-26.792 6.336-8.411 15.776-15.917 28.48-22.777l64.448-35.594c53.984-29.898 90.208-57.462 108.832-82.704 18.656-25.366 27.968-55.264 27.968-89.949 0-53.584-18.24-96.941-54.752-129.942-36.608-33.005-85.024-49.44-145.472-49.44-20.448 0-42.72 2.198-66.784 6.47-23.936 4.272-50.464 11.002-79.2 20.061l-11.008 146.637zM2188.282 295.555l114.154 567.664h9.45l207.469-357.993 195.696 357.993h9.834l114.931-567.664h-124.765l-46.595 251.088-147.546-271.277h-8.803l-158.416 275.027-48.278-254.838h-117.13zM1973.968 845.359v-549.804h131.238v549.804h-131.238zM1356.467 295.555l197.504 284.352-194.784 265.452h160.227l113.379-156.996 106.518 156.996h142.886l-177.053-254.067 216.656-295.738h-161.523l-133.568 186.506-126.579-186.506h-143.664zM1036.282 862.445l-280.467-566.89h132.144l35.594 79.987h223.133l34.813-79.987h137.322l-274.256 566.89h-8.282zM1106.045 470.282h-144.442l73.126 172.138 71.315-172.138zM64.031 295.555l114.155 567.664h9.448l207.47-357.993 195.693 357.993h9.837l114.931-567.664h-124.768l-46.595 251.088-147.546-271.277h-8.8l-158.416 275.027-48.279-254.838h-117.13zM3045.488 544.106v136.633l-130.989-0.292v-147.138c0-79.274 22.032-144.173 62.413-187.968 40.442-43.859 97.062-65.738 169.891-65.738 72.045 0 125.901 8.282 180.461 56.982 51.488 45.984 61.952 127.331 59.456 206.298l-4.416 138.445-128.384-0.151 1.408-150.345c0.416-42.79-4.832-75.354-23.072-97.709-18.24-22.368-44.72-33.642-79.395-33.642-36.093 0-62.96 12.042-80.691 36.090-17.718 24.029-26.682 60.198-26.682 108.534zM90.671 220.23c16.468 16.467 39.209 26.669 64.285 26.669 25.078 0 47.819-10.202 64.285-26.669 16.47-16.47 26.671-39.21 26.671-64.288 0-25.075-10.2-47.818-26.668-64.285s-39.209-26.672-64.287-26.672c-25.076 0-47.817 10.205-64.285 26.672-16.47 16.467-26.671 39.21-26.671 64.285 0 25.078 10.2 47.818 26.671 64.288zM104.119 105.107c13.026-13.024 31.009-21.091 50.835-21.091 19.828 0 37.813 8.067 50.837 21.091 13.024 13.027 21.092 31.008 21.092 50.835 0 19.83-8.068 37.814-21.092 50.838-13.027 13.024-31.009 21.094-50.837 21.094s-37.813-8.070-50.835-21.094c-13.024-13.027-21.094-31.011-21.094-50.838s8.070-37.811 21.094-50.835zM190.189 194.838l-46.145-51.914-25.539 20.432c-2.057 1.645-4.565 2.298-6.957 2.032-2.189-0.246-4.306-1.264-5.905-2.995l-0.015 0.010-0.441-0.538c-1.642-2.054-2.301-4.566-2.037-6.963 0.264-2.413 1.456-4.726 3.496-6.365h0.024l32.578-26.061c0.868-0.694 1.808-1.21 2.766-1.555 1.048-0.371 2.115-0.55 3.159-0.55 1.299 0 2.623 0.285 3.878 0.848h0.024c1.167 0.525 2.26 1.315 3.187 2.358l0.011-0.010 52.123 58.637c1.737 1.958 2.522 4.435 2.381 6.854-0.14 2.429-1.214 4.816-3.185 6.563-1.964 1.744-4.44 2.528-6.856 2.384-2.437-0.144-4.81-1.216-6.547-3.168zM2294.464 228.061c-18.333 3.286-35.216 13.296-43.645 18.973-5.51 3.709-11.92 5.67-18.531 5.67-6.614 0-13.021-1.962-18.528-5.67-8.432-5.677-25.312-15.686-43.645-18.973-10.858-1.946-18.739-11.338-18.739-22.336v-45.626c0-15.072 4.218-29.766 12.531-43.67 6.509-10.877 15.52-21.274 26.794-30.899 18.954-16.186 37.722-24.627 38.512-24.979l3.075-1.37 3.075 1.37c0.787 0.352 19.555 8.79 38.512 24.979 11.27 9.626 20.288 20.022 26.794 30.899 8.317 13.904 12.531 28.598 12.531 43.67v45.626c0.003 10.998-7.882 20.39-18.736 22.336zM2298.077 160.099c0-22.47-11.35-43.606-33.741-62.822-13.014-11.174-26.224-18.454-32.048-21.408-13.379 6.797-65.789 36.486-65.789 84.234v45.626c0 3.664 2.643 6.797 6.282 7.45 21.062 3.773 40.003 14.973 49.421 21.312 3.008 2.022 6.493 3.091 10.083 3.091 3.594 0 7.082-1.069 10.086-3.091 9.418-6.339 28.362-17.536 49.421-21.312 3.638-0.653 6.282-3.786 6.282-7.45v-45.626l0.003-0.003zM2199.392 171.075l25.421-24.202 45.779 50.97 11.686-10.496-56.582-62.998-37.133 35.35 10.829 11.376z" />
<glyph unicode="&#xe911;" glyph-name="ant-design_setting-outlined" d="M924.8 334.315l-65.498 56c3.098 18.999 4.698 38.4 4.698 57.801s-1.6 38.801-4.698 57.801l65.498 56c4.941 4.23 8.478 9.862 10.138 16.15 1.664 6.288 1.37 12.932-0.836 19.050l-0.9 2.6c-18.031 50.397-45.035 97.117-79.697 137.9l-1.801 2.1c-4.207 4.945-9.813 8.499-16.077 10.195-6.268 1.696-12.898 1.453-19.025-0.695l-81.301-28.9c-29.999 24.6-63.497 44-99.699 57.6l-15.697 85c-1.186 6.396-4.288 12.28-8.896 16.87s-10.505 7.67-16.905 8.83l-2.701 0.5c-52.1 9.4-106.901 9.4-159.002 0l-2.701-0.5c-6.398-1.16-12.294-4.239-16.903-8.83s-7.711-10.474-8.895-16.87l-15.8-85.4c-35.911-13.603-69.353-32.992-99-57.4l-81.9 29.1c-6.124 2.166-12.761 2.417-19.030 0.72s-11.875-5.262-16.070-10.22l-1.8-2.1c-34.625-40.813-61.623-87.524-79.7-137.9l-0.9-2.6c-4.5-12.5-0.8-26.5 9.3-35.2l66.3-56.602c-3.1-18.799-4.6-37.999-4.6-57.097 0-19.2 1.5-38.4 4.6-57.101l-66.3-56.602c-4.941-4.228-8.477-9.86-10.138-16.149s-1.369-12.932 0.838-19.051l0.9-2.598c18.1-50.402 44.9-96.9 79.7-137.903l1.8-2.099c4.205-4.945 9.81-8.499 16.076-10.193 6.266-1.698 12.899-1.455 19.024 0.695l81.9 29.099c29.8-24.499 63.1-43.9 99-57.399l15.8-85.402c1.184-6.396 4.287-12.279 8.895-16.87s10.505-7.667 16.903-8.828l2.701-0.499c52.578-9.451 106.423-9.451 159.002 0l2.701 0.499c6.4 1.161 12.297 4.237 16.905 8.828s7.71 10.475 8.896 16.87l15.697 85.001c36.186 13.564 69.875 33.028 99.699 57.6l81.301-28.898c6.123-2.167 12.762-2.419 19.029-0.721 6.272 1.698 11.874 5.261 16.073 10.219l1.801 2.099c34.799 41.101 61.598 87.501 79.697 137.903l0.9 2.598c4.501 12.301 0.802 26.3-9.301 34.999v0zM788.301 494.114c2.5-15.1 3.802-30.596 3.802-46.097s-1.301-31.002-3.802-46.101l-6.601-40.098 74.701-63.902c-11.324-26.091-25.617-50.786-42.598-73.6l-92.8 32.9-31.403-25.801c-23.898-19.601-50.496-34.999-79.296-45.798l-38.101-14.302-17.899-96.998c-28.245-3.2-56.759-3.2-85.001 0l-17.903 97.199-37.798 14.498c-28.5 10.803-55 26.202-78.7 45.7l-31.4 25.903-93.4-33.203c-17 22.903-31.2 47.603-42.6 73.6l75.5 64.503-6.5 40c-2.4 14.899-3.7 30.298-3.7 45.5 0 15.3 1.2 30.601 3.7 45.5l6.5 40-75.5 64.5c11.3 26.1 25.6 50.7 42.6 73.6l93.4-33.2 31.4 25.9c23.7 19.5 50.2 34.9 78.7 45.7l37.901 14.3 17.899 97.2c28.1 3.2 56.802 3.2 85.001 0l17.899-97 38.101-14.3c28.702-10.8 55.398-26.2 79.3-45.8l31.398-25.8 92.8 32.9c17.003-22.9 31.202-47.6 42.603-73.6l-74.701-63.9 6.498-39.902zM512 634.016c-97.198 0-175.998-78.8-175.998-175.998 0-97.203 78.8-176.004 175.998-176.004 97.203 0 176 78.801 176 176.004 0 97.198-78.797 175.998-176 175.998zM591.202 378.816c-10.389-10.419-22.733-18.679-36.326-24.307-13.589-5.628-28.16-8.516-42.876-8.495-29.897 0-57.997 11.703-79.198 32.802-10.417 10.389-18.679 22.733-24.308 36.326-5.629 13.589-8.515 28.16-8.492 42.876 0 29.897 11.7 57.997 32.8 79.198 21.201 21.2 49.301 32.8 79.198 32.8 29.901 0 58.001-11.6 79.202-32.8 10.419-10.39 18.679-22.733 24.307-36.327 5.628-13.589 8.516-28.16 8.491-42.871 0-29.901-11.699-58.001-32.798-79.202z" />
<glyph unicode="&#xe913;" glyph-name="eva_arrow-ios-back-fill-1" d="M569.441 746.668c-6.374 0.022-12.673-1.386-18.431-4.117s-10.833-6.719-14.849-11.67l-206.080-256c-6.276-7.635-9.706-17.211-9.706-27.093s3.43-19.459 9.706-27.094l213.333-255.997c7.242-8.717 17.649-14.195 28.931-15.238 11.282-1.037 22.516 2.445 31.229 9.69 8.713 7.238 14.193 17.651 15.233 28.928 1.041 11.283-2.444 22.515-9.686 31.232l-190.72 228.692 184.32 228.693c5.217 6.263 8.531 13.889 9.55 21.977s-0.3 16.298-3.801 23.658c-3.501 7.361-9.037 13.565-15.955 17.879s-14.924 6.555-23.075 6.46z" />
<glyph unicode="&#xe914;" glyph-name="eva_arrow-ios-back-fill" d="M433.918 746.668c6.374 0.022 12.673-1.386 18.431-4.117s10.833-6.719 14.849-11.67l206.082-256c6.272-7.635 9.702-17.211 9.702-27.093s-3.43-19.459-9.702-27.094l-213.335-255.997c-7.242-8.717-17.649-14.195-28.931-15.238-11.282-1.037-22.516 2.445-31.229 9.69-8.713 7.238-14.193 17.651-15.233 28.928-1.041 11.283 2.444 22.515 9.686 31.232l190.72 228.692-184.32 228.693c-5.217 6.263-8.531 13.889-9.55 21.977s0.3 16.298 3.801 23.658c3.501 7.361 9.037 13.565 15.955 17.879s14.924 6.555 23.075 6.46z" />
<glyph unicode="&#xe915;" glyph-name="Filter-Icon1" d="M635.346 802.844c-6.845-1.818-19.328-9.368-27.75-16.778-12.308-10.836-16.374-17.331-20.792-33.227l-5.494-19.756h-404.085l-10.068-8.473c-12.64-10.639-15.812-24.077-9.338-39.574 9.63-23.048 2.76-22.364 224.664-22.364h199.396l2.355-10.897c3.246-15.048 12.764-32.946 22.205-41.751 16.133-15.048 29.271-17.763 85.985-17.763 49.244 0 54.328 0.583 68.004 7.802 18.125 9.572 33.075 30.011 35.579 48.64l1.869 13.968h21.519c26.629 0 40.146 6.461 46.787 22.364 6.154 14.719 3.543 27.933-7.588 38.404-6.907 6.501-13.128 8.274-33.838 9.642l-25.375 1.677-4.096 16.204c-6.707 26.521-24.945 45.090-51.538 52.476-15.268 4.241-91.791 3.819-108.401-0.596zM726.584 697.879v-35.205h-70.41v70.41h70.41v-35.205zM346.653 552.112c-22.599-7.121-43.239-30.756-47.651-54.568l-2.334-12.573h-55.279c-62.783 0-73.938-2.924-82.86-21.72-6.572-13.854-6.572-16.469 0-30.324 8.922-18.801 20.070-21.719 82.937-21.719h55.359l2.246-13.286c2.836-16.799 17.398-37.074 34.065-47.432 12.315-7.66 15.53-8.018 71.571-8.018s59.255 0.358 71.57 8.018c16.667 10.358 31.229 30.633 34.065 47.432l2.245 13.286h162.652c180.669 0 179.881-0.092 190.228 21.719 6.574 13.855 6.574 16.47 0 30.324-10.348 21.81-9.559 21.72-190.228 21.72h-162.652l-2.245 13.287c-2.836 16.795-17.398 37.069-34.065 47.43-12.044 7.487-16.442 8.064-66.541 8.708-29.506 0.382-57.894-0.647-63.085-2.284zM439.913 448.089v-35.207h-70.411l-0.972 31.601c-0.533 17.383-0.184 33.655 0.778 36.163 1.355 3.527 9.569 4.345 36.178 3.604l34.427-0.956v-35.205zM553.912 298.353c-22.415-11.796-41.651-38.144-41.841-57.303l-0.072-7.547h-164.459c-183.219 0-180.234 0.353-189.723-22.364-6.474-15.493-3.302-28.933 9.338-39.572l10.068-8.474h333.897l1.949-11.991c3.185-19.64 17.603-40.52 35.062-50.785 15.585-9.165 16.717-9.308 71.163-9.308 54.441 0 55.572 0.143 71.158 9.308 17.459 10.266 31.877 31.145 35.062 50.785l1.951 11.991h59.653c58.911 0 59.781 0.108 69.724 8.474 12.641 10.639 15.816 24.079 9.339 39.572-8.31 19.901-17.393 22.364-82.432 22.364-55.229 0-57.165 0.23-57.165 6.815 0 10.624-9.503 30.787-19.456 41.272-18.913 19.927-28.539 22.339-88.54 22.19-43.080-0.108-56.745-1.254-64.676-5.427zM656.174 198.298v-35.205h-73.764v70.41h73.764v-35.205z" />
<glyph unicode="&#xe916;" glyph-name="fluent_person-16-regular" d="M766.293 429.227c29.875 0 58.526-11.866 79.65-32.99s32.99-49.775 32.99-79.65v-37.547c0-148.011-139.674-300.373-375.467-300.373s-375.467 152.363-375.467 300.373v37.547c0 29.875 11.867 58.526 32.992 79.65s49.775 32.99 79.648 32.99h525.653zM766.293 354.133h-525.653c-9.958 0-19.508-3.955-26.549-10.995-7.042-7.044-10.997-16.593-10.997-26.551v-37.547c0-107.985 107.534-225.28 300.373-225.28s300.373 117.295 300.373 225.28v37.547c0 9.958-3.955 19.507-10.995 26.551-7.044 7.040-16.593 10.995-26.551 10.995zM503.467 917.333c54.767 0 107.294-21.757 146.022-60.484s60.484-91.253 60.484-146.022c0-54.769-21.756-107.295-60.484-146.022s-91.255-60.484-146.022-60.484c-54.767 0-107.295 21.756-146.022 60.484s-60.484 91.253-60.484 146.022c0 54.769 21.757 107.295 60.484 146.022s91.255 60.484 146.022 60.484v0zM503.467 842.24c-34.854 0-68.279-13.845-92.923-38.49s-38.49-58.070-38.49-92.923c0-34.853 13.845-68.279 38.49-92.923s58.069-38.49 92.923-38.49c34.854 0 68.279 13.845 92.924 38.49s38.49 58.070 38.49 92.923c0 34.853-13.845 68.279-38.49 92.923s-58.069 38.49-92.924 38.49z" />
<glyph unicode="&#xe917;" glyph-name="Frame-3132261" d="M985.958 840.49c22.49 22.494 22.49 58.964 0 81.458-22.496 22.494-58.963 22.494-81.459 0l81.459-81.458zM38.036 55.488c-22.494-22.496-22.494-58.963 0-81.459s58.965-22.496 81.459 0l-81.459 81.459zM904.499 921.948l-866.463-866.46 81.459-81.459 866.463 866.461-81.459 81.458zM38.043 840.49c-22.494 22.494-22.494 58.964 0 81.458s58.965 22.494 81.459 0l-81.459-81.458zM985.965 55.488c22.496-22.496 22.496-58.963 0-81.459s-58.963-22.496-81.459 0l81.459 81.459zM119.502 921.948l866.463-866.46-81.459-81.459-866.462 866.461 81.459 81.458z" />
<glyph unicode="&#xe918;" horiz-adv-x="3433" d="M1548.746 686.391c14.981-9.183 27.726-15.555 38.234-19.289 10.445-3.674 20.667-5.512 30.654-5.512 10.044 0 18.143 2.243 24.284 6.662 6.087 4.419 9.126 10.103 9.126 17.049 0 9.929-10.848 21.181-32.608 33.58-2.027 1.166-3.786 2.195-5.277 3.066l-0.476 0.279c-0.885 0.517-1.666 0.972-2.343 1.362l-16.474 9.3c-16.017 9.067-27.898 19.346-35.593 30.769-7.749 11.423-11.595 24.4-11.595 38.865 0 19.633 7.409 35.706 22.218 48.279 14.755 12.573 33.867 18.831 57.287 18.831 8.671 0 18.028-1.036 28.076-3.042 10.101-2.012 21.293-5.168 33.635-9.414v-57.118c-11.767 7.348-22.904 13.031-33.467 17.049s-19.519 6.027-26.922 6.027c-8.207 0-14.64-1.781-19.348-5.282-4.704-3.5-7.060-8.324-7.060-14.351 0-4.249 1.376-8.21 4.189-11.884 2.816-3.731 7.002-7.060 12.628-10.102l28.591-15.786c23.938-13.261 40.011-25.49 48.279-36.685 8.267-11.25 12.399-24.511 12.399-39.895 0-23.766-8.093-42.999-24.284-57.636-16.242-14.64-37.716-21.929-64.521-21.929-9.071 0-18.947 0.979-29.624 2.873-10.619 1.894-22.386 4.876-35.135 8.9l-4.876 65.039 0.003-0.005zM979.384 617.502l50.631 251.785h4.192l92.024-158.787 86.796 158.787h4.364l50.98-251.785h-55.344l-20.664 111.367-65.443-120.327h-3.909l-70.261 121.992-21.411-113.032h-51.956zM884.293 861.36v-243.861h58.214v243.861h-58.214zM610.412 617.499l87.603 126.119-86.398 117.742h71.069l50.29-69.637 47.246 69.637h63.377l-78.535-112.688 96.099-131.173h-71.641l-59.244 82.721-56.142-82.721h-63.723zM468.402 868.941l-124.398-251.442h58.615l15.785 35.476h98.97l15.441-35.476h60.907l-121.645 251.442h-3.674zM499.345 695h-64.069l32.437 76.35 31.633-76.35zM37.147 617.502l50.633 251.785h4.192l92.022-158.787 86.797 158.787h4.365l50.976-251.785h-55.341l-20.666 111.367-65.442-120.327h-3.901l-70.269 121.992-21.412-113.032h-51.953zM1359.574 727.747v60.601l-0.003-0.003-58.1-0.128v-65.263c0-35.163 9.773-63.948 27.681-83.373 17.938-19.453 43.050-29.157 75.357-29.157 31.961 0 55.847 3.671 80.041 25.272 22.847 20.399 27.488 56.481 26.371 91.507l-1.958 61.407-56.937-0.068 0.626-66.686c0.178-18.979-2.147-33.424-10.234-43.339-8.093-9.92-19.842-14.921-35.22-14.921-16.008 0-27.925 5.342-35.789 16.008-7.861 10.657-11.836 26.702-11.836 48.142z" />
<glyph unicode="&#xe919;" horiz-adv-x="3433" d="M1358.968 861.059h-57.615v-56.463h57.615v56.463zM226.046 28.937v415.431h-188.899v102.352h479.398v-102.352h-188.898v-415.431h-101.601zM1022.286 28.937l-179.116 169.333h-163.313v-169.333h-102.355v517.783h422.957c27.594 0 50.796-2.885 69.614-8.656 18.818-5.768 33.991-14.923 45.532-27.467 11.538-12.544 19.944-29.1 25.211-49.67 5.268-20.573 7.903-45.408 7.903-74.508v-31.611c0-31.608-3.135-57.443-9.406-77.517-6.27-20.067-16.429-35.87-30.479-47.411-14.050-11.538-32.114-19.441-54.188-23.709-22.076-4.262-49.17-6.397-81.278-6.397l191.913-170.836h-142.996zM1047.877 369.11c0 25.088-2.885 43.776-8.656 56.070-5.771 12.291-19.694 18.438-41.77 18.438h-317.594v-160.301h317.594c18.065 0 30.982 4.515 38.758 13.547s11.665 24.835 11.665 47.411v24.838l0.003-0.003zM1747.784 28.937l-64.72 120.416h-312.329l-64.72-120.416h-115.902l283.726 517.783h106.114l283.726-517.783h-115.896zM1527.278 445.121l-117.405-214.489h234.812l-117.408 214.489zM2048.069 28.937c-31.109 0-56.943 2.762-77.517 8.279-20.573 5.521-37.006 14.679-49.297 27.47-12.291 12.794-21.070 29.979-26.338 51.552-5.271 21.57-7.906 48.414-7.906 80.526v182.124c0 32.111 2.635 58.955 7.906 80.526 5.268 21.573 14.047 38.885 26.338 51.929 12.291 13.047 28.723 22.2 49.297 27.467s46.408 7.903 77.517 7.903h290.5c19.067 0 35.75-2.635 50.050-7.903s26.464-11.788 36.5-19.567c10.035-7.776 18.062-16.056 24.085-24.835 6.021-8.782 10.535-16.682 13.547-23.709l-64.723-66.226c-4.515 10.032-11.791 19.191-21.826 27.467-10.029 8.279-24.835 12.418-44.402 12.418h-282.973c-22.576 0-38.382-4.765-47.414-14.3-9.029-9.532-13.544-26.594-13.544-51.176v-182.88c0-11.035 0.75-20.57 2.256-28.597s4.391-14.8 8.656-20.317c4.265-5.524 10.412-9.659 18.438-12.421 8.029-2.762 18.568-4.138 31.611-4.138h286.738c20.067 0 34.87 4.138 44.402 12.418 9.535 8.279 16.559 17.435 21.073 27.47l64.723-65.476c-3.012-7.026-7.526-14.926-13.55-23.706-6.018-8.782-14.047-17.062-24.079-24.838-10.035-7.779-22.203-14.3-36.503-19.567-14.303-5.268-30.985-7.903-50.046-7.903l-293.518 0.009zM2542.523 28.937v517.783h497.462v-102.352h-395.863v-114.396h384.569v-83.537h-384.569v-115.899h395.863v-101.602l-497.462 0.003zM1451.499 861.059h57.618v-56.463h-57.618v56.463z" />
<glyph unicode="&#xe91a;" horiz-adv-x="3433" d="M3143.59 703.615c0-2.288-0.060-4.212-0.271-5.859-0.211-1.605-0.482-2.891-0.873-3.851-0.422-1.004-0.904-1.727-1.506-2.168-0.542-0.484-1.235-0.723-1.928-0.723h-38.039v-122.703c0-0.762-0.241-1.485-0.783-2.129-0.512-0.602-1.355-1.123-2.53-1.524-1.144-0.361-2.771-0.684-4.759-0.925-2.018-0.244-4.488-0.361-7.469-0.361s-5.451 0.117-7.469 0.361c-2.018 0.241-3.614 0.563-4.789 0.925-1.144 0.401-1.988 0.922-2.53 1.524-0.512 0.645-0.753 1.367-0.753 2.129v122.703h-38.039c-0.783 0-1.446 0.239-2.018 0.723-0.512 0.441-0.994 1.164-1.416 2.168-0.361 0.962-0.663 2.248-0.873 3.851-0.211 1.648-0.271 3.571-0.271 5.859 0 2.331 0.060 4.334 0.271 5.982s0.512 2.971 0.873 3.933c0.422 1.005 0.904 1.688 1.416 2.129 0.572 0.441 1.235 0.643 2.018 0.643h107.159c0.693 0 1.325-0.202 1.928-0.643s1.084-1.124 1.476-2.129c0.422-0.965 0.693-2.288 0.904-3.933 0.181-1.648 0.271-3.651 0.271-5.982v0zM3338.963 568.311c0-0.762-0.211-1.485-0.663-2.129-0.422-0.602-1.235-1.123-2.349-1.524-1.144-0.361-2.68-0.684-4.548-0.925-1.897-0.244-4.307-0.361-7.198-0.361-2.831 0-5.21 0.117-7.108 0.361-1.867 0.241-3.343 0.563-4.488 0.925-1.084 0.401-1.867 0.922-2.319 1.524-0.482 0.645-0.723 1.367-0.723 2.129v123.906h-0.241l-43.972-123.786c-0.301-1.006-0.783-1.849-1.506-2.53-0.723-0.684-1.656-1.205-2.891-1.605-1.205-0.361-2.771-0.645-4.608-0.765-1.897-0.12-4.186-0.16-6.837-0.16-2.68 0-4.939 0.078-6.837 0.28-1.867 0.199-3.433 0.521-4.638 0.964s-2.168 0.964-2.891 1.566c-0.693 0.645-1.175 1.406-1.416 2.25l-42.406 123.786h-0.271v-123.906c0-0.762-0.181-1.485-0.632-2.129-0.452-0.602-1.235-1.123-2.409-1.524-1.205-0.361-2.741-0.684-4.578-0.925-1.837-0.244-4.216-0.361-7.108-0.361-2.831 0-5.21 0.117-7.108 0.361-1.867 0.241-3.403 0.563-4.518 0.925-1.114 0.401-1.928 0.922-2.379 1.524-0.422 0.645-0.632 1.367-0.632 2.129v135.625c0 4.013 1.054 7.066 3.162 9.192 2.138 2.129 4.939 3.17 8.523 3.17h20.209c3.614 0 6.746-0.282 9.336-0.885s4.849-1.565 6.716-2.931c1.867-1.366 3.464-3.17 4.698-5.418 1.265-2.248 2.379-5.017 3.313-8.31l32.768-90.673h0.482l33.973 90.471c0.994 3.292 2.138 6.061 3.313 8.352 1.265 2.248 2.65 4.092 4.277 5.498 1.596 1.406 3.524 2.407 5.692 3.008 2.199 0.603 4.759 0.885 7.65 0.885h20.872c2.138 0 3.945-0.282 5.481-0.845 1.506-0.521 2.801-1.323 3.765-2.407 0.994-1.044 1.717-2.331 2.259-3.853 0.512-1.525 0.753-3.29 0.753-5.259v-135.626l0.030 0.006z" />
<glyph unicode="&#xe91b;" glyph-name="Icon1" d="M341.333 490.667h341.333c23.564 0 42.667-19.103 42.667-42.667s-19.103-42.667-42.667-42.667h-341.333c-23.564 0-42.667 19.103-42.667 42.667s19.103 42.667 42.667 42.667z" />
<glyph unicode="&#xe91c;" glyph-name="ion_notifications-outline" d="M503.475 38.391c-33.707 0-66.56 12.373-92.161 34.56s-42.24 52.907-47.36 86.187l-0.853 7.253h-200.96c-6.4 0-12.373 1.707-17.493 4.693s-9.813 7.68-12.373 13.227c-2.987 5.547-4.267 11.52-3.84 17.92 0 6.4 2.133 12.373 5.547 17.067l79.787 119.467v203.092c0 130.56 87.893 245.333 213.334 279.893l4.267 1.28 1.707 3.84c5.547 14.080 15.36 26.453 28.16 34.987s27.733 13.227 43.093 13.227c15.36 0 30.293-4.693 43.093-13.227s22.613-20.48 28.16-34.987l1.707-3.84 4.267-1.28c61.013-16.64 115.627-53.76 154.027-104.107s59.307-112.64 59.307-175.787v-203.092l79.787-119.467c3.413-5.12 5.547-11.093 5.547-17.493 0-5.973-1.28-12.373-3.84-17.92-2.987-5.547-7.253-10.24-12.373-13.227s-11.52-4.693-17.493-4.693h-200.96l-0.853-7.253c-4.693-33.707-21.76-64-47.36-86.187s-58.453-34.56-92.16-34.56l-1.707 0.427zM435.209 154.871c5.12-14.080 14.080-26.453 26.453-34.987s26.88-13.227 41.813-13.227c14.933 0 29.44 4.693 41.813 13.227s21.333 20.907 26.453 34.987l3.84 11.52h-145.067l3.84-11.52h0.853zM503.475 763.724c-59.307 0-115.201-23.040-157.014-64.853s-64.853-97.707-64.853-157.013v-213.332c0-6.827-2.133-13.227-5.547-18.773l-49.92-75.093h554.668l-49.92 75.093c-3.84 5.547-5.547 12.373-5.547 18.773v213.332c0 59.307-23.040 114.773-64.853 157.013-41.813 41.813-97.707 64.853-157.013 64.853v0z" />
<glyph unicode="&#xe91d;" horiz-adv-x="3904" d="M349.939 137.382h16.589l-8.006 74.003-8.582-74.003zM305.76 72.685l23.37 156.877h58.461l23.981-156.877h-37.434l-4.326 38.515h-23.155l-4.33-38.515h-36.566zM422.176 107.091h28.995c0-5.878 0.611-9.738 1.805-11.539 1.19-1.843 3.53-2.742 7.069-2.742 2.954 0 5.085 0.65 6.419 1.949s2.019 3.315 2.019 6.022v6.957c0 4.941-5.373 8.406-16.157 10.461-4.038 0.723-7.248 1.334-9.629 1.914-8.33 1.91-13.702 4.288-16.154 7.21-2.49 2.886-3.715 7.683-3.715 14.39v13.021c0 10.893 2.416 18.717 7.283 23.514 4.867 4.794 12.838 7.178 23.91 7.178h14.678c10.422 0 17.744-1.91 21.965-5.734 4.182-3.859 6.381-10.749 6.598-20.736v-7.936h-28.346v6.131c0 2.813-0.614 4.723-1.805 5.77-1.19 1.011-3.389 1.517-6.637 1.517-2.813 0-5.014-0.614-6.563-1.805-1.552-1.19-2.307-2.886-2.307-5.053v-6.128c0-4.182 4.109-7.072 12.371-8.691 4.579-0.899 8.33-1.77 11.29-2.525 8.867-1.549 15.002-4.112 18.39-7.683 3.427-3.571 5.123-9.158 5.123-16.768v-13.2c0-12.080-2.598-20.378-7.757-24.957-5.194-4.582-14.675-6.886-28.563-6.886h-8.438c-12.118 0-20.483 1.984-25.027 5.984-4.544 3.968-6.816 11.325-6.816 21.962v8.406h-0.003zM513.235 107.091h28.995c0-5.878 0.614-9.738 1.805-11.539 1.19-1.843 3.533-2.742 7.069-2.742 2.957 0 5.085 0.65 6.419 1.949s2.019 3.315 2.019 6.022v6.957c0 4.941-5.373 8.406-16.157 10.461-4.038 0.723-7.248 1.334-9.629 1.914-8.33 1.91-13.702 4.288-16.154 7.21-2.49 2.886-3.715 7.683-3.715 14.39v13.021c0 10.893 2.416 18.717 7.283 23.514 4.87 4.794 12.838 7.178 23.91 7.178h14.678c10.426 0 17.744-1.91 21.965-5.734 4.182-3.859 6.381-10.749 6.598-20.736v-7.936h-28.346v6.131c0 2.813-0.614 4.723-1.805 5.77-1.19 1.011-3.389 1.517-6.637 1.517-2.81 0-5.011-0.614-6.563-1.805-1.549-1.19-2.307-2.886-2.307-5.053v-6.128c0-4.182 4.112-7.072 12.371-8.691 4.579-0.899 8.33-1.77 11.29-2.525 8.867-1.549 15.002-4.112 18.39-7.683 3.427-3.571 5.123-9.158 5.123-16.768v-13.2c0-12.080-2.598-20.378-7.754-24.957-5.197-4.582-14.678-6.886-28.566-6.886h-8.438c-12.115 0-20.483 1.984-25.027 5.984-4.544 3.968-6.816 11.325-6.816 21.962v8.406h-0.003zM686.95 183.472v-110.787h-30.112v14.064c-3.174-5.734-6.851-9.843-11.037-12.298-4.182-2.486-9.45-3.712-15.795-3.712-8.656 0-14.714 2.381-18.176 7.104-3.424 4.723-5.158 13.594-5.158 26.65v78.979h32.24v-77.283c0-3.93 0.579-6.598 1.696-8.006 1.12-1.405 3.139-2.125 6.096-2.125 3.030 0 5.123 0.72 6.272 2.163 1.155 1.44 1.731 4.109 1.731 7.968v77.283h32.243zM706.643 72.685v110.787h29.898v-12.115c2.813 4.938 6.058 8.512 9.738 10.746 3.642 2.202 8.182 3.318 13.594 3.318 6.71 0 11.434-1.696 14.208-5.12 2.778-3.392 4.182-9.27 4.182-17.562v-24.419h-26.614v11.651c0 3.933-0.467 6.602-1.443 8.006-0.934 1.405-2.595 2.128-4.976 2.128-2.486 0-4.179-0.685-5.12-2.022-0.973-1.331-1.443-4.038-1.443-8.112v-77.283l-32.022-0.003zM790.637 206.842v25.533h32.022v-25.533h-32.022zM822.659 72.685h-32.022v110.787h32.022v-110.787zM842.819 72.685v110.787h29.898v-14.317c3.245 5.77 6.957 9.917 11.142 12.477 4.186 2.528 9.411 3.789 15.69 3.789 8.656 0 14.714-2.381 18.176-7.142 3.424-4.723 5.155-13.594 5.155-26.541v-79.053h-32.022v77.283c0 3.933-0.579 6.602-1.731 8.006-1.155 1.405-3.248 2.128-6.275 2.128-3.030 0-5.123-0.723-6.275-2.128s-1.731-4.074-1.731-8.006v-77.283h-32.026zM1022.63 75.75c0-16.838-2.634-28.346-7.933-34.512-5.267-6.166-14.822-9.232-28.637-9.232-16.189 0-27.082 2.198-32.672 6.563-5.622 4.365-8.403 12.333-8.403 23.946v0.65h27.699c0-3.101 0.646-5.229 1.946-6.422 1.299-1.19 3.606-1.802 6.922-1.802 3.571 0 5.987 0.72 7.216 2.128 1.226 1.405 1.837 4.365 1.837 8.941v16.192c-3.389-3.459-6.883-5.949-10.563-7.462-3.645-1.514-8.042-2.272-13.2-2.272-9.45 0-16.013 2.56-19.766 7.718-3.712 5.158-5.587 14.57-5.587 28.237v41.040c0 13.235 1.875 22.576 5.587 27.914 3.754 5.373 10.099 8.042 19.043 8.042 6.093 0 11.29-1.261 15.507-3.75 4.218-2.525 7.718-6.384 10.458-11.61v13.414h30.547v-107.722zM990.605 107.344v42.339c0 4.435-0.538 7.395-1.619 8.87-1.082 1.478-3.21 2.202-6.384 2.202s-5.302-0.723-6.384-2.202c-1.085-1.475-1.622-4.435-1.622-8.87v-42.339c0-4.435 0.541-7.392 1.622-8.87s3.21-2.198 6.384-2.198c3.245 0 5.373 0.72 6.419 2.125 1.046 1.408 1.584 4.403 1.584 8.944zM1135.331 117.261v-44.573h-36.566v156.877h36.784c22.467 0 37.36-2.886 44.682-8.621 7.283-5.734 10.928-16.262 10.928-31.629v-31.773c0-15.072-3.571-25.568-10.675-31.446-7.142-5.878-20.16-8.835-39.13-8.835h-6.022zM1154.374 157.328v33.251c0 4.362-0.758 7.322-2.237 8.906-1.475 1.587-4.362 2.381-8.653 2.381h-8.15v-55.824h8.15c4.291 0 7.178 0.79 8.653 2.381 1.478 1.584 2.237 4.544 2.237 8.906v0zM1247.274 102.15v11.827c0 2.419-0.685 4.259-2.054 5.59-1.408 1.334-3.318 2.019-5.77 2.019-2.49 0-4.403-0.685-5.734-2.019-1.338-1.331-2.022-3.174-2.022-5.59v-11.827c0-2.454 0.685-4.365 2.022-5.664 1.331-1.299 3.245-1.946 5.734-1.946 2.451 0 4.362 0.646 5.77 1.946 1.37 1.299 2.054 3.21 2.054 5.664zM1248.97 72.688v8.87c-2.416-3.894-5.443-6.672-9.088-8.33-3.68-1.661-8.582-2.49-14.714-2.49-9.306 0-15.795 2.195-19.51 6.563-3.715 4.365-5.552 12.189-5.552 23.475v13.414c0 9.232 2.128 16.051 6.349 20.486 4.218 4.4 10.816 6.602 19.763 6.602 3.894 0 7.642-0.544 11.216-1.661 3.603-1.082 6.886-2.669 9.843-4.794v16.406c0 4.474-0.506 7.43-1.549 8.874-1.011 1.443-3.101 2.16-6.272 2.16-3.069 0-5.050-0.717-6.061-2.16-0.973-1.443-1.478-4.403-1.478-8.874h-28.346v8.006c0 10.134 2.451 17.024 7.392 20.701 4.941 3.642 15.114 5.482 30.547 5.482 15.325 0 25.459-1.84 30.4-5.482 4.941-3.68 7.395-10.566 7.395-20.701v-86.55h-30.336zM1307.61 72.688l-14.499 110.787h32.026l9.952-94.742 10.893 94.742h30.867l-15.328-102.963c-2.954-19.795-6.995-32.816-12.115-39.091s-13.056-9.414-23.837-9.414c-2.525 0-5.267 0.218-8.15 0.688-2.886 0.467-6.093 1.19-9.594 2.163v22.538c1.731-0.506 3.318-0.829 4.723-1.046 1.443-0.214 2.669-0.323 3.718-0.323 4.65 0 8.221 1.37 10.746 4.112 2.49 2.739 3.968 6.925 4.365 12.55h-23.766zM1390.051 72.688v110.787h29.68v-14.317c3.389 5.914 7.107 10.096 11.146 12.586 4.038 2.454 9.194 3.68 15.469 3.68 6.131 0 11.037-1.334 14.714-3.968 3.715-2.634 5.987-6.419 6.816-11.36 3.174 5.446 6.746 9.341 10.746 11.722 3.968 2.416 9.018 3.606 15.078 3.606 8.653 0 14.675-2.346 18.067-7.034 3.389-4.653 5.085-13.558 5.085-26.653v-79.050h-31.808v77.283c0 4.003-0.544 6.707-1.661 8.077-1.082 1.373-3.101 2.058-6.058 2.058-2.995 0-5.050-0.685-6.166-2.022-1.117-1.331-1.696-3.68-1.696-7.066v-78.333h-32.022v77.283c0 4.003-0.576 6.71-1.696 8.080s-3.139 2.054-6.096 2.054c-3.030 0-5.12-0.755-6.275-2.234-1.152-1.482-1.731-4.112-1.731-7.901v-77.283l-31.59 0.003zM1567.734 152.605v-10.675h20.339v10.675c0 4.653-0.646 7.718-1.91 9.197-1.264 1.475-4.003 2.198-8.256 2.198-4.112 0-6.816-0.755-8.15-2.307-1.334-1.549-2.019-4.582-2.019-9.088h-0.003zM1534.845 141.712c0 17.024 2.883 28.563 8.656 34.624 5.805 6.058 16.912 9.088 33.322 9.088 16.374 0 27.443-3.030 33.251-9.088 5.805-6.061 8.726-17.6 8.726-34.624v-21.638h-51.066v-13.885c0-4.509 0.646-7.462 1.91-8.87s3.859-2.128 7.827-2.128c3.968 0 6.563 0.758 7.827 2.237 1.261 1.478 1.91 4.4 1.91 8.762v2.416h31.594v-7.392c0-11.648-2.995-19.619-8.944-23.981-5.949-4.33-17.85-6.493-35.667-6.493-14.966 0-25.245 3.069-30.867 9.197-5.664 6.131-8.477 17.562-8.477 34.262v27.514h-0.003zM1636.112 72.688v110.787h29.898v-14.317c3.245 5.77 6.957 9.917 11.142 12.477 4.182 2.525 9.411 3.789 15.69 3.789 8.656 0 14.714-2.384 18.176-7.142 3.424-4.723 5.155-13.594 5.155-26.544v-79.050h-32.022v77.283c0 3.933-0.579 6.602-1.731 8.006-1.158 1.405-3.248 2.128-6.275 2.128-3.030 0-5.123-0.723-6.275-2.128s-1.731-4.074-1.731-8.006v-77.283h-32.026zM1739.542 159.238h-9.738v24.234h9.738v29.43h32.24v-29.43h18.176v-24.234h-18.176v-51.68c0-4.218 0.973-7.318 2.922-9.232 1.91-1.946 5.011-2.922 9.232-2.922 1.046 0 1.875 0.038 2.416 0.074 0.579 0.035 1.117 0.074 1.587 0.144l0.109-23.766c-3.318-0.47-6.387-0.864-9.235-1.155-2.848-0.25-5.478-0.397-7.898-0.397-12.115 0-20.378 2.234-24.774 6.707-4.4 4.474-6.598 13.558-6.598 27.264v54.963zM1801.824 107.094h28.998c0-5.882 0.611-9.741 1.802-11.542 1.19-1.84 3.533-2.739 7.072-2.739 2.954 0 5.085 0.65 6.419 1.949 1.334 1.296 2.019 3.315 2.019 6.019v6.96c0 4.941-5.373 8.406-16.157 10.461-4.038 0.72-7.248 1.331-9.629 1.91-8.33 1.91-13.706 4.291-16.154 7.213-2.49 2.886-3.718 7.683-3.718 14.39v13.021c0 10.89 2.419 18.717 7.286 23.514 4.867 4.794 12.838 7.174 23.91 7.174h14.678c10.422 0 17.744-1.91 21.965-5.734 4.182-3.859 6.381-10.746 6.598-20.736v-7.933h-28.346v6.131c0 2.813-0.614 4.723-1.805 5.77-1.19 1.011-3.392 1.514-6.637 1.514-2.813 0-5.014-0.611-6.563-1.802-1.552-1.194-2.307-2.886-2.307-5.053v-6.131c0-4.182 4.109-7.069 12.371-8.688 4.579-0.902 8.33-1.77 11.286-2.528 8.87-1.549 15.005-4.109 18.394-7.683 3.427-3.568 5.123-9.158 5.123-16.768v-13.2c0-12.080-2.598-20.374-7.757-24.957-5.194-4.579-14.675-6.886-28.563-6.886h-8.438c-12.118 0-20.483 1.984-25.030 5.987-4.544 3.965-6.813 11.322-6.813 21.962v8.406h-0.006z" />
<glyph unicode="&#xe91e;" glyph-name="Table-Sorting" d="M293.063 282.937c26.66 26.66 69.884 26.66 96.544 0l122.394-122.394 122.395 122.394c26.66 26.66 69.884 26.66 96.544 0s26.66-69.884 0-96.544l-170.667-170.667c-26.66-26.658-69.884-26.658-96.544 0l-170.667 170.667c-26.66 26.66-26.66 69.884 0 96.544zM463.729 880.271c26.66 26.66 69.884 26.66 96.544 0l170.667-170.667c26.66-26.66 26.66-69.884 0-96.544s-69.884-26.66-96.544 0l-122.395 122.395-122.394-122.395c-26.66-26.66-69.884-26.66-96.544 0s-26.66 69.884 0 96.544l170.667 170.667z" />
<glyph unicode="&#xe91f;" horiz-adv-x="3904" d="M3471.936 450.867c33.792-20.707 62.528-35.075 86.208-43.485 23.552-8.285 46.592-12.429 69.12-12.429 22.656 0 40.896 5.050 54.752 15.014 13.728 9.968 20.576 22.778 20.576 38.438 0 22.394-24.48 47.76-73.504 75.715-7.904 4.531-13.984 8.154-18.272 10.614l-37.152 20.97c-36.096 20.448-62.88 43.616-80.224 69.373-17.472 25.754-26.144 55.004-26.144 87.621 0 44.265 16.704 80.501 50.080 108.848 33.248 28.343 76.352 42.452 129.152 42.452 19.552 0 40.64-2.333 63.296-6.86 22.784-4.531 48.032-11.65 75.84-21.226v-128.78c-26.528 16.568-51.616 29.38-75.456 38.44-23.808 9.060-44 13.588-60.672 13.588-18.528 0-33.024-4.010-43.616-11.907-10.624-7.895-15.936-18.765-15.936-32.358 0-9.576 3.104-18.508 9.44-26.792 6.336-8.411 15.808-15.917 28.48-22.777l64.448-35.594c53.984-29.898 90.208-57.462 108.864-82.704 18.624-25.366 27.936-55.264 27.936-89.949 0-53.584-18.24-96.941-54.72-129.942-36.64-33.005-85.056-49.44-145.504-49.44-20.448 0-42.688 2.198-66.752 6.47-23.968 4.272-50.496 11.002-79.232 20.061l-11.008 146.637z" />
<glyph unicode="&#xe920;" horiz-adv-x="3904" d="M2188.294 295.555l114.154 567.664h9.45l207.469-357.993 195.696 357.993h9.83l114.934-567.664h-124.765l-46.598 251.088-147.546-271.277h-8.8l-158.416 275.027-48.278-254.838h-117.13z" />
<glyph unicode="&#xe921;" horiz-adv-x="3904" d="M1973.965 295.555v549.804h131.238v-549.804h-131.238z" />
<glyph unicode="&#xe922;" horiz-adv-x="3904" d="M1356.474 295.555l197.501 284.352-194.784 265.452h160.227l113.379-156.996 106.518 156.996h142.89l-177.056-254.067 216.656-295.738h-161.523l-133.565 186.506-126.582-186.506h-143.661z" />
<glyph unicode="&#xe923;" horiz-adv-x="3904" d="M755.808 295.549l280.467 566.889h8.282l274.256-566.889h-137.322l-34.816 79.984h-223.133l-35.59-79.984h-132.144zM961.597 470.275h144.438l-71.312 172.137-73.126-172.137z" />
<glyph unicode="&#xe924;" horiz-adv-x="3904" d="M64.020 295.555l114.155 567.664h9.449l207.468-357.993 195.693 357.993h9.837l114.931-567.664h-124.768l-46.595 251.088-147.546-271.277h-8.8l-158.414 275.027-48.279-254.838h-117.13z" />
<glyph unicode="&#xe925;" horiz-adv-x="3904" d="M3045.488 680.738v-136.633c0-48.336 8.963-84.506 26.682-108.534 17.731-24.048 44.602-36.090 80.691-36.090 34.675 0 61.155 11.274 79.395 33.642 18.24 22.355 23.488 54.918 23.072 97.709l-1.408 150.345 128.384 0.151 4.416-138.445c2.496-78.966-7.968-160.314-59.456-206.298-54.56-48.701-108.416-56.982-180.461-56.982-72.829 0-129.45 21.878-169.891 65.738-40.381 43.795-62.413 108.694-62.413 187.968v147.138l130.989 0.292z" />
<glyph unicode="&#xe926;" horiz-adv-x="3904" d="M3044.15 844.672h-129.901v-127.3h129.901v127.3z" />
<glyph unicode="&#xe927;" horiz-adv-x="3904" d="M3382.656 844.672h-129.888v-127.3h129.888v127.3z" />
<glyph unicode="&#xe928;" horiz-adv-x="3904" d="M2378.496 72.902v156.877h68.989v-28.131h-32.422v-34.618h30.403v-27.050h-30.403v-38.95h35.488v-28.128h-72.054zM2466.56 72.902v110.787h29.898v-14.317c3.245 5.77 6.96 9.917 11.146 12.477 4.182 2.525 9.411 3.786 15.686 3.786 8.656 0 14.714-2.381 18.176-7.139 3.424-4.723 5.158-13.594 5.158-26.544v-79.050h-32.026v77.283c0 3.933-0.576 6.602-1.731 8.006s-3.248 2.128-6.275 2.128c-3.030 0-5.12-0.723-6.272-2.128-1.155-1.405-1.734-4.074-1.734-8.006v-77.283h-32.026zM2563.715 107.309h28.995c0-5.882 0.614-9.741 1.805-11.542 1.19-1.84 3.533-2.739 7.069-2.739 2.957 0 5.088 0.65 6.419 1.949 1.338 1.296 2.022 3.315 2.022 6.019v6.96c0 4.941-5.373 8.406-16.157 10.461-4.038 0.72-7.251 1.331-9.629 1.91-8.333 1.91-13.706 4.291-16.154 7.213-2.49 2.886-3.718 7.683-3.718 14.39v13.021c0 10.89 2.419 18.717 7.286 23.514 4.867 4.794 12.838 7.174 23.91 7.174h14.678c10.422 0 17.744-1.91 21.962-5.734 4.186-3.859 6.384-10.746 6.598-20.736v-7.933h-28.342v6.131c0 2.813-0.614 4.723-1.805 5.77-1.19 1.011-3.392 1.514-6.637 1.514-2.813 0-5.014-0.611-6.563-1.802-1.552-1.194-2.307-2.886-2.307-5.053v-6.131c0-4.182 4.109-7.069 12.368-8.688 4.582-0.902 8.333-1.77 11.29-2.528 8.87-1.549 15.005-4.109 18.394-7.683 3.424-3.568 5.12-9.158 5.12-16.768v-13.2c0-12.080-2.595-20.374-7.754-24.957-5.194-4.579-14.678-6.886-28.563-6.886h-8.438c-12.118 0-20.483 1.984-25.030 5.987-4.544 3.965-6.813 11.322-6.813 21.962v8.406h-0.006zM2737.434 183.69v-110.787h-30.112v14.064c-3.174-5.734-6.851-9.846-11.037-12.298-4.182-2.49-9.45-3.715-15.798-3.715-8.656 0-14.714 2.381-18.173 7.104-3.427 4.726-5.158 13.597-5.158 26.653v78.979h32.237v-77.283c0-3.933 0.579-6.602 1.699-8.006 1.117-1.405 3.139-2.128 6.093-2.128 3.034 0 5.123 0.723 6.275 2.163 1.155 1.443 1.731 4.112 1.731 7.971v77.283h32.243zM2757.126 72.902v110.787h29.894v-12.115c2.813 4.938 6.061 8.509 9.738 10.746 3.642 2.198 8.186 3.315 13.597 3.315 6.707 0 11.43-1.696 14.208-5.12 2.774-3.389 4.182-9.267 4.182-17.562v-24.416h-26.614v11.651c0 3.93-0.47 6.598-1.443 8.006-0.934 1.405-2.598 2.125-4.976 2.125-2.49 0-4.182-0.685-5.12-2.019-0.973-1.334-1.443-4.038-1.443-8.112v-77.286h-32.022zM2841.117 207.059v25.533h32.022v-25.533h-32.022zM2873.139 72.902h-32.022v110.787h32.022v-110.787zM2893.299 72.902v110.787h29.898v-14.317c3.245 5.77 6.96 9.917 11.146 12.477 4.182 2.525 9.411 3.786 15.686 3.786 8.656 0 14.717-2.381 18.176-7.139 3.424-4.723 5.158-13.594 5.158-26.544v-79.050h-32.026v77.283c0 3.933-0.576 6.602-1.731 8.006s-3.245 2.128-6.272 2.128c-3.034 0-5.123-0.723-6.275-2.128-1.155-1.405-1.734-4.074-1.734-8.006v-77.283h-32.026zM3073.114 75.968c0-16.842-2.634-28.349-7.936-34.512-5.264-6.166-14.819-9.235-28.634-9.235-16.192 0-27.085 2.202-32.672 6.563-5.626 4.365-8.406 12.336-8.406 23.949v0.65h27.699c0-3.104 0.65-5.232 1.949-6.422 1.296-1.19 3.603-1.802 6.922-1.802 3.568 0 5.987 0.72 7.213 2.125 1.226 1.408 1.84 4.365 1.84 8.944v16.192c-3.389-3.462-6.886-5.949-10.566-7.466-3.642-1.51-8.042-2.269-13.2-2.269-9.446 0-16.010 2.56-19.763 7.715-3.715 5.162-5.587 14.573-5.587 28.24v41.040c0 13.235 1.875 22.576 5.587 27.914 3.754 5.373 10.099 8.042 19.043 8.042 6.093 0 11.286-1.261 15.507-3.75 4.218-2.528 7.718-6.387 10.458-11.613v13.414h30.547v-107.718zM3041.088 107.562v42.339c0 4.435-0.541 7.392-1.619 8.87-1.085 1.478-3.213 2.198-6.387 2.198-3.171 0-5.302-0.72-6.384-2.198s-1.622-4.438-1.622-8.87v-42.339c0-4.438 0.544-7.392 1.622-8.874 1.082-1.478 3.213-2.195 6.384-2.195 3.248 0 5.376 0.717 6.419 2.125 1.050 1.405 1.587 4.4 1.587 8.944zM3180.333 125.27v-15.222c0-4.074 0.826-6.957 2.451-8.653 1.622-1.696 4.365-2.525 8.259-2.525 4.218 0 7.069 0.794 8.547 2.416 1.466 1.622 2.234 4.688 2.234 9.197v11.107c0 3.354-0.224 5.882-0.64 7.501-0.416 1.622-1.12 3.069-2.099 4.33-2.419 2.883-7.936 5.302-16.589 7.178-3.968 0.864-7.034 1.587-9.2 2.234-10.166 2.886-17.13 6.925-20.954 12.118-3.786 5.194-5.696 13.344-5.696 24.486v14.499c0 14.064 2.739 23.872 8.182 29.462 5.446 5.552 14.893 8.33 28.349 8.33h10.819c8.435 0 15.347-0.717 20.819-2.16 5.408-1.443 9.664-3.754 12.768-6.925 2.464-2.451 4.16-5.587 5.184-9.411 0.96-3.789 1.472-9.882 1.472-18.25v-12.15h-32.416v9.808c0 4.941-0.64 8.224-1.952 9.846-1.334 1.622-3.965 2.416-8.003 2.416-3.898 0-6.531-0.755-7.901-2.269s-2.054-4.33-2.054-8.512v-10.134c0-7.683 6.563-13.165 19.686-16.48 3.712-1.011 6.688-1.805 8.864-2.451 10.080-2.816 16.992-6.781 20.736-11.83 3.808-5.088 5.664-13.13 5.664-24.128v-21.133c0-13.13-3.104-22.541-9.344-28.349-6.24-5.77-16.384-8.653-30.461-8.653h-9.738c-15.507 0-26.147 2.634-31.952 7.933-5.808 5.267-8.726 15.040-8.726 29.283v17.098l33.69-0.006zM3285.792 152.822v-10.678h20.32v10.678c0 4.65-0.64 7.715-1.888 9.194-1.28 1.478-4.032 2.202-8.256 2.202-4.128 0-6.816-0.758-8.16-2.31-1.344-1.549-2.016-4.579-2.016-9.085v0zM3252.896 141.93c0 17.024 2.88 28.563 8.64 34.621 5.824 6.061 16.928 9.088 33.344 9.088 16.352 0 27.424-3.027 33.248-9.088 5.792-6.058 8.704-17.597 8.704-34.621v-21.638h-51.040v-13.885c0-4.509 0.64-7.466 1.888-8.87 1.28-1.408 3.872-2.128 7.84-2.128s6.56 0.758 7.84 2.234c1.248 1.478 1.888 4.403 1.888 8.765v2.416h31.616v-7.392c0-11.651-3.008-19.619-8.96-23.984-5.952-4.326-17.856-6.49-35.68-6.49-14.944 0-25.216 3.066-30.848 9.197-5.664 6.128-8.48 17.562-8.48 34.259v27.517zM3430.112 116.614v-11.29c0-13.306-2.496-22.397-7.488-27.194-5.024-4.794-14.656-7.174-28.864-7.174-16.512 0-27.648 3.030-33.472 9.050-5.792 6.026-8.736 17.491-8.736 34.406v27.482c0 16.989 2.944 28.525 8.768 34.621 5.856 6.096 16.992 9.123 33.44 9.123 14.208 0 23.84-2.381 28.864-7.174 4.992-4.797 7.488-13.888 7.488-27.264v-5.376h-30.080v4.112c0 4.4-0.544 7.357-1.6 8.835-1.024 1.478-3.072 2.198-6.112 2.198-3.136 0-5.248-0.72-6.272-2.198-1.056-1.478-1.6-4.438-1.6-8.835v-43.565c0-4.365 0.544-7.286 1.6-8.765s3.136-2.198 6.272-2.198c3.040 0 5.088 0.72 6.112 2.198 1.056 1.478 1.6 4.4 1.6 8.765v10.24l30.080 0.003zM3526.88 183.693v-110.79h-30.112v14.064c-3.2-5.734-6.848-9.843-11.040-12.294-4.192-2.49-9.472-3.715-15.808-3.715-8.64 0-14.72 2.381-18.176 7.104-3.424 4.726-5.152 13.594-5.152 26.653v78.979h32.224v-77.283c0-3.933 0.608-6.602 1.696-8.010 1.12-1.402 3.168-2.125 6.112-2.125 3.040 0 5.12 0.723 6.272 2.163s1.728 4.112 1.728 7.971v77.283h32.256zM3546.56 72.902v110.79h29.888v-12.118c2.816 4.941 6.080 8.512 9.76 10.749 3.616 2.198 8.16 3.315 13.568 3.315 6.72 0 11.456-1.696 14.208-5.12 2.784-3.389 4.192-9.27 4.192-17.562v-24.416h-26.624v11.648c0 3.933-0.448 6.602-1.44 8.006-0.928 1.405-2.592 2.128-4.96 2.128-2.496 0-4.192-0.685-5.12-2.019-0.992-1.334-1.44-4.038-1.44-8.115v-77.283l-32.032-0.003zM3630.56 207.062v25.533h32v-25.533h-32zM3662.56 72.902h-32v110.79h32v-110.79zM3686.432 159.456h-9.76v24.234h9.76v29.427h32.224v-29.427h18.176v-24.234h-18.176v-51.68c0-4.221 0.96-7.318 2.912-9.232 1.92-1.946 5.024-2.922 9.248-2.922 1.024 0 1.856 0.038 2.4 0.074 0.576 0.035 1.12 0.070 1.6 0.144l0.096-23.77c-3.296-0.467-6.368-0.864-9.216-1.152-2.848-0.25-5.504-0.397-7.904-0.397-12.128 0-20.384 2.234-24.768 6.704-4.416 4.474-6.624 13.562-6.624 27.267v54.96l0.032 0.003zM3759.52 72.902l-14.496 110.79h32.032l9.952-94.742 10.88 94.742h30.88l-15.328-102.963c-2.976-19.798-7.008-32.816-12.128-39.091s-13.056-9.414-23.84-9.414c-2.528 0-5.248 0.214-8.16 0.688-2.88 0.467-6.080 1.19-9.568 2.16v22.541c1.728-0.506 3.296-0.829 4.704-1.046 1.44-0.214 2.688-0.323 3.712-0.323 4.672 0 8.224 1.37 10.752 4.109 2.496 2.742 3.968 6.925 4.384 12.55h-23.776z" />
<glyph unicode="&#xe929;" horiz-adv-x="3433" d="M226.053 28.937v415.431h-188.899v102.352h479.399v-102.352h-188.901v-415.431h-101.6zM1022.295 28.937l-179.119 169.333h-163.313v-169.333h-102.355v517.783h422.96c27.591 0 50.796-2.885 69.614-8.656 18.814-5.768 33.988-14.923 45.529-27.467s19.947-29.1 25.214-49.67c5.268-20.573 7.903-45.408 7.903-74.508v-31.611c0-31.608-3.138-57.443-9.406-77.517-6.274-20.067-16.432-35.87-30.482-47.411-14.050-11.538-32.111-19.441-54.188-23.709-22.073-4.262-49.17-6.397-81.278-6.397l191.913-170.836h-142.993zM1047.883 369.11c0 25.088-2.885 43.776-8.656 56.070-5.768 12.291-19.694 18.438-41.767 18.438h-317.597v-160.301h317.597c18.062 0 30.982 4.515 38.755 13.547 7.779 9.032 11.665 24.835 11.665 47.411v24.838l0.003-0.003zM1747.793 28.937l-64.723 120.416h-312.326l-64.723-120.416h-115.902l283.726 517.783h106.117l283.726-517.783h-115.896zM1527.287 445.121l-117.405-214.489h234.809l-117.405 214.489zM2048.075 28.937c-31.106 0-56.943 2.762-77.517 8.279-20.57 5.521-37.003 14.679-49.294 27.47-12.294 12.794-21.070 29.979-26.341 51.552-5.271 21.57-7.906 48.414-7.906 80.526v182.124c0 32.111 2.635 58.955 7.906 80.526 5.268 21.573 14.047 38.885 26.341 51.929 12.291 13.047 28.723 22.2 49.294 27.467 20.573 5.268 46.411 7.903 77.517 7.903h290.5c19.067 0 35.75-2.635 50.050-7.903s26.467-11.788 36.503-19.567c10.032-7.776 18.062-16.056 24.082-24.835 6.024-8.782 10.535-16.682 13.547-23.709l-64.723-66.226c-4.512 10.032-11.791 19.191-21.823 27.467-10.032 8.279-24.835 12.418-44.405 12.418h-282.97c-22.579 0-38.385-4.765-47.414-14.3-9.029-9.532-13.547-26.594-13.547-51.176v-182.88c0-11.035 0.753-20.57 2.256-28.597 1.506-8.026 4.391-14.8 8.659-20.317 4.262-5.524 10.409-9.659 18.438-12.421 8.026-2.762 18.565-4.138 31.611-4.138h286.738c20.067 0 34.867 4.138 44.402 12.418 9.532 8.279 16.556 17.435 21.073 27.47l64.72-65.476c-3.009-7.026-7.526-14.926-13.547-23.706-6.021-8.782-14.050-17.062-24.082-24.838-10.035-7.779-22.203-14.3-36.503-19.567s-30.982-7.903-50.046-7.903l-293.518 0.009zM2542.529 28.937v517.783h497.456v-102.352h-395.854v-114.396h384.56v-83.537h-384.56v-115.899h395.854v-101.602l-497.456 0.003z" />
<glyph unicode="&#xe92a;" horiz-adv-x="3433" d="M1548.734 686.391c14.981-9.183 27.726-15.555 38.234-19.289 10.448-3.674 20.67-5.512 30.654-5.512 10.047 0 18.143 2.243 24.284 6.662 6.087 4.419 9.126 10.103 9.126 17.049 0 9.929-10.848 21.181-32.605 33.58-3.5 2.012-6.201 3.617-8.096 4.707l-16.474 9.3c-16.017 9.067-27.898 19.346-35.593 30.769-7.749 11.423-11.598 24.4-11.598 38.865 0 19.633 7.409 35.706 22.218 48.279 14.755 12.573 33.867 18.831 57.29 18.831 8.671 0 18.028-1.036 28.073-3.042 10.104-2.012 21.296-5.168 33.638-9.414v-57.118c-11.767 7.348-22.907 13.031-33.467 17.049-10.565 4.018-19.519 6.027-26.925 6.027-8.207 0-14.637-1.781-19.345-5.282s-7.063-8.324-7.063-14.351c0-4.249 1.379-8.21 4.189-11.884 2.816-3.731 7.005-7.060 12.631-10.102l28.588-15.786c23.941-13.261 40.011-25.49 48.279-36.685 8.267-11.25 12.399-24.511 12.399-39.895 0-23.766-8.093-42.999-24.281-57.636-16.245-14.64-37.716-21.929-64.524-21.929-9.068 0-18.944 0.979-29.624 2.873-10.619 1.894-22.386 4.876-35.132 8.9l-4.879 65.039 0.003-0.005z" />
<glyph unicode="&#xe92b;" horiz-adv-x="3433" d="M979.372 617.508l50.631 251.786h4.192l92.024-158.787 86.799 158.787h4.361l50.98-251.786h-55.341l-20.667 111.368-65.443-120.325h-3.906l-70.264 121.99-21.411-113.033h-51.956z" />
<glyph unicode="&#xe92c;" horiz-adv-x="3433" d="M884.305 617.505v243.863h58.214v-243.863h-58.214z" />
<glyph unicode="&#xe92d;" horiz-adv-x="3433" d="M610.418 617.505l87.603 126.12-86.395 117.742h71.069l50.287-69.637 47.246 69.637h63.377l-78.532-112.688 96.099-131.174h-71.644l-59.244 82.722-56.142-82.722h-63.723z" />
<glyph unicode="&#xe92e;" horiz-adv-x="3433" d="M343.992 617.499l124.401 251.442h3.674l121.648-251.442h-60.91l-15.441 35.476h-98.967l-15.788-35.476h-58.618zM435.272 695h64.063l-31.63 76.35-32.434-76.35z" />
<glyph unicode="&#xe92f;" horiz-adv-x="3433" d="M37.154 617.508l50.633 251.786h4.192l92.022-158.787 86.797 158.787h4.366l50.978-251.786h-55.343l-20.666 111.368-65.442-120.325h-3.902l-70.269 121.99-21.412-113.033h-51.953z" />
<glyph unicode="&#xe930;" horiz-adv-x="3433" d="M1359.577 788.341v-60.602c0-21.44 3.976-37.485 11.836-48.142 7.867-10.666 19.781-16.008 35.789-16.008 15.378 0 27.13 5 35.22 14.921 8.087 9.915 10.412 24.36 10.234 43.339l-0.626 66.686 56.937 0.068 1.958-61.407c1.117-35.026-3.524-71.107-26.371-91.506-24.19-21.6-48.080-25.275-80.041-25.275-32.304 0-57.419 9.704-75.357 29.16-17.908 19.424-27.681 48.209-27.681 83.372v65.263l58.103 0.131z" />
<glyph unicode="&#xe931;" horiz-adv-x="3433" d="M1358.984 861.059h-57.615v-56.463h57.615v56.463z" />
<glyph unicode="&#xe932;" horiz-adv-x="3433" d="M1509.132 861.059h-57.618v-56.463h57.618v56.463z" />
<glyph unicode="&#xe933;" horiz-adv-x="3433" d="M3143.59 703.608c0-2.288-0.060-4.212-0.271-5.86-0.211-1.605-0.482-2.891-0.873-3.85-0.422-1.005-0.904-1.728-1.506-2.168-0.542-0.484-1.235-0.723-1.928-0.723h-38.039v-122.701c0-0.765-0.241-1.488-0.753-2.129-0.542-0.602-1.385-1.123-2.53-1.527-1.175-0.361-2.771-0.681-4.789-0.925-2.018-0.241-4.488-0.361-7.469-0.361-2.952 0-5.451 0.12-7.469 0.361-1.988 0.244-3.614 0.563-4.759 0.925-1.175 0.404-2.018 0.925-2.53 1.527-0.542 0.642-0.783 1.364-0.783 2.129v122.701h-38.039c-0.753 0-1.446 0.239-2.018 0.723-0.512 0.441-0.994 1.164-1.385 2.168-0.361 0.962-0.693 2.248-0.904 3.85-0.181 1.648-0.271 3.572-0.271 5.86 0 2.331 0.090 4.334 0.271 5.982 0.211 1.648 0.542 2.971 0.904 3.933 0.392 1.004 0.873 1.687 1.385 2.129 0.572 0.441 1.265 0.643 2.018 0.643h107.159c0.693 0 1.325-0.202 1.928-0.643s1.084-1.124 1.506-2.129c0.392-0.965 0.663-2.288 0.873-3.933 0.211-1.648 0.271-3.651 0.271-5.982v0zM3338.963 568.305c0-0.765-0.211-1.488-0.663-2.129-0.422-0.602-1.235-1.123-2.349-1.527-1.144-0.361-2.65-0.681-4.548-0.925-1.867-0.241-4.277-0.361-7.168-0.361-2.861 0-5.24 0.12-7.108 0.361-1.897 0.244-3.373 0.563-4.518 0.925-1.084 0.404-1.867 0.925-2.319 1.527-0.482 0.642-0.723 1.364-0.723 2.129v123.905h-0.241l-43.942-123.788c-0.331-1.003-0.813-1.846-1.536-2.53-0.723-0.681-1.656-1.202-2.891-1.605-1.205-0.361-2.771-0.642-4.608-0.765-1.897-0.12-4.186-0.16-6.837-0.16-2.68 0-4.939 0.081-6.807 0.283-1.897 0.199-3.464 0.521-4.668 0.961-1.205 0.446-2.168 0.967-2.891 1.569-0.693 0.642-1.175 1.406-1.416 2.247l-42.406 123.788h-0.241v-123.905c0-0.765-0.211-1.488-0.663-2.129-0.422-0.602-1.235-1.123-2.409-1.527-1.205-0.361-2.711-0.681-4.578-0.925-1.837-0.241-4.186-0.361-7.078-0.361-2.861 0-5.24 0.12-7.108 0.361-1.897 0.244-3.433 0.563-4.548 0.925-1.114 0.404-1.928 0.925-2.379 1.527-0.422 0.642-0.632 1.364-0.632 2.129v135.624c0 4.013 1.054 7.066 3.162 9.192 2.138 2.129 4.939 3.17 8.523 3.17h20.239c3.614 0 6.746-0.282 9.306-0.885 2.59-0.603 4.849-1.565 6.746-2.931 1.837-1.366 3.433-3.17 4.698-5.418 1.235-2.248 2.349-5.017 3.283-8.31l32.798-90.672h0.482l33.943 90.469c0.994 3.293 2.138 6.061 3.343 8.353 1.235 2.248 2.65 4.092 4.247 5.498s3.524 2.408 5.692 3.008c2.199 0.603 4.789 0.885 7.68 0.885h20.872c2.108 0 3.915-0.282 5.451-0.845 1.536-0.521 2.801-1.323 3.765-2.408 0.994-1.044 1.717-2.331 2.259-3.853 0.512-1.525 0.753-3.29 0.753-5.259v-135.625l0.030 0.006z" />
<glyph unicode="&#xe934;" horiz-adv-x="3433" d="M226.053 28.937v415.431h-188.899v102.352h479.399v-102.352h-188.901v-415.431h-101.6zM1022.295 28.937l-179.119 169.333h-163.313v-169.333h-102.355v517.783h422.96c27.591 0 50.796-2.885 69.614-8.656 18.814-5.768 33.988-14.923 45.529-27.467s19.947-29.1 25.214-49.67c5.268-20.573 7.903-45.408 7.903-74.508v-31.611c0-31.608-3.138-57.443-9.406-77.517-6.274-20.067-16.432-35.87-30.482-47.411-14.050-11.538-32.111-19.441-54.188-23.709-22.073-4.262-49.17-6.397-81.278-6.397l191.913-170.836h-142.993zM1047.883 369.11c0 25.088-2.885 43.776-8.656 56.070-5.768 12.291-19.694 18.438-41.767 18.438h-317.597v-160.301h317.597c18.062 0 30.982 4.515 38.755 13.547 7.779 9.032 11.665 24.835 11.665 47.411v24.838l0.003-0.003zM1747.793 28.937l-64.723 120.416h-312.326l-64.723-120.416h-115.902l283.726 517.783h106.117l283.726-517.783h-115.896zM1527.287 445.121l-117.405-214.489h234.809l-117.405 214.489zM2048.075 28.937c-31.106 0-56.943 2.762-77.517 8.279-20.57 5.521-37.003 14.679-49.294 27.47-12.294 12.794-21.070 29.979-26.341 51.552-5.271 21.57-7.906 48.414-7.906 80.526v182.124c0 32.111 2.635 58.955 7.906 80.526 5.268 21.573 14.047 38.885 26.341 51.929 12.291 13.047 28.723 22.2 49.294 27.467 20.573 5.268 46.411 7.903 77.517 7.903h290.5c19.067 0 35.75-2.635 50.050-7.903s26.467-11.788 36.503-19.567c10.032-7.776 18.062-16.056 24.082-24.835 6.024-8.782 10.535-16.682 13.547-23.709l-64.723-66.226c-4.512 10.032-11.791 19.191-21.823 27.467-10.032 8.279-24.835 12.418-44.405 12.418h-282.97c-22.579 0-38.385-4.765-47.414-14.3-9.029-9.532-13.547-26.594-13.547-51.176v-182.88c0-11.035 0.753-20.57 2.256-28.597 1.506-8.026 4.391-14.8 8.659-20.317 4.262-5.524 10.409-9.659 18.438-12.421 8.026-2.762 18.565-4.138 31.611-4.138h286.738c20.067 0 34.867 4.138 44.402 12.418 9.532 8.279 16.556 17.435 21.073 27.47l64.72-65.476c-3.009-7.026-7.526-14.926-13.547-23.706-6.021-8.782-14.050-17.062-24.082-24.838-10.035-7.779-22.203-14.3-36.503-19.567s-30.982-7.903-50.046-7.903l-293.518 0.009zM2542.529 28.937v517.783h497.456v-102.352h-395.854v-114.396h384.56v-83.537h-384.56v-115.899h395.854v-101.602l-497.456 0.003z" />
<glyph unicode="&#xe935;" horiz-adv-x="3433" d="M1548.737 686.391c14.981-9.183 27.729-15.555 38.234-19.289 10.448-3.674 20.67-5.512 30.657-5.512 10.044 0 18.14 2.243 24.281 6.662 6.087 4.419 9.129 10.103 9.129 17.049 0 9.929-10.848 21.181-32.608 33.58-3.5 2.012-6.201 3.617-8.096 4.707l-16.474 9.3c-16.017 9.067-27.898 19.346-35.593 30.769-7.749 11.423-11.598 24.4-11.598 38.865 0 19.633 7.409 35.706 22.218 48.279 14.758 12.573 33.867 18.831 57.29 18.831 8.671 0 18.028-1.036 28.073-3.042 10.104-2.012 21.296-5.168 33.638-9.414v-57.118c-11.767 7.348-22.904 13.031-33.467 17.049s-19.519 6.027-26.925 6.027c-8.207 0-14.637-1.781-19.345-5.282s-7.060-8.324-7.060-14.351c0-4.249 1.376-8.21 4.189-11.884 2.813-3.731 7.002-7.060 12.628-10.102l28.588-15.786c23.941-13.261 40.014-25.49 48.282-36.685 8.267-11.25 12.399-24.511 12.399-39.895 0-23.766-8.096-42.999-24.284-57.636-16.245-14.64-37.716-21.929-64.524-21.929-9.068 0-18.944 0.979-29.621 2.873-10.622 1.894-22.389 4.876-35.135 8.9l-4.879 65.039 0.003-0.005z" />
<glyph unicode="&#xe936;" horiz-adv-x="3433" d="M979.372 617.508l50.631 251.786h4.192l92.024-158.787 86.799 158.787h4.361l50.98-251.786h-55.341l-20.667 111.368-65.443-120.325h-3.906l-70.264 121.99-21.411-113.033h-51.956z" />
<glyph unicode="&#xe937;" horiz-adv-x="3433" d="M884.305 617.505v243.863h58.214v-243.863h-58.214z" />
<glyph unicode="&#xe938;" horiz-adv-x="3433" d="M610.418 617.505l87.603 126.12-86.395 117.742h71.069l50.287-69.637 47.246 69.637h63.377l-78.532-112.688 96.099-131.174h-71.644l-59.244 82.722-56.142-82.722h-63.723z" />
<glyph unicode="&#xe939;" horiz-adv-x="3433" d="M343.992 617.499l124.401 251.442h3.674l121.648-251.442h-60.91l-15.441 35.476h-98.967l-15.788-35.476h-58.618zM435.272 695h64.063l-31.63 76.35-32.434-76.35z" />
<glyph unicode="&#xe93a;" horiz-adv-x="3433" d="M37.154 617.508l50.633 251.786h4.192l92.022-158.787 86.797 158.787h4.366l50.978-251.786h-55.343l-20.666 111.368-65.442-120.325h-3.902l-70.269 121.99-21.412-113.033h-51.953z" />
<glyph unicode="&#xe93b;" horiz-adv-x="3433" d="M1359.577 788.341v-60.602c0-21.44 3.976-37.485 11.836-48.142 7.867-10.666 19.781-16.008 35.789-16.008 15.378 0 27.13 5 35.22 14.921 8.087 9.915 10.412 24.36 10.234 43.339l-0.626 66.686 56.937 0.068 1.958-61.407c1.117-35.026-3.524-71.107-26.371-91.506-24.19-21.6-48.080-25.275-80.041-25.275-32.304 0-57.419 9.704-75.357 29.16-17.908 19.424-27.681 48.209-27.681 83.372v65.263l58.103 0.131z" />
<glyph unicode="&#xe93c;" horiz-adv-x="3433" d="M1358.984 861.059h-57.615v-56.463h57.615v56.463z" />
<glyph unicode="&#xe93d;" horiz-adv-x="3433" d="M1509.132 861.059h-57.618v-56.463h57.618v56.463z" />
<glyph unicode="&#xe93e;" horiz-adv-x="3433" d="M3143.59 703.608c0-2.288-0.060-4.212-0.271-5.86-0.211-1.605-0.482-2.891-0.873-3.85-0.422-1.005-0.904-1.728-1.506-2.168-0.542-0.484-1.235-0.723-1.928-0.723h-38.039v-122.701c0-0.765-0.241-1.488-0.753-2.129-0.542-0.602-1.385-1.123-2.53-1.527-1.175-0.361-2.771-0.681-4.789-0.925-2.018-0.241-4.488-0.361-7.469-0.361-2.952 0-5.451 0.12-7.469 0.361-1.988 0.244-3.614 0.563-4.759 0.925-1.175 0.404-2.018 0.925-2.53 1.527-0.542 0.642-0.783 1.364-0.783 2.129v122.701h-38.039c-0.753 0-1.446 0.239-2.018 0.723-0.512 0.441-0.994 1.164-1.385 2.168-0.361 0.962-0.693 2.248-0.904 3.85-0.181 1.648-0.271 3.572-0.271 5.86 0 2.331 0.090 4.334 0.271 5.982 0.211 1.648 0.542 2.971 0.904 3.933 0.392 1.004 0.873 1.687 1.385 2.129 0.572 0.441 1.265 0.643 2.018 0.643h107.159c0.693 0 1.325-0.202 1.928-0.643s1.084-1.124 1.506-2.129c0.392-0.965 0.663-2.288 0.873-3.933 0.211-1.648 0.271-3.651 0.271-5.982v0zM3338.963 568.305c0-0.765-0.211-1.488-0.663-2.129-0.422-0.602-1.235-1.123-2.349-1.527-1.144-0.361-2.65-0.681-4.548-0.925-1.867-0.241-4.277-0.361-7.168-0.361-2.861 0-5.24 0.12-7.108 0.361-1.897 0.244-3.373 0.563-4.518 0.925-1.084 0.404-1.867 0.925-2.319 1.527-0.482 0.642-0.723 1.364-0.723 2.129v123.905h-0.241l-43.942-123.788c-0.331-1.003-0.813-1.846-1.536-2.53-0.723-0.681-1.656-1.202-2.891-1.605-1.205-0.361-2.771-0.642-4.608-0.765-1.897-0.12-4.186-0.16-6.837-0.16-2.68 0-4.939 0.081-6.807 0.283-1.897 0.199-3.464 0.521-4.668 0.961-1.205 0.446-2.168 0.967-2.891 1.569-0.693 0.642-1.175 1.406-1.416 2.247l-42.406 123.788h-0.241v-123.905c0-0.765-0.211-1.488-0.663-2.129-0.422-0.602-1.235-1.123-2.409-1.527-1.205-0.361-2.711-0.681-4.578-0.925-1.837-0.241-4.186-0.361-7.078-0.361-2.861 0-5.24 0.12-7.108 0.361-1.897 0.244-3.433 0.563-4.548 0.925-1.114 0.404-1.928 0.925-2.379 1.527-0.422 0.642-0.632 1.364-0.632 2.129v135.624c0 4.013 1.054 7.066 3.162 9.192 2.138 2.129 4.939 3.17 8.523 3.17h20.239c3.614 0 6.746-0.282 9.306-0.885 2.59-0.603 4.849-1.565 6.746-2.931 1.837-1.366 3.433-3.17 4.698-5.418 1.235-2.248 2.349-5.017 3.283-8.31l32.798-90.672h0.482l33.943 90.469c0.994 3.293 2.138 6.061 3.343 8.353 1.235 2.248 2.65 4.092 4.247 5.498s3.524 2.408 5.692 3.008c2.199 0.603 4.789 0.885 7.68 0.885h20.872c2.108 0 3.915-0.282 5.451-0.845 1.536-0.521 2.801-1.323 3.765-2.408 0.994-1.044 1.717-2.331 2.259-3.853 0.512-1.525 0.753-3.29 0.753-5.259v-135.625l0.030 0.006z" />
</font>
</defs>
</svg>
