<svg width="114" height="34" viewBox="0 0 114 34" fill="none" xmlns="http://www.w3.org/2000/svg">
<g clip-path="url(#clip0_643_2184)">
<path d="M7.50567 30.9142V17.1206H1.23364V13.7222H17.1512V17.1206H10.8791V30.9142H7.50567ZM33.9434 30.9142L27.9961 25.2918H22.5736V30.9142H19.1751V13.7222H33.2187C34.1348 13.7222 34.9053 13.818 35.5301 14.0096C36.1548 14.2011 36.6586 14.5051 37.0418 14.9216C37.425 15.3381 37.7041 15.8878 37.879 16.5708C38.0539 17.2539 38.1414 18.0785 38.1414 19.0447V20.0943C38.1414 21.1438 38.0372 22.0016 37.8291 22.6681C37.6208 23.3344 37.2835 23.8591 36.817 24.2423C36.3505 24.6254 35.7508 24.8878 35.0178 25.0295C34.2849 25.171 33.3852 25.2419 32.3191 25.2419L38.6912 30.9142H33.9434ZM34.793 19.6194C34.793 18.7864 34.6972 18.1659 34.5056 17.7577C34.3141 17.3496 33.8517 17.1455 33.1188 17.1455H22.5736V22.468H33.1188C33.7185 22.468 34.1475 22.3181 34.4056 22.0182C34.6639 21.7183 34.7929 21.1936 34.7929 20.444V19.6193L34.793 19.6194ZM58.0322 30.9142L55.8832 26.916H45.513L43.364 30.9142H39.5157L48.9363 13.7222H52.4597L61.8803 30.9142H58.032H58.0322ZM50.7107 17.0956L46.8125 24.2173H54.6089L50.7108 17.0956H50.7107ZM68.0025 30.9142C66.9697 30.9142 66.1118 30.8225 65.4287 30.6393C64.7457 30.456 64.2001 30.1519 63.792 29.7272C63.3838 29.3024 63.0924 28.7318 62.9174 28.0155C62.7424 27.2993 62.6549 26.408 62.6549 25.3418V19.2947C62.6549 18.2285 62.7424 17.3372 62.9174 16.621C63.0923 15.9047 63.3838 15.3299 63.792 14.8968C64.2001 14.4636 64.7457 14.1597 65.4287 13.9848C66.1118 13.8099 66.9697 13.7224 68.0025 13.7224H77.648C78.2811 13.7224 78.835 13.8099 79.3098 13.9848C79.7846 14.1597 80.1886 14.3762 80.5218 14.6345C80.8549 14.8927 81.1215 15.1676 81.3214 15.4591C81.5214 15.7507 81.6712 16.013 81.7712 16.2463L79.6222 18.4452C79.4724 18.1121 79.2307 17.808 78.8976 17.5332C78.5645 17.2583 78.073 17.1209 77.4232 17.1209H68.0277C67.278 17.1209 66.7532 17.2791 66.4534 17.5957C66.1536 17.9122 66.0036 18.4787 66.0036 19.2949V25.3671C66.0036 25.7335 66.0286 26.0501 66.0785 26.3166C66.1285 26.5831 66.2243 26.808 66.366 26.9912C66.5075 27.1746 66.7116 27.3119 66.9782 27.4036C67.2447 27.4953 67.5946 27.541 68.0278 27.541H77.5484C78.2147 27.541 78.7061 27.4036 79.0227 27.1287C79.3392 26.8538 79.5724 26.5498 79.7224 26.2166L81.8713 28.3906C81.7714 28.6239 81.6214 28.8862 81.4215 29.1777C81.2216 29.4693 80.955 29.7442 80.6219 30.0024C80.2887 30.2607 79.8847 30.4772 79.4099 30.6521C78.9351 30.827 78.3812 30.9145 77.7482 30.9145H68.0026L68.0025 30.9142ZM84.4199 30.9142V13.7222H100.937V17.1206H87.7934V20.9189H100.562V23.6926H87.7934V27.5408H100.937V30.9143H84.4199V30.9142Z" fill="#C54031"/>
<path d="M51.4228 9.08467C51.9202 9.38959 52.3434 9.60115 52.6923 9.72512C53.0392 9.84711 53.3786 9.90815 53.7101 9.90815C54.0437 9.90815 54.3125 9.83369 54.5164 9.68695C54.7185 9.54021 54.8194 9.35151 54.8194 9.12086C54.8194 8.79119 54.4592 8.41758 53.7368 8.00589C53.6206 7.93908 53.5309 7.88579 53.468 7.8496L52.921 7.54081C52.3892 7.23976 51.9947 6.89847 51.7392 6.51919C51.4819 6.13991 51.3541 5.70903 51.3541 5.22874C51.3541 4.57686 51.6001 4.04318 52.0918 3.62573C52.5817 3.20827 53.2163 3.00049 53.994 3.00049C54.2819 3.00049 54.5926 3.03488 54.9261 3.1015C55.2616 3.1683 55.6332 3.27309 56.043 3.41407V5.31057C55.6523 5.0666 55.2824 4.8779 54.9318 4.74448C54.581 4.61106 54.2837 4.54435 54.0378 4.54435C53.7653 4.54435 53.5518 4.6035 53.3955 4.71973C53.2392 4.83595 53.161 4.99611 53.161 5.19624C53.161 5.33731 53.2068 5.46884 53.3001 5.59083C53.3936 5.7147 53.5327 5.82526 53.7195 5.92626L54.6687 6.4504C55.4636 6.89072 55.9972 7.29674 56.2717 7.66846C56.5462 8.04198 56.6834 8.4823 56.6834 8.99311C56.6834 9.7822 56.4147 10.4208 55.8772 10.9068C55.3378 11.3929 54.6249 11.6349 53.7348 11.6349C53.4337 11.6349 53.1058 11.6024 52.7512 11.5395C52.3986 11.4766 52.0079 11.3776 51.5847 11.244L51.4227 9.08449L51.4228 9.08467Z" fill="#003087"/>
<path d="M32.5182 11.372L34.1993 3.01196H34.3385L37.394 8.2842L40.276 3.01196H40.4208L42.1135 11.372H40.276L39.5898 7.67427L37.4169 11.6695H37.2872L34.9542 7.61899L34.2433 11.372H32.5182Z" fill="#003087"/>
<path d="M29.3617 11.3721V3.27515H31.2946V11.3721H29.3617Z" fill="#003087"/>
<path d="M20.2678 11.3721L23.1765 7.18456L20.3079 3.27515H22.6676L24.3373 5.58731L25.906 3.27515H28.0103L25.4028 7.01675L28.5936 11.3721H26.2148L24.2477 8.62552L22.3836 11.3721H20.2678Z" fill="#003087"/>
<path d="M11.4216 11.3721L15.5521 3.02344H15.6741L19.7132 11.3721H17.6908L17.1781 10.1942H13.8921L13.3679 11.3721H11.4217H11.4216ZM14.4524 8.79883H16.5795L15.5293 6.26377L14.4523 8.79883H14.4524Z" fill="#003087"/>
<path d="M1.23364 11.372L2.9148 3.01196H3.05398L6.1094 8.2842L8.99133 3.01196H9.13628L10.8289 11.372H8.99133L8.30515 7.67427L6.13227 11.6695H6.00272L3.66958 7.61899L2.95864 11.372H1.23364Z" fill="#003087"/>
<path d="M45.1422 5.69937V7.71152C45.1422 8.42341 45.2742 8.95614 45.5352 9.31C45.7964 9.66415 46.192 9.84151 46.7235 9.84151C47.2341 9.84151 47.6243 9.67549 47.8929 9.3461C48.1614 9.0169 48.2386 8.53727 48.2327 7.90712L48.2119 5.69294L50.1024 5.69067L50.1674 7.72957C50.2045 8.89255 50.0504 10.0906 49.2918 10.7679C48.4886 11.4851 47.6954 11.607 46.6342 11.607C45.5616 11.607 44.7277 11.2848 44.1321 10.6389C43.5375 9.99392 43.213 9.03816 43.213 7.87064V5.70371L45.1421 5.69946L45.1422 5.69937Z" fill="#003087"/>
<path d="M45.1225 3.28516H43.2095V5.15992H45.1225V3.28516Z" fill="#C54031"/>
<path d="M50.1079 3.28516H48.1948V5.15992H50.1079V3.28516Z" fill="#C54031"/>
<path d="M104.377 8.51279C104.377 8.58876 104.375 8.65263 104.368 8.70734C104.361 8.76063 104.352 8.80334 104.339 8.83519C104.325 8.86854 104.309 8.89254 104.289 8.90719C104.271 8.92325 104.248 8.93119 104.225 8.93119H102.962V13.0053C102.962 13.0306 102.954 13.0546 102.937 13.076C102.919 13.096 102.891 13.1133 102.853 13.1266C102.814 13.1386 102.761 13.1493 102.694 13.1573C102.627 13.1654 102.545 13.1693 102.446 13.1693C102.348 13.1693 102.265 13.1654 102.198 13.1573C102.132 13.1493 102.078 13.1386 102.04 13.1266C102.001 13.1133 101.973 13.096 101.956 13.076C101.938 13.0546 101.93 13.0306 101.93 13.0053V8.93119H100.667C100.642 8.93119 100.619 8.92325 100.6 8.90719C100.583 8.89254 100.567 8.86854 100.554 8.83519C100.542 8.80325 100.531 8.76054 100.524 8.70734C100.518 8.65263 100.515 8.58876 100.515 8.51279C100.515 8.4354 100.518 8.36888 100.524 8.31417C100.531 8.25946 100.542 8.21552 100.554 8.18359C100.567 8.15023 100.583 8.12755 100.6 8.11291C100.619 8.09826 100.642 8.09155 100.667 8.09155H104.225C104.248 8.09155 104.269 8.09826 104.289 8.11291C104.309 8.12755 104.325 8.15023 104.339 8.18359C104.352 8.21562 104.361 8.25956 104.368 8.31417C104.375 8.36888 104.377 8.4354 104.377 8.51279H104.377ZM110.864 13.0053C110.864 13.0306 110.857 13.0546 110.842 13.076C110.828 13.096 110.801 13.1133 110.764 13.1266C110.726 13.1386 110.676 13.1493 110.613 13.1573C110.551 13.1654 110.471 13.1693 110.375 13.1693C110.28 13.1693 110.201 13.1654 110.139 13.1573C110.076 13.1493 110.027 13.1386 109.989 13.1266C109.953 13.1133 109.927 13.096 109.912 13.076C109.896 13.0546 109.888 13.0306 109.888 13.0053V8.89122H109.88L108.421 13.0013C108.41 13.0347 108.394 13.0627 108.37 13.0853C108.346 13.108 108.315 13.1253 108.274 13.1386C108.234 13.1506 108.182 13.16 108.121 13.164C108.058 13.168 107.982 13.1693 107.894 13.1693C107.805 13.1693 107.73 13.1667 107.668 13.16C107.605 13.1534 107.553 13.1427 107.513 13.128C107.473 13.1133 107.441 13.096 107.417 13.076C107.394 13.0546 107.378 13.0293 107.37 13.0013L105.962 8.89122H105.954V13.0053C105.954 13.0306 105.947 13.0546 105.932 13.076C105.918 13.096 105.891 13.1133 105.852 13.1266C105.812 13.1386 105.762 13.1493 105.7 13.1573C105.639 13.1654 105.561 13.1693 105.465 13.1693C105.37 13.1693 105.291 13.1654 105.229 13.1573C105.166 13.1493 105.115 13.1386 105.078 13.1266C105.041 13.1133 105.014 13.096 104.999 13.076C104.985 13.0546 104.978 13.0306 104.978 13.0053V8.50211C104.978 8.36888 105.013 8.26749 105.083 8.19691C105.154 8.12623 105.247 8.09165 105.366 8.09165H106.038C106.158 8.09165 106.262 8.101 106.347 8.12103C106.433 8.14107 106.508 8.173 106.571 8.21836C106.632 8.26371 106.685 8.32362 106.727 8.39827C106.768 8.47291 106.805 8.56485 106.836 8.67418L107.925 11.6848H107.941L109.068 8.68088C109.101 8.57156 109.139 8.47962 109.179 8.40356C109.22 8.32891 109.267 8.26768 109.32 8.221C109.373 8.17433 109.437 8.14107 109.509 8.12113C109.582 8.1011 109.668 8.09174 109.764 8.09174H110.457C110.527 8.09174 110.587 8.1011 110.638 8.11981C110.689 8.1371 110.731 8.16374 110.763 8.19974C110.796 8.23442 110.82 8.27713 110.838 8.32768C110.855 8.37833 110.863 8.43691 110.863 8.5023V13.0055L110.864 13.0053Z" fill="black"/>
</g>
<defs>
<clipPath id="clip0_643_2184">
<rect width="113.333" height="34" fill="white"/>
</clipPath>
</defs>
</svg>
