<svg width="114" height="34" viewBox="0 0 114 34" fill="none" xmlns="http://www.w3.org/2000/svg">
<path d="M7.50567 30.9147V17.1211H1.23364V13.7227H17.1512V17.1211H10.8791V30.9147H7.50567ZM33.9434 30.9147L27.9961 25.2922H22.5736V30.9147H19.1751V13.7227H33.2187C34.1348 13.7227 34.9053 13.8185 35.5301 14.0101C36.1548 14.2016 36.6586 14.5056 37.0418 14.9221C37.425 15.3386 37.7041 15.8883 37.879 16.5713C38.0539 17.2544 38.1414 18.079 38.1414 19.0452V20.0948C38.1414 21.1442 38.0372 22.0021 37.8291 22.6686C37.6208 23.3349 37.2835 23.8596 36.817 24.2427C36.3505 24.6259 35.7508 24.8883 35.0178 25.0299C34.2849 25.1715 33.3852 25.2424 32.3191 25.2424L38.6912 30.9147H33.9434ZM34.793 19.6198C34.793 18.7869 34.6972 18.1664 34.5056 17.7582C34.3141 17.3501 33.8517 17.146 33.1188 17.146H22.5736V22.4685H33.1188C33.7185 22.4685 34.1475 22.3186 34.4056 22.0187C34.6639 21.7188 34.7929 21.194 34.7929 20.4445V19.6198L34.793 19.6198ZM58.0322 30.9147L55.8832 26.9165H45.513L43.364 30.9147H39.5157L48.9363 13.7227H52.4597L61.8803 30.9147H58.032H58.0322ZM50.7107 17.0961L46.8125 24.2178H54.6089L50.7108 17.0961H50.7107ZM68.0025 30.9147C66.9697 30.9147 66.1118 30.823 65.4287 30.6398C64.7457 30.4565 64.2001 30.1524 63.792 29.7277C63.3838 29.3029 63.0924 28.7323 62.9174 28.016C62.7424 27.2998 62.6549 26.4084 62.6549 25.3423V19.2952C62.6549 18.229 62.7424 17.3377 62.9174 16.6215C63.0923 15.9052 63.3838 15.3304 63.792 14.8973C64.2001 14.4641 64.7457 14.1601 65.4287 13.9852C66.1118 13.8103 66.9697 13.7228 68.0025 13.7228H77.648C78.2811 13.7228 78.835 13.8103 79.3098 13.9852C79.7846 14.1601 80.1886 14.3767 80.5218 14.635C80.8549 14.8932 81.1215 15.1681 81.3214 15.4596C81.5214 15.7512 81.6712 16.0135 81.7712 16.2468L79.6222 18.4457C79.4724 18.1125 79.2307 17.8085 78.8976 17.5337C78.5645 17.2587 78.073 17.1214 77.4232 17.1214H68.0277C67.278 17.1214 66.7532 17.2796 66.4534 17.5962C66.1536 17.9127 66.0036 18.4792 66.0036 19.2954V25.3676C66.0036 25.734 66.0286 26.0506 66.0785 26.3171C66.1285 26.5836 66.2243 26.8085 66.366 26.9917C66.5075 27.175 66.7116 27.3124 66.9782 27.4041C67.2447 27.4957 67.5946 27.5415 68.0278 27.5415H77.5484C78.2147 27.5415 78.7061 27.4041 79.0227 27.1292C79.3392 26.8543 79.5724 26.5503 79.7224 26.2171L81.8713 28.3911C81.7714 28.6244 81.6214 28.8867 81.4215 29.1782C81.2216 29.4698 80.955 29.7447 80.6219 30.0029C80.2887 30.2612 79.8847 30.4777 79.4099 30.6526C78.9351 30.8275 78.3812 30.915 77.7482 30.915H68.0026L68.0025 30.9147ZM84.4199 30.9147V13.7227H100.937V17.1211H87.7934V20.9194H100.562V23.6931H87.7934V27.5413H100.937V30.9148H84.4199V30.9147Z" fill="#FF5C49"/>
<path d="M51.4229 9.08516C51.9203 9.39008 52.3436 9.60164 52.6924 9.72561C53.0393 9.8476 53.3787 9.90864 53.7103 9.90864C54.0438 9.90864 54.3126 9.83418 54.5165 9.68744C54.7186 9.5407 54.8196 9.352 54.8196 9.12135C54.8196 8.79168 54.4594 8.41807 53.7369 8.00637C53.6207 7.93957 53.531 7.88628 53.4681 7.85009L52.9211 7.5413C52.3893 7.24025 51.9948 6.89896 51.7393 6.51968C51.482 6.14039 51.3542 5.70952 51.3542 5.22923C51.3542 4.57735 51.6002 4.04367 52.0919 3.62621C52.5819 3.20876 53.2164 3.00098 53.9941 3.00098C54.282 3.00098 54.5927 3.03537 54.9262 3.10199C55.2617 3.16879 55.6333 3.27358 56.0431 3.41456V5.31106C55.6524 5.06709 55.2826 4.87839 54.9319 4.74497C54.5812 4.61155 54.2838 4.54484 54.0379 4.54484C53.7654 4.54484 53.5519 4.60399 53.3956 4.72022C53.2393 4.83644 53.1612 4.9966 53.1612 5.19673C53.1612 5.3378 53.2069 5.46933 53.3003 5.59131C53.3937 5.71519 53.5328 5.82574 53.7196 5.92675L54.6688 6.45089C55.4637 6.89121 55.9974 7.29723 56.2719 7.66895C56.5464 8.04247 56.6836 8.48279 56.6836 8.9936C56.6836 9.78268 56.4148 10.4212 55.8773 10.9073C55.3379 11.3934 54.625 11.6353 53.7349 11.6353C53.4338 11.6353 53.1059 11.6029 52.7514 11.54C52.3987 11.4771 52.008 11.378 51.5848 11.2445L51.4228 9.08497L51.4229 9.08516Z" fill="#1669FE"/>
<path d="M32.5182 11.3718L34.1993 3.01172H34.3385L37.394 8.28395L40.276 3.01172H40.4208L42.1135 11.3718H40.276L39.5898 7.67402L37.4169 11.6692H37.2872L34.9542 7.61875L34.2433 11.3718H32.5182Z" fill="#1669FE"/>
<path d="M29.3617 11.3724V3.27539H31.2946V11.3724H29.3617Z" fill="#1669FE"/>
<path d="M20.2678 11.3724L23.1765 7.1848L20.3079 3.27539H22.6676L24.3373 5.58755L25.906 3.27539H28.0103L25.4028 7.01699L28.5936 11.3724H26.2148L24.2477 8.62577L22.3836 11.3724H20.2678Z" fill="#1669FE"/>
<path d="M11.4216 11.3721L15.5521 3.02344H15.6741L19.7132 11.3721H17.6908L17.1781 10.1942H13.8921L13.3679 11.3721H11.4217H11.4216ZM14.4524 8.79883H16.5795L15.5293 6.26377L14.4523 8.79883H14.4524Z" fill="#1669FE"/>
<path d="M1.23364 11.3718L2.9148 3.01172H3.05398L6.1094 8.28395L8.99133 3.01172H9.13628L10.8289 11.3718H8.99133L8.30515 7.67402L6.13227 11.6692H6.00272L3.66958 7.61875L2.95864 11.3718H1.23364Z" fill="#1669FE"/>
<path d="M45.1422 5.69912V7.71128C45.1422 8.42316 45.2742 8.95589 45.5352 9.30976C45.7964 9.66391 46.192 9.84126 46.7235 9.84126C47.2341 9.84126 47.6243 9.67524 47.8929 9.34585C48.1614 9.01665 48.2386 8.53702 48.2327 7.90687L48.2119 5.6927L50.1024 5.69043L50.1674 7.72933C50.2045 8.8923 50.0504 10.0903 49.2918 10.7676C48.4886 11.4848 47.6954 11.6068 46.6342 11.6068C45.5616 11.6068 44.7277 11.2846 44.1321 10.6387C43.5375 9.99367 43.213 9.03791 43.213 7.8704V5.70347L45.1421 5.69922L45.1422 5.69912Z" fill="#1669FE"/>
<path d="M45.1225 3.28516H43.2095V5.15992H45.1225V3.28516Z" fill="#FF5C49"/>
<path d="M50.1079 3.28516H48.1948V5.15992H50.1079V3.28516Z" fill="#FF5C49"/>
<path d="M104.377 8.51303C104.377 8.589 104.375 8.65288 104.368 8.70759C104.361 8.76088 104.352 8.80359 104.339 8.83543C104.325 8.86879 104.309 8.89279 104.289 8.90743C104.271 8.92349 104.248 8.93143 104.225 8.93143H102.962V13.0055C102.962 13.0309 102.954 13.0549 102.937 13.0762C102.919 13.0963 102.891 13.1135 102.853 13.1269C102.814 13.1389 102.761 13.1495 102.694 13.1576C102.627 13.1656 102.545 13.1696 102.446 13.1696C102.348 13.1696 102.265 13.1656 102.198 13.1576C102.132 13.1495 102.078 13.1389 102.04 13.1269C102.001 13.1135 101.973 13.0963 101.956 13.0762C101.938 13.0549 101.93 13.0309 101.93 13.0055V8.93143H100.667C100.642 8.93143 100.619 8.92349 100.6 8.90743C100.583 8.89279 100.567 8.86879 100.554 8.83543C100.542 8.80349 100.531 8.76078 100.524 8.70759C100.518 8.65288 100.515 8.589 100.515 8.51303C100.515 8.43564 100.518 8.36912 100.524 8.31441C100.531 8.2597 100.542 8.21577 100.554 8.18383C100.567 8.15048 100.583 8.1278 100.6 8.11315C100.619 8.09851 100.642 8.0918 100.667 8.0918H104.225C104.248 8.0918 104.269 8.09851 104.289 8.11315C104.309 8.1278 104.325 8.15048 104.339 8.18383C104.352 8.21586 104.361 8.2598 104.368 8.31441C104.375 8.36912 104.377 8.43564 104.377 8.51303H104.377ZM110.864 13.0055C110.864 13.0309 110.857 13.0549 110.842 13.0762C110.828 13.0963 110.801 13.1135 110.764 13.1269C110.726 13.1389 110.676 13.1495 110.613 13.1576C110.551 13.1656 110.471 13.1696 110.375 13.1696C110.28 13.1696 110.201 13.1656 110.139 13.1576C110.076 13.1495 110.027 13.1389 109.989 13.1269C109.953 13.1135 109.927 13.0963 109.912 13.0762C109.896 13.0549 109.888 13.0309 109.888 13.0055V8.89146H109.88L108.421 13.0016C108.41 13.0349 108.394 13.0629 108.37 13.0856C108.346 13.1083 108.315 13.1255 108.274 13.1389C108.234 13.1509 108.182 13.1602 108.121 13.1643C108.058 13.1683 107.982 13.1696 107.894 13.1696C107.805 13.1696 107.73 13.1669 107.668 13.1602C107.605 13.1536 107.553 13.1429 107.513 13.1283C107.473 13.1135 107.441 13.0963 107.417 13.0762C107.394 13.0549 107.378 13.0295 107.37 13.0016L105.962 8.89146H105.954V13.0055C105.954 13.0309 105.947 13.0549 105.932 13.0762C105.918 13.0963 105.891 13.1135 105.852 13.1269C105.812 13.1389 105.762 13.1495 105.7 13.1576C105.639 13.1656 105.561 13.1696 105.465 13.1696C105.37 13.1696 105.291 13.1656 105.229 13.1576C105.166 13.1495 105.115 13.1389 105.078 13.1269C105.041 13.1135 105.014 13.0963 104.999 13.0762C104.985 13.0549 104.978 13.0309 104.978 13.0055V8.50235C104.978 8.36912 105.013 8.26774 105.083 8.19715C105.154 8.12647 105.247 8.09189 105.366 8.09189H106.038C106.158 8.09189 106.262 8.10125 106.347 8.12128C106.433 8.14131 106.508 8.17325 106.571 8.2186C106.632 8.26396 106.685 8.32386 106.727 8.39851C106.768 8.47316 106.805 8.5651 106.836 8.67442L107.925 11.685H107.941L109.068 8.68113C109.101 8.5718 109.139 8.47987 109.179 8.4038C109.22 8.32915 109.267 8.26793 109.32 8.22125C109.373 8.17457 109.437 8.14131 109.509 8.12137C109.582 8.10134 109.668 8.09199 109.764 8.09199H110.457C110.527 8.09199 110.587 8.10134 110.638 8.12005C110.689 8.13734 110.731 8.16399 110.763 8.19999C110.796 8.23467 110.82 8.27737 110.838 8.32793C110.855 8.37857 110.863 8.43716 110.863 8.50254V13.0057L110.864 13.0055Z" fill="white"/>
</svg>
