<svg width="19" height="22" viewBox="0 0 19 22" fill="none" xmlns="http://www.w3.org/2000/svg">
<path d="M17.3051 15.588C16.1013 14.0769 15.2515 13.3077 15.2515 9.14183C15.2515 5.32692 13.3521 3.96779 11.7888 3.30769C11.5811 3.22019 11.3857 3.01923 11.3224 2.80048C11.0482 1.84327 10.2794 1 9.25756 1C8.23568 1 7.46646 1.84375 7.19506 2.80144C7.13177 3.0226 6.93631 3.22019 6.72865 3.30769C5.16349 3.96875 3.26599 5.32308 3.26599 9.14183C3.26365 13.3077 2.41381 14.0769 1.21006 15.588C0.711306 16.2139 1.14818 17.1538 2.02052 17.1538H16.4993C17.3669 17.1538 17.801 16.2111 17.3051 15.588Z" stroke="#003087" stroke-width="1.8" stroke-linecap="round" stroke-linejoin="round"/>
<path d="M12.2576 17.1543V17.9235C12.2576 18.7396 11.9415 19.5222 11.3789 20.0992C10.8163 20.6763 10.0532 21.0005 9.25757 21.0005C8.46192 21.0005 7.69886 20.6763 7.13625 20.0992C6.57364 19.5222 6.25757 18.7396 6.25757 17.9235V17.1543" stroke="#003087" stroke-width="1.8" stroke-linecap="round" stroke-linejoin="round"/>
</svg>
