<svg width="24" height="24" viewBox="0 0 24 24" fill="none" xmlns="http://www.w3.org/2000/svg">
<path d="M17.96 12.44C18.6602 12.44 19.3317 12.7181 19.8268 13.2132C20.3219 13.7083 20.6 14.3798 20.6 15.08V15.96C20.6 19.429 17.3264 23 11.8 23C6.2736 23 3 19.429 3 15.96V15.08C3 14.3798 3.27814 13.7083 3.77324 13.2132C4.26833 12.7181 4.93983 12.44 5.64 12.44H17.96ZM17.96 14.2H5.64C5.40661 14.2 5.18278 14.2927 5.01775 14.4577C4.85271 14.6228 4.76 14.8466 4.76 15.08V15.96C4.76 18.4909 7.28032 21.24 11.8 21.24C16.3197 21.24 18.84 18.4909 18.84 15.96V15.08C18.84 14.8466 18.7473 14.6228 18.5823 14.4577C18.4172 14.2927 18.1934 14.2 17.96 14.2ZM11.8 1C13.0836 1 14.3147 1.50993 15.2224 2.4176C16.1301 3.32528 16.64 4.55635 16.64 5.84C16.64 7.12365 16.1301 8.35472 15.2224 9.2624C14.3147 10.1701 13.0836 10.68 11.8 10.68C10.5164 10.68 9.28528 10.1701 8.3776 9.2624C7.46993 8.35472 6.96 7.12365 6.96 5.84C6.96 4.55635 7.46993 3.32528 8.3776 2.4176C9.28528 1.50993 10.5164 1 11.8 1ZM11.8 2.76C10.9831 2.76 10.1997 3.0845 9.62211 3.66211C9.0445 4.23972 8.72 5.02313 8.72 5.84C8.72 6.65687 9.0445 7.44028 9.62211 8.01789C10.1997 8.5955 10.9831 8.92 11.8 8.92C12.6169 8.92 13.4003 8.5955 13.9779 8.01789C14.5555 7.44028 14.88 6.65687 14.88 5.84C14.88 5.02313 14.5555 4.23972 13.9779 3.66211C13.4003 3.0845 12.6169 2.76 11.8 2.76Z" fill="#003087"/>
</svg>
