<svg width="24" height="24" viewBox="0 0 24 24" fill="none" xmlns="http://www.w3.org/2000/svg">
<path d="M21.675 14.6645L20.1398 13.352C20.2125 12.9067 20.25 12.452 20.25 11.9973C20.25 11.5426 20.2125 11.0879 20.1398 10.6426L21.675 9.33009C21.7908 9.23096 21.8736 9.09894 21.9126 8.95157C21.9515 8.8042 21.9447 8.64847 21.893 8.50509L21.8719 8.44415C21.4492 7.26296 20.8164 6.16798 20.0039 5.21211L19.9617 5.16289C19.8631 5.047 19.7318 4.96369 19.5849 4.92394C19.4381 4.8842 19.2826 4.88988 19.139 4.94024L17.2336 5.61758C16.5305 5.04102 15.7453 4.58633 14.8969 4.26758L14.5289 2.27539C14.5011 2.12549 14.4284 1.98758 14.3204 1.88C14.2124 1.77241 14.0742 1.70023 13.9242 1.67305L13.8609 1.66133C12.6398 1.44102 11.3555 1.44102 10.1344 1.66133L10.0711 1.67305C9.92108 1.70023 9.78289 1.77241 9.67488 1.88C9.56687 1.98758 9.49416 2.12549 9.4664 2.27539L9.09608 4.27696C8.25442 4.59577 7.47062 5.05022 6.77577 5.62227L4.85624 4.94024C4.71272 4.88948 4.55716 4.88359 4.41021 4.92336C4.26327 4.96313 4.13191 5.04668 4.03359 5.16289L3.9914 5.21211C3.17987 6.16866 2.54712 7.26345 2.12343 8.44415L2.10234 8.50509C1.99687 8.79806 2.08359 9.12618 2.3203 9.33009L3.87421 10.6567C3.80155 11.0973 3.7664 11.5473 3.7664 11.9949C3.7664 12.4449 3.80155 12.8949 3.87421 13.3332L2.3203 14.6598C2.20451 14.7589 2.12164 14.8909 2.0827 15.0383C2.04377 15.1857 2.05062 15.3414 2.10234 15.4848L2.12343 15.5457C2.54765 16.727 3.17577 17.8168 3.9914 18.7778L4.03359 18.827C4.13215 18.9429 4.26352 19.0262 4.41037 19.0659C4.55723 19.1057 4.71268 19.1 4.85624 19.0496L6.77577 18.3676C7.47421 18.9418 8.25468 19.3965 9.09608 19.7129L9.4664 21.7145C9.49416 21.8644 9.56687 22.0023 9.67488 22.1099C9.78289 22.2175 9.92108 22.2896 10.0711 22.3168L10.1344 22.3285C11.3667 22.55 12.6286 22.55 13.8609 22.3285L13.9242 22.3168C14.0742 22.2896 14.2124 22.2175 14.3204 22.1099C14.4284 22.0023 14.5011 21.8644 14.5289 21.7145L14.8969 19.7223C15.745 19.4044 16.5345 18.9482 17.2336 18.3723L19.139 19.0496C19.2826 19.1004 19.4381 19.1063 19.5851 19.0665C19.732 19.0267 19.8634 18.9432 19.9617 18.827L20.0039 18.7778C20.8195 17.8145 21.4476 16.727 21.8719 15.5457L21.893 15.4848C21.9984 15.1965 21.9117 14.8684 21.675 14.6645ZM18.4758 10.9192C18.5344 11.2731 18.5648 11.6363 18.5648 11.9996C18.5648 12.3629 18.5344 12.7262 18.4758 13.0801L18.3211 14.0199L20.0719 15.5176C19.8064 16.1291 19.4714 16.7079 19.0734 17.2426L16.8984 16.4715L16.1625 17.0762C15.6023 17.5356 14.9789 17.8965 14.3039 18.1496L13.4109 18.4848L12.9914 20.7582C12.3294 20.8332 11.6612 20.8332 10.9992 20.7582L10.5797 18.4801L9.69374 18.1403C9.02577 17.8871 8.40468 17.5262 7.84921 17.0692L7.11327 16.4621L4.92421 17.2403C4.52577 16.7035 4.19296 16.1246 3.92577 15.5153L5.6953 14.0035L5.54296 13.066C5.48671 12.7168 5.45624 12.3559 5.45624 11.9996C5.45624 11.641 5.48437 11.2824 5.54296 10.9332L5.6953 9.99571L3.92577 8.48399C4.19062 7.87227 4.52577 7.29571 4.92421 6.75899L7.11327 7.53712L7.84921 6.93008C8.40468 6.47305 9.02577 6.11211 9.69374 5.85899L10.582 5.52383L11.0016 3.24571C11.6601 3.17071 12.3328 3.17071 12.9937 3.24571L13.4133 5.51915L14.3062 5.8543C14.9789 6.10743 15.6047 6.46837 16.1648 6.92774L16.9008 7.53243L19.0758 6.76133C19.4742 7.29805 19.807 7.87696 20.0742 8.48634L18.3234 9.98399L18.4758 10.9192ZM12 7.64024C9.72186 7.64024 7.87499 9.48712 7.87499 11.7652C7.87499 14.0434 9.72186 15.8903 12 15.8903C14.2781 15.8903 16.125 14.0434 16.125 11.7652C16.125 9.48712 14.2781 7.64024 12 7.64024ZM13.8562 13.6215C13.6128 13.8657 13.3234 14.0593 13.0049 14.1912C12.6863 14.3231 12.3448 14.3908 12 14.3903C11.2992 14.3903 10.6406 14.116 10.1437 13.6215C9.89958 13.378 9.70596 13.0887 9.57403 12.7701C9.4421 12.4516 9.37445 12.1101 9.37499 11.7652C9.37499 11.0645 9.64921 10.4059 10.1437 9.90899C10.6406 9.41212 11.2992 9.14024 12 9.14024C12.7008 9.14024 13.3594 9.41212 13.8562 9.90899C14.1004 10.1525 14.294 10.4418 14.426 10.7604C14.5579 11.0789 14.6255 11.4204 14.625 11.7652C14.625 12.466 14.3508 13.1246 13.8562 13.6215Z" fill="#003087"/>
</svg>
